<svg width="158" height="56" viewBox="0 0 158 56" fill="none" xmlns="http://www.w3.org/2000/svg">
<g id="Group">
<path id="Vector" d="M106.906 55.4994C105.294 55.2402 103.678 55.0007 102.121 54.4823C99.9665 53.7639 100.402 54.0955 100.372 52.1402C100.343 50.2994 100.362 48.4573 100.368 46.6152C100.371 45.8376 100.448 45.7968 101.139 46.1231C104.764 47.8323 108.545 48.5468 112.521 47.8297C115.431 47.3047 117.114 45.452 117.473 42.4994C117.532 42.0218 117.558 41.5402 117.608 41.0612C117.656 40.5928 117.557 40.4165 117.036 40.6231C114.172 41.7599 111.231 41.7468 108.302 40.9941C104.786 40.0915 102.195 37.9481 100.877 34.5376C99.0245 29.7415 99.2247 24.9876 101.866 20.5047C103.546 17.6534 106.176 15.9126 109.219 14.7757C111.858 13.7902 114.6 13.3705 117.404 13.2126C121.678 12.9718 125.882 13.4665 130.067 14.2586C130.602 14.3599 130.724 14.5126 130.473 15.027C129.646 16.7178 128.838 18.4205 128.063 20.1363C127.837 20.6363 127.546 20.7955 127.046 20.6415C126.922 20.6034 126.793 20.581 126.663 20.5573C126.115 20.4573 125.869 20.6363 125.886 21.2481C125.988 24.9494 126.093 28.6507 126.14 32.3534C126.184 35.8797 126.193 39.4034 125.802 42.9231C125.076 49.4481 121.063 53.8915 114.653 55.131C113.949 55.2665 113.241 55.3784 112.534 55.5007H106.909L106.906 55.4994ZM117.616 29.9599C117.662 27.9205 117.499 25.8849 117.49 23.8468C117.486 22.9034 117.443 21.9599 117.486 21.0191C117.515 20.3928 117.271 20.2178 116.688 20.2428C115.991 20.2731 115.298 20.2876 114.605 20.406C111.408 20.9534 109.368 22.8336 108.815 25.7744C108.573 27.0586 108.561 28.3481 108.807 29.631C109.25 31.9494 110.436 33.6231 112.833 34.2113C114.295 34.5705 115.731 34.3862 117.158 33.9941C117.522 33.8941 117.625 33.6652 117.621 33.3139C117.609 32.1955 117.617 31.077 117.617 29.9586L117.616 29.9599Z" fill="white"/>
<path id="Vector_2" d="M28.0136 0.49939C28.0136 13.4297 28.0136 26.3612 28.0123 39.2915C28.0123 40.4178 28.0123 40.4218 26.9094 40.6218C23.0629 41.3218 19.1915 41.7297 15.277 41.5744C13.0018 41.4849 10.7711 41.1297 8.62805 40.3152C4.09729 38.5928 1.62193 35.2389 0.907576 30.4836C0.88141 30.3112 0.835618 30.1428 0.800293 29.9731C0.800293 28.4375 0.800293 26.9033 0.800293 25.3678C0.840851 25.1981 0.890568 25.031 0.919351 24.8599C1.57352 20.9691 3.3136 17.7402 6.66293 15.5481C9.90237 13.4283 13.5081 12.877 17.2971 13.1731C17.9146 13.2218 18.6865 13.6836 19.0908 13.3033C19.4885 12.9283 19.2099 12.0981 19.2138 11.4691C19.2347 7.81255 19.2386 4.15597 19.2491 0.49939H28.0149L28.0136 0.49939ZM19.2164 27.406C19.2164 25.3468 19.2033 23.2862 19.2256 21.227C19.2308 20.7336 19.0319 20.5191 18.5792 20.4191C17.458 20.1704 16.3197 20.1547 15.1972 20.2889C12.6773 20.5902 10.9307 21.9283 10.1025 24.3836C9.58183 25.9297 9.53865 27.5178 9.74537 29.1191C10.1182 32.0125 11.878 33.8691 14.7066 34.3783C16.0084 34.6125 17.3088 34.4849 18.6106 34.3862C19.0646 34.352 19.2295 34.1165 19.2256 33.6507C19.2059 31.5691 19.2177 29.4875 19.2164 27.406Z" fill="white"/>
<path id="Vector_3" d="M157.8 29.5783C157.534 31.0204 157.272 32.4599 156.715 33.8296C155.232 37.4783 152.657 39.9757 148.927 41.1744C145.157 42.3862 141.369 42.3402 137.649 40.9283C134.299 39.656 131.977 37.2744 130.739 33.9139C129.213 29.7717 129.24 25.5639 130.762 21.4349C132.503 16.7165 136.032 14.1073 140.89 13.2454C143.884 12.7139 146.855 12.8757 149.711 13.956C154.221 15.6612 156.674 19.0875 157.57 23.7507C157.649 24.1586 157.725 24.5665 157.8 24.9731V29.5783ZM143.249 20.1086C141.731 20.1139 140.177 21.152 139.358 23.1178C138.578 24.9875 138.484 26.9507 138.66 28.9336C138.775 30.2283 139.052 31.4902 139.743 32.6217C140.694 34.1796 142.114 34.9402 143.898 34.9033C145.747 34.8652 147.2 34.0139 147.972 32.2967C149.385 29.1573 149.354 25.9441 148.036 22.7954C147.287 21.0046 145.824 20.081 143.249 20.1086Z" fill="white"/>
<path id="Vector_4" d="M41.6203 0.49939C41.6295 3.28228 41.6347 6.06518 41.653 8.84807C41.6557 9.30597 41.4581 9.46649 41.0237 9.46518C38.5183 9.45728 36.0115 9.45202 33.506 9.46781C32.9003 9.47176 32.8545 9.11123 32.8545 8.65202C32.8584 5.93492 32.8545 3.21649 32.8545 0.49939L41.6203 0.49939Z" fill="white"/>
<path id="Vector_5" d="M71.7131 28.1072C71.7131 24.0717 71.7288 20.0375 71.6974 16.002C71.6921 15.3007 71.9132 15.0059 72.5923 14.8375C77.1806 13.6941 81.8147 12.9414 86.56 13.1204C88.219 13.1822 89.8531 13.4375 91.4336 13.9901C94.9425 15.2164 96.9573 17.8941 97.1196 21.6243C97.393 27.9362 97.168 34.252 97.2465 40.5651C97.2543 41.1796 96.9495 41.2941 96.4353 41.2915C94.0581 41.2796 91.6821 41.2901 89.3049 41.2849C88.5212 41.2836 88.461 41.2204 88.4597 40.4086C88.4571 35.3428 88.4623 30.277 88.4532 25.2112C88.4519 24.402 88.482 23.5915 88.3053 22.7875C87.9743 21.2888 87.031 20.398 85.512 20.2757C84.0951 20.1612 82.686 20.2204 81.2887 20.5559C80.6987 20.698 80.488 20.952 80.4907 21.5836C80.5142 27.7888 80.5051 33.9954 80.5051 40.2007C80.5051 40.9226 80.1457 41.284 79.427 41.2849C77.1806 41.2849 74.9355 41.2862 72.6891 41.2849C71.7379 41.2849 71.7117 41.2572 71.7117 40.277C71.7104 36.2204 71.7117 32.1638 71.7117 28.1059L71.7131 28.1072Z" fill="white"/>
<path id="Vector_6" d="M67.6968 30.2349C67.6968 33.4797 67.6798 36.7244 67.7112 39.9678C67.7164 40.5889 67.4953 40.8205 66.9171 40.8876C64.4077 41.1797 61.8983 41.4455 59.3745 41.5928C57.6109 41.6955 55.8472 41.7639 54.0836 41.6941C52.4901 41.631 50.9214 41.3928 49.4102 40.8336C46.9074 39.9086 45.4787 38.0968 45.0247 35.4863C44.7971 34.181 44.7997 32.8678 45.0496 31.5639C45.5206 29.1073 46.9532 27.3863 49.1211 26.2349C51.5925 24.9231 54.2825 24.402 57.0104 24.0257C57.743 23.9244 58.4796 23.8376 59.2162 23.7678C59.5485 23.7363 59.6754 23.5705 59.6741 23.2586C59.6715 22.7323 59.6885 22.206 59.6689 21.681C59.6336 20.7073 59.2594 20.2257 58.3174 20.0152C56.9319 19.7073 55.5385 19.8731 54.1582 20.0652C51.7652 20.3994 49.4914 21.1428 47.3248 22.2126C46.8538 22.4441 46.6693 22.4047 46.6758 21.8257C46.6968 19.9626 46.6902 18.0994 46.6784 16.2363C46.6758 15.8599 46.8014 15.6244 47.1507 15.4705C51.9157 13.3718 56.8429 12.5218 62.0095 13.4955C62.6977 13.6244 63.3532 13.8639 63.9916 14.1534C66.1857 15.1494 67.3082 16.8902 67.5594 19.2639C67.8146 21.6705 67.6497 24.0823 67.6929 26.4902C67.7151 27.7389 67.6968 28.9889 67.6968 30.2389V30.2349ZM60.0666 32.4297H60.0692C60.0692 31.7284 60.0431 31.0244 60.0771 30.3257C60.1059 29.7336 59.8691 29.5376 59.3039 29.6152C58.0295 29.7902 56.7526 29.9468 55.511 30.2928C54.8595 30.4744 54.2249 30.7139 53.6767 31.1323C52.7792 31.8178 52.6209 32.7678 52.8132 33.7902C52.9951 34.7573 53.712 35.2152 54.6148 35.3626C56.3117 35.6376 58.0021 35.4744 59.6859 35.1941C60.0287 35.1376 60.0666 34.8757 60.0679 34.6007C60.0719 33.877 60.0679 33.1534 60.0679 32.4297H60.0666Z" fill="white"/>
<path id="Vector_7" d="M41.6374 25.7902C41.6374 29.1889 41.6728 32.5862 41.6243 35.9836C41.5916 38.2599 41.4621 40.5336 41.0212 42.781C40.0714 47.6244 37.2846 50.9797 32.8925 53.0652C32.6296 53.1902 32.4071 53.1862 32.1494 53.0639C29.7682 51.9257 27.3831 50.7954 25.0007 49.6573C24.8528 49.5862 24.6213 49.5547 24.6291 49.3441C24.637 49.1415 24.8646 49.1073 25.0151 49.0336C26.5066 48.2981 27.951 47.4968 29.19 46.3573C31.1001 44.5994 32.0212 42.3494 32.4255 39.8415C32.8167 37.4099 32.8559 34.956 32.8572 32.502C32.8598 26.5823 32.8572 20.6639 32.8585 14.7441C32.8585 13.752 32.8624 13.7507 33.8254 13.7507C36.1359 13.7507 38.4464 13.7494 40.7569 13.7507C41.6479 13.7507 41.6505 13.7547 41.6505 14.677C41.6518 18.3823 41.6505 22.0876 41.6505 25.7915H41.6374V25.7902Z" fill="white"/>
</g>
</svg>
