<svg width="244" height="64" viewBox="0 0 244 64" fill="none" xmlns="http://www.w3.org/2000/svg">
<g id="wsscjE.tif">
<g id="Group">
<path id="Vector" d="M0.407243 32.4592C0.591343 31.9657 0.771527 31.478 1.16127 31.0922C1.71553 30.5438 2.36968 30.2598 3.15308 30.2598C7.55583 30.2618 11.9605 30.2618 16.3633 30.2618C31.0776 30.2618 45.792 30.2794 60.5063 30.2422C62.5726 30.2363 64.6075 29.8211 66.5131 28.9515C67.036 28.7126 67.0164 28.8066 66.7129 28.2719C65.9255 26.8814 65.4379 25.3968 65.2283 23.8124C64.9933 22.0282 65.1774 20.2812 65.6416 18.5557C66.2037 16.4718 67.1379 14.5642 68.405 12.8172C68.548 12.6214 68.644 12.5901 68.8692 12.7134C70.1481 13.4166 71.3154 14.2705 72.3338 15.3124C74.2786 17.3042 75.5908 19.6407 76.0609 22.4081C76.1098 22.6921 76.2509 22.6941 76.4643 22.6588C77.804 22.4336 79.1534 22.3591 80.5067 22.4081C82.5122 22.4825 84.4531 22.837 86.2373 23.8202C86.7387 24.0964 87.1715 24.4685 87.6455 24.7799C87.7904 24.8758 87.7591 24.9914 87.716 25.1187C87.1911 26.7462 86.3686 28.1916 85.1876 29.4411C82.8961 31.8638 80.0563 33.1095 76.7718 33.4404C76.055 33.5129 75.3362 33.5403 74.6194 33.5188C74.3335 33.5109 74.2022 33.605 74.1043 33.8635C73.1917 36.2744 72.138 38.6227 70.9335 40.9024C69.4333 43.7364 67.6921 46.4097 65.62 48.8638C64.7622 49.8802 63.875 50.8732 62.9173 51.7976C60.9901 53.6563 58.9082 55.3288 56.6343 56.7507C53.6809 58.5996 50.5316 60.0332 47.2217 61.1143C44.3133 62.0642 41.3285 62.6713 38.2967 63.0552C35.9935 63.347 33.6844 63.5194 31.3616 63.5115C31.2657 63.5115 31.1677 63.5096 31.0796 63.5644H30.7564C30.6174 63.4841 30.4627 63.5115 30.3158 63.5115C28.8665 63.5194 27.423 63.4449 25.9777 63.3235C23.1907 63.0904 20.4409 62.6557 17.744 61.9075C16.095 61.4492 14.489 60.8754 12.9633 60.1037C10.852 59.0363 9.03843 57.5831 7.48337 55.7989C6.26517 54.4005 5.2487 52.8689 4.38499 51.2336C3.41357 49.3965 2.67717 47.4674 2.08961 45.4755C1.28466 42.7414 0.751942 39.9564 0.513003 37.1146C0.479708 36.7229 0.51692 36.3214 0.401367 35.9356V32.4573L0.407243 32.4592Z" fill="white"/>
<path id="Vector_2" d="M117.184 32.3986C117.184 35.8319 117.18 39.2671 117.184 42.7004C117.188 44.6648 116.88 46.5665 116.095 48.3782C115.554 49.6277 114.83 50.7617 113.933 51.7879C112.452 53.4801 110.646 54.6963 108.535 55.4543C107.013 56.0007 105.444 56.2299 103.825 56.1809C101.98 56.1261 100.237 55.6971 98.5838 54.8902C96.2414 53.7465 94.418 52.0445 93.094 49.804C92.1402 48.1921 91.5684 46.449 91.3686 44.5884C91.1042 42.1129 91.4685 39.7352 92.5104 37.4673C93.1704 36.0297 94.0341 34.7253 95.1779 33.6305C97.6456 31.2685 100.587 30.0112 104.021 29.9387C106.157 29.8937 108.175 30.3696 110.078 31.3273C110.721 31.6505 111.332 32.0304 111.91 32.4613C112.005 32.5337 112.096 32.6943 112.229 32.6199C112.335 32.5612 112.278 32.4025 112.278 32.2889C112.28 28.5971 112.278 24.9053 112.282 21.2135C112.284 19.6976 113.557 18.6028 115.035 18.8241C116.361 19.0239 117.178 20.0129 117.18 21.4525C117.184 24.9621 117.18 28.4698 117.18 31.9795V32.3986H117.184ZM104.215 34.9036C99.7726 34.9036 96.1865 38.5033 96.1846 42.9648C96.1846 47.4498 99.7706 51.0731 104.211 51.0692C108.649 51.0652 112.309 47.4048 112.278 42.9511C112.246 38.5679 108.676 34.8624 104.215 34.9036Z" fill="white"/>
<path id="Vector_3" d="M210.121 45.4755C207.158 45.4755 204.193 45.4755 201.23 45.4755C200.789 45.4755 200.771 45.4912 200.94 45.9005C202.191 48.9715 204.481 50.6891 207.765 51.0769C209.89 51.3276 211.809 50.7968 213.488 49.4494C213.68 49.2946 213.85 49.1145 214.028 48.946C214.763 48.2468 215.868 48.096 216.778 48.57C217.636 49.0165 218.153 50.0624 218.016 51.0299C217.885 51.9563 217.342 52.6006 216.633 53.1529C213.96 55.2329 210.934 56.1965 207.556 55.9517C204.845 55.7538 202.42 54.7746 200.333 53.0295C197.563 50.7165 195.969 47.7435 195.65 44.1614C195.332 40.6086 196.329 37.4064 198.621 34.6489C200.883 31.9285 203.803 30.3891 207.317 30.0346C209.526 29.8113 211.657 30.1913 213.696 31.0883C215.331 31.807 216.763 32.8137 217.981 34.1103C219.926 36.1785 221.081 38.6149 221.351 41.4567C221.402 41.9815 221.371 42.5084 221.416 43.0313C221.528 44.322 220.337 45.4912 218.984 45.4795C217.544 45.4677 216.105 45.4775 214.667 45.4775C213.153 45.4775 211.639 45.4775 210.123 45.4775L210.121 45.4755ZM208.509 40.5675C210.934 40.5675 213.361 40.5675 215.785 40.5675C216.238 40.5675 216.249 40.5479 216.077 40.121C215.734 39.269 215.28 38.4895 214.675 37.7903C213.106 35.9826 211.132 35.0151 208.746 34.9191C207.115 34.8525 205.607 35.2912 204.22 36.153C202.663 37.1205 201.545 38.4464 200.924 40.1758C200.785 40.5616 200.795 40.5655 201.202 40.5655C203.639 40.5655 206.075 40.5655 208.511 40.5655L208.509 40.5675Z" fill="white"/>
<path id="Vector_4" d="M172.667 37.3654C172.667 32.0324 172.667 26.6993 172.667 21.3643C172.667 20.0835 173.441 19.1081 174.641 18.8496C176.026 18.5519 177.483 19.6702 177.513 21.0862C177.538 22.3514 177.522 23.6186 177.522 24.8857C177.522 29.4785 177.522 34.0712 177.522 38.6659C177.522 38.7521 177.518 38.8382 177.522 38.9224C177.528 39.0027 177.487 39.1124 177.585 39.1536C177.673 39.1908 177.744 39.1065 177.812 39.0615C179.33 38.0685 180.846 37.0736 182.364 36.0806C185.292 34.1652 188.22 32.2478 191.15 30.3363C192.078 29.7311 193.163 29.7487 193.988 30.3676C194.855 31.0179 195.235 32.1127 194.949 33.1448C194.814 33.6325 194.524 34.0124 194.107 34.2866C191.579 35.9514 189.046 37.6083 186.516 39.2671C185.897 39.6726 185.278 40.0819 184.655 40.4834C184.522 40.5696 184.508 40.6381 184.614 40.7595C185.558 41.8269 186.5 42.9002 187.442 43.9695C188.484 45.1525 189.524 46.3354 190.568 47.5184C191.463 48.5309 192.376 49.5278 193.249 50.558C193.78 51.1847 194.43 51.7214 194.781 52.4911C195.204 53.4214 194.955 54.5847 194.18 55.2937C193.39 56.0144 192.264 56.1672 191.369 55.6815C190.901 55.4269 190.599 55.0038 190.259 54.62C189.317 53.5643 188.384 52.4989 187.446 51.4393C186.351 50.2035 185.255 48.9696 184.16 47.7338C182.943 46.3609 181.727 44.9899 180.519 43.6111C180.331 43.3957 180.186 43.3487 179.931 43.525C179.261 43.9911 178.578 44.4357 177.887 44.8685C177.61 45.0409 177.499 45.2367 177.501 45.5697C177.514 48.198 177.513 50.8283 177.507 53.4566C177.505 54.759 176.57 55.8049 175.309 55.9341C173.977 56.0712 172.753 55.0293 172.675 53.6897C172.665 53.5193 172.667 53.3469 172.667 53.1746C172.667 47.9062 172.667 42.6358 172.667 37.3674V37.3654Z" fill="white"/>
<path id="Vector_5" d="M132.527 29.968C135.719 30.0189 138.534 31.0315 140.953 33.1114C143.528 35.3265 145.011 38.1233 145.4 41.488C145.708 44.1418 145.302 46.6918 144.084 49.0812C142.88 51.4471 141.127 53.3116 138.781 54.5768C135.089 56.5647 131.268 56.7958 127.435 55.1115C123.099 53.2058 120.555 49.8117 119.781 45.1544C119.334 42.4575 119.675 39.8213 120.901 37.3477C122.987 33.1349 126.381 30.724 131.031 30.0659C131.532 29.9954 132.035 30.0013 132.525 29.97L132.527 29.968ZM140.586 42.9393C140.631 38.611 137.128 34.8095 132.574 34.8075C128.036 34.8075 124.487 38.3701 124.474 42.9119C124.46 47.3753 128.097 51.0103 132.562 50.9986C137.022 50.9868 140.641 47.2147 140.586 42.9393Z" fill="white"/>
<path id="Vector_6" d="M160.44 55.9106C157.578 55.848 154.828 54.8707 152.468 52.871C149.77 50.5854 148.248 47.6613 147.88 44.1536C147.635 41.821 148.036 39.5844 149.004 37.4438C149.644 36.0278 150.506 34.7606 151.601 33.6756C153.734 31.5584 156.297 30.2795 159.302 29.9407C161.123 29.735 162.925 29.8388 164.684 30.399C166.268 30.9043 167.682 31.7092 168.967 32.7688C169.578 33.2721 169.993 33.8538 170.068 34.6529C170.189 35.9514 169.204 37.434 167.545 37.3243C166.821 37.2753 166.243 36.9835 165.692 36.5311C164.204 35.3129 162.477 34.7273 160.559 34.7998C158.499 34.8761 156.701 35.6419 155.175 37.0423C153.534 38.5503 152.766 40.4403 152.692 42.6417C152.627 44.561 153.17 46.2963 154.349 47.8043C155.769 49.6179 157.621 50.7088 159.938 50.9477C162.144 51.1769 164.1 50.5893 165.802 49.1577C166.721 48.384 168.027 48.2979 168.944 48.9324C170.136 49.7589 170.32 51.5725 169.3 52.6105C168.376 53.5487 167.253 54.2067 166.068 54.7492C164.355 55.5346 162.549 55.9106 160.438 55.9087L160.44 55.9106Z" fill="white"/>
<path id="Vector_7" d="M228.843 32.8059C229.415 32.4025 229.932 32.0225 230.492 31.7072C232.268 30.7083 234.156 30.0836 236.207 30.0013C237.694 29.9406 239.168 30.0092 240.616 30.3852C241.405 30.5908 242.116 30.9355 242.752 31.4604C243.847 32.3633 243.653 33.9712 242.94 34.7899C242.228 35.6086 241.191 35.8788 240.089 35.4773C237.145 34.4021 234.354 34.7135 231.857 36.6916C230.073 38.1057 229.082 39.978 228.865 42.2558C228.829 42.62 228.818 42.9824 228.818 43.3486C228.818 46.6859 228.818 50.0232 228.818 53.3606C228.818 55.227 227.219 56.3493 225.463 55.7206C224.585 55.4053 223.968 54.5043 223.968 53.5192C223.968 49.3221 223.968 45.127 223.968 40.9298C223.968 38.1174 223.968 35.3069 223.968 32.4945C223.968 31.2411 224.889 30.1835 226.064 30.0757C227.421 29.9504 228.539 30.7534 228.782 32.0441C228.825 32.2732 228.821 32.5102 228.843 32.8059Z" fill="white"/>
<path id="Vector_8" d="M44.4267 10.3672C45.639 10.3672 46.8513 10.3672 48.0637 10.3672C48.6669 10.3672 48.99 10.6649 48.992 11.2642C48.9998 13.4636 48.9998 15.6611 48.992 17.8605C48.99 18.4402 48.6571 18.7536 48.0793 18.7536C45.6273 18.7575 43.1752 18.7555 40.7231 18.7536C40.1454 18.7536 39.8457 18.4559 39.8457 17.8801C39.8418 15.6709 39.8418 13.4616 39.8457 11.2524C39.8457 10.6198 40.0984 10.3691 40.7251 10.3691C41.959 10.3652 43.1928 10.3691 44.4267 10.3691V10.3672Z" fill="white"/>
<path id="Vector_9" d="M44.4484 20.2793C45.6627 20.2793 46.875 20.2793 48.0893 20.2793C48.714 20.2793 48.9706 20.5143 48.9921 21.143C49.0098 21.6679 48.998 22.1947 48.998 22.7196C48.998 24.3393 48.998 25.961 48.998 27.5807C48.998 28.3974 48.7375 28.6559 47.9189 28.6559C45.5784 28.6559 43.2361 28.6559 40.8956 28.6559C40.735 28.6559 40.5705 28.652 40.4158 28.6167C40.0221 28.5266 39.8517 28.2936 39.8478 27.8372C39.84 27.0754 39.8459 26.3135 39.8459 25.5516C39.8459 24.0925 39.8459 22.6334 39.8459 21.1724C39.8459 20.5261 40.0926 20.2813 40.7448 20.2793C41.9807 20.2793 43.2145 20.2793 44.4503 20.2793H44.4484Z" fill="white"/>
<path id="Vector_10" d="M12.3388 20.2792C13.5727 20.2792 14.8065 20.2792 16.0424 20.2792C16.6162 20.2792 16.8982 20.5436 16.9002 21.1214C16.908 23.3521 16.9061 25.5829 16.9002 27.8136C16.9002 28.3483 16.5888 28.6499 16.0502 28.6519C13.5923 28.6577 11.1343 28.6577 8.67637 28.6519C8.02418 28.6519 7.75587 28.3718 7.75587 27.7216C7.75195 25.5339 7.75195 23.3462 7.75587 21.1586C7.75587 20.524 8.00656 20.2811 8.6372 20.2792C9.87107 20.2772 11.1049 20.2792 12.3408 20.2792H12.3388Z" fill="white"/>
<path id="Vector_11" d="M55.1497 20.2793C56.3738 20.2793 57.5978 20.2793 58.8239 20.2793C59.4525 20.2793 59.7052 20.532 59.7052 21.1567C59.7052 23.3561 59.7052 25.5575 59.7052 27.7569C59.7052 28.3719 59.4408 28.652 58.8278 28.652C56.3581 28.6578 53.8864 28.6559 51.4167 28.652C50.9408 28.652 50.6764 28.4209 50.5981 27.9587C50.5687 27.7804 50.555 27.5963 50.555 27.4142C50.5511 25.4283 50.553 23.4423 50.555 21.4564C50.555 20.4614 50.743 20.2754 51.7379 20.2754C52.8758 20.2754 54.0157 20.2754 55.1536 20.2754L55.1497 20.2793Z" fill="white"/>
<path id="Vector_12" d="M44.4071 8.80038C43.2398 8.80038 42.0706 8.80038 40.9033 8.80038C40.0749 8.80038 39.8438 8.56927 39.8438 7.75453C39.8438 5.61974 39.8438 3.48496 39.8438 1.35017C39.8438 0.684279 40.0905 0.435547 40.7525 0.435547C43.1869 0.435547 45.6194 0.435547 48.0539 0.435547C48.7119 0.435547 48.9881 0.68232 48.992 1.33842C49.0037 3.53784 49.0018 5.73726 48.992 7.93471C48.99 8.51835 48.6845 8.79646 48.0695 8.80038C46.8474 8.80625 45.6273 8.80038 44.4051 8.80038H44.4071Z" fill="white"/>
<path id="Vector_13" d="M33.7527 10.3672C34.9651 10.3672 36.1794 10.3672 37.3917 10.3672C38.0713 10.3672 38.3102 10.6022 38.3122 11.2681C38.3122 13.4558 38.3122 15.6454 38.3122 17.8331C38.3122 18.4676 38.0262 18.7516 37.3878 18.7516C34.967 18.7536 32.5463 18.7536 30.1256 18.7516C29.4636 18.7516 29.207 18.4931 29.207 17.8389C29.207 15.6513 29.207 13.4617 29.207 11.274C29.207 10.6003 29.4401 10.3672 30.1158 10.3652C31.3281 10.3652 32.5424 10.3652 33.7547 10.3652L33.7527 10.3672Z" fill="white"/>
<path id="Vector_14" d="M22.9325 10.3672C24.1565 10.3672 25.3806 10.3652 26.6047 10.3672C27.2353 10.3672 27.4841 10.6159 27.486 11.2446C27.486 13.4558 27.486 15.667 27.486 17.8762C27.486 18.4578 27.202 18.7536 26.6223 18.7536C24.1683 18.7575 21.7143 18.7555 19.2602 18.7536C18.6864 18.7536 18.3848 18.4539 18.3828 17.8762C18.3789 15.6337 18.3789 13.3912 18.3828 11.1467C18.3828 10.6453 18.6609 10.3711 19.1643 10.3692C20.4197 10.3633 21.677 10.3692 22.9344 10.3672H22.9325Z" fill="white"/>
<path id="Vector_15" d="M33.7743 20.2812C34.9984 20.2812 36.2225 20.2812 37.4446 20.2812C38.0576 20.2812 38.3102 20.5299 38.3102 21.1351C38.3102 23.356 38.3102 25.575 38.3102 27.796C38.3102 28.3698 38.0458 28.6519 37.4681 28.6538C34.9768 28.6617 32.4876 28.6597 29.9963 28.6538C29.4675 28.6538 29.2051 28.3777 29.2051 27.8528C29.2031 25.5887 29.2031 23.3267 29.2051 21.0626C29.2051 20.5338 29.4616 20.2831 30.0042 20.2812C31.2596 20.2772 32.515 20.2812 33.7723 20.2812H33.7743Z" fill="white"/>
<path id="Vector_16" d="M22.9462 20.2812C24.1702 20.2812 25.3943 20.2812 26.6184 20.2812C27.253 20.2812 27.486 20.5201 27.486 21.1586C27.486 23.358 27.486 25.5574 27.486 27.7568C27.486 28.3835 27.2216 28.6538 26.5831 28.6538C24.1448 28.6577 21.7084 28.6577 19.27 28.6538C18.6531 28.6538 18.3809 28.3777 18.3809 27.7666C18.377 25.5457 18.377 23.3247 18.3809 21.1037C18.3809 20.5279 18.6296 20.2831 19.2093 20.2812C20.4549 20.2772 21.7006 20.2812 22.9462 20.2812Z" fill="white"/>
<path id="Vector_17" d="M234.691 52.3989C235.684 52.4518 236.413 53.2508 236.358 54.2242C236.305 55.1447 235.494 55.8851 234.601 55.8283C233.641 55.7695 232.895 54.9665 232.944 54.046C232.995 53.0942 233.784 52.348 234.691 52.3969V52.3989ZM235.841 54.1596C235.843 53.3821 235.322 52.8219 234.591 52.818C233.878 52.8141 233.289 53.386 233.279 54.0891C233.269 54.8353 233.841 55.3915 234.617 55.3895C235.349 55.3895 235.839 54.896 235.841 54.1596Z" fill="white"/>
<path id="Vector_18" d="M233.962 54.1146C233.962 54.0069 233.962 53.9011 233.962 53.7934C233.962 53.2117 233.99 53.1823 234.583 53.2058C234.742 53.2117 234.904 53.2391 235.057 53.2822C235.337 53.3586 235.48 53.6073 235.353 53.8228C235.165 54.1381 235.32 54.4064 235.329 54.6963C235.333 54.7942 235.457 54.945 235.249 54.9744C235.09 54.9979 234.948 54.9646 234.91 54.7687C234.895 54.6845 234.869 54.6003 234.834 54.5239C234.767 54.3809 234.632 54.3183 234.489 54.3339C234.317 54.3516 234.382 54.5122 234.366 54.6199C234.36 54.661 234.362 54.7061 234.366 54.7491C234.372 54.8862 234.329 54.9705 234.17 54.9783C234.005 54.9861 233.964 54.898 233.964 54.7609C233.964 54.5474 233.964 54.332 233.964 54.1185H233.962V54.1146Z" fill="white"/>
</g>
</g>
</svg>
