<svg width="66" height="66" viewBox="0 0 66 66" fill="none" xmlns="http://www.w3.org/2000/svg">
<path id="Vector" d="M65.3872 0.634005C65.3872 0.515424 65.3607 0.487671 65.2421 0.487671C43.6238 0.491455 22.0068 0.491455 0.38973 0.491455C0.38973 22.1085 0.38973 43.7255 0.387207 65.3426C0.387207 65.4612 0.413699 65.4877 0.532279 65.4877C22.1014 65.4851 43.6705 65.4851 65.2409 65.4877C65.3595 65.4877 65.3859 65.4612 65.3859 65.3426C65.3822 43.7735 65.3822 22.2044 65.3859 0.635266L65.3872 0.634005ZM35.7596 41.2946C35.7596 44.6628 35.7659 48.0323 35.7571 51.4005C35.7533 52.8437 35.5364 54.2553 34.975 55.595C34.0226 57.872 32.3082 59.2836 29.9605 59.9598C28.7672 60.3029 27.5448 60.4076 26.306 60.3811C25.1189 60.3559 23.9608 60.1755 22.8406 59.7794C20.657 59.0074 19.0309 57.5756 17.8829 55.5799C17.7618 55.3692 17.6609 55.1484 17.5411 54.9365C17.4856 54.8381 17.4919 54.7889 17.5953 54.7258C18.66 54.0875 19.7209 53.4429 20.7831 52.8008C21.294 52.4917 21.8075 52.1864 22.3133 51.8711C22.4243 51.8017 22.471 51.8067 22.5366 51.9253C22.8129 52.4312 23.1144 52.9206 23.4537 53.3886C24.3406 54.6123 25.5428 55.0778 27.0225 54.8999C27.5763 54.833 28.1023 54.6981 28.5514 54.3474C29.0888 53.9286 29.3449 53.3457 29.4925 52.7036C29.6187 52.1549 29.6527 51.596 29.6527 51.0347C29.6527 44.2024 29.6527 37.3689 29.6527 30.5366C29.6527 30.3945 29.7217 30.3234 29.8596 30.3234C31.7632 30.3234 33.6681 30.3259 35.5717 30.3183C35.7395 30.3183 35.7659 30.3675 35.7659 30.5202C35.7609 34.1104 35.7622 37.7019 35.7622 41.2934L35.7596 41.2946ZM60.0624 54.0989C59.5553 56.14 58.3745 57.6903 56.592 58.7891C55.3406 59.5611 53.9681 59.9901 52.5237 60.2159C51.7378 60.3382 50.9481 60.3887 50.311 60.3849C48.3822 60.3887 46.6565 60.1263 45.0014 59.4817C42.3989 58.47 40.436 56.7316 39.1291 54.2591C39.085 54.1758 39.0887 54.1367 39.1745 54.0875C40.7678 53.1691 42.3585 52.2482 43.948 51.3236C44.0515 51.2643 44.0792 51.3084 44.1259 51.3816C44.5233 52.0212 44.9698 52.6216 45.5047 53.1553C46.6111 54.2603 47.9457 54.8482 49.5024 54.9529C50.4094 55.0134 51.2988 54.9466 52.1553 54.6262C52.829 54.3739 53.4093 53.9878 53.8041 53.371C54.5005 52.2848 54.3012 50.7862 53.35 49.8854C52.8164 49.3808 52.1818 49.0339 51.5296 48.7148C50.2568 48.0941 48.9385 47.5769 47.648 46.9966C46.3474 46.4138 45.0998 45.7389 43.9871 44.8344C42.2122 43.3925 41.203 41.5394 40.9722 39.2624C40.846 38.0211 40.8927 36.7924 41.2699 35.5914C41.8085 33.8783 42.8266 32.5234 44.3151 31.5231C45.5047 30.7245 46.8242 30.2767 48.2371 30.0862C49.7825 29.8781 51.3177 29.9437 52.834 30.3057C55.0265 30.8292 56.7018 32.0933 57.9608 33.9401C58.1424 34.2063 58.314 34.4788 58.478 34.7576C58.5234 34.8332 58.5322 34.8736 58.4439 34.9304C56.9213 35.903 55.3999 36.8794 53.8811 37.8608C53.7726 37.9302 53.7499 37.8747 53.7082 37.8016C53.3941 37.2541 53.0359 36.7394 52.5729 36.3042C51.7088 35.4905 50.6643 35.2382 49.515 35.3214C48.8956 35.3669 48.3216 35.5573 47.8385 35.9598C47.1661 36.5186 46.9088 37.2528 46.939 38.1131C46.9756 39.1476 47.5029 39.878 48.3368 40.4293C49.1202 40.9477 49.978 41.3199 50.8371 41.6908C52.2323 42.2938 53.6414 42.869 54.9761 43.6045C56.148 44.2503 57.2543 44.9845 58.1803 45.9635C59.2286 47.0736 59.8858 48.3805 60.152 49.8829C60.4018 51.2933 60.4119 52.7011 60.0649 54.0989H60.0624Z" fill="#FCFDFE"/>
</svg>
