<svg width="298" height="52" viewBox="0 0 298 52" fill="none" xmlns="http://www.w3.org/2000/svg">
<path d="M26.184 51.1108C22.8919 51.1108 19.5997 51.1037 16.3065 51.1131C14.9181 51.1167 13.8062 50.5766 12.939 49.5047C8.95155 44.576 4.96995 39.6425 0.970695 34.7243C0.0882475 33.6395 -0.185899 32.4476 0.121192 31.1016C1.53075 24.9256 2.96385 18.7532 4.33458 12.569C4.66403 11.0818 5.44411 10.1252 6.81838 9.47338C12.5178 6.77192 18.1843 4.00221 23.8755 1.28545C25.1474 0.678326 26.477 0.761864 27.7383 1.35722C30.9092 2.85268 34.0637 4.38225 37.2263 5.89653C39.876 7.1649 42.521 8.44269 45.1813 9.69106C46.5238 10.3205 47.3015 11.3301 47.6322 12.7761C49.0041 18.7803 50.3948 24.7809 51.8208 30.7733C52.1868 32.3111 51.8844 33.6113 50.9007 34.8232C46.8674 39.7896 42.8458 44.7666 38.8289 49.7471C38.0641 50.6954 37.1463 51.1531 35.885 51.1308C32.6529 51.072 29.4184 51.1108 26.1852 51.1108H26.184ZM24.978 11.1347C24.978 11.3689 24.9944 11.6054 24.9756 11.8383C24.9074 12.6643 24.572 13.1102 23.9626 13.1785C20.8081 13.5279 18.1219 14.8646 15.8111 17.0036C15.284 17.4919 14.7063 17.5284 14.1097 17.113C13.6403 16.7871 13.2602 16.3612 12.859 15.9611C12.5272 15.6293 12.2143 15.274 11.8554 14.9728C11.3695 14.5645 10.7094 14.5492 10.3458 14.8881C9.94813 15.2611 9.93754 16.0058 10.3164 16.5059C10.5023 16.7506 10.7659 16.8789 11.0282 17.0107C11.7307 17.3625 12.406 17.7566 13.0202 18.2484C13.785 18.8615 13.8862 19.4039 13.4061 20.2251C12.9614 20.9876 12.5908 21.7865 12.3037 22.6207C11.6048 24.6444 11.2918 26.7141 11.5707 28.8519C11.613 29.1767 11.5306 29.3732 11.24 29.625C10.4729 30.2921 9.54455 30.2721 8.65152 30.4274C8.13264 30.518 7.59376 30.5062 7.09253 30.6921C6.49011 30.9157 6.16419 31.5005 6.32774 32.0299C6.49011 32.5559 7.03134 32.8535 7.65023 32.7276C7.95497 32.6653 8.25265 32.5606 8.55033 32.4629C9.29511 32.2205 10.0352 31.9581 10.807 31.817C11.4659 31.6969 12.2354 31.9711 12.3825 32.3805C13.512 35.5385 15.5287 37.98 18.349 39.779C18.4761 39.8602 18.6267 39.9084 18.6032 40.1226C18.529 40.7979 18.4655 41.4639 18.0466 42.0498C17.6148 42.6534 17.2207 43.2841 16.8289 43.9147C16.4841 44.4701 16.6265 45.1372 17.1348 45.4667C17.6007 45.7679 18.1772 45.6326 18.5808 45.1243C18.942 44.6689 19.082 44.1136 19.2797 43.5829C19.4644 43.0887 19.6656 42.6016 19.8786 42.1192C20.0822 41.6592 20.514 41.3768 20.874 41.0779C21.087 40.9015 21.4917 41.2062 21.807 41.3003C23.1684 41.7074 24.5579 41.9074 25.9769 41.9133C27.5618 41.9192 29.0843 41.5639 30.5915 41.1227C30.7715 41.0697 30.9963 40.9215 31.1422 41.1038C31.4551 41.498 31.9175 41.7521 32.1211 42.2557C32.3858 42.9087 32.6576 43.5582 32.8376 44.2406C32.9459 44.6524 33.1671 44.9948 33.4659 45.2819C33.913 45.7126 34.4696 45.7549 34.9037 45.4184C35.3191 45.096 35.4273 44.4948 35.1391 43.9853C34.9849 43.7135 34.7955 43.4629 34.6143 43.2064C34.2072 42.6299 33.8436 42.0263 33.5601 41.3803C33.2141 40.592 33.3953 39.919 34.0978 39.4331C36.5498 37.7364 38.3406 35.5138 39.4466 32.7488C39.8337 31.7805 40.3361 31.5181 41.3915 31.7511C42.354 31.964 43.2423 32.3864 44.1753 32.6794C44.733 32.8535 45.3825 32.5712 45.5672 32.1088C45.719 31.7287 45.3943 31.1263 44.8813 30.8827C44.453 30.6792 43.9941 30.5862 43.5164 30.5686C42.7893 30.5427 42.048 30.4827 41.3785 30.2203C40.429 29.8497 40.1172 29.6261 40.2455 28.739C40.2984 28.3731 40.3231 27.9989 40.3161 27.6283C40.2596 24.8739 39.5701 22.2971 38.1194 19.938C38.03 19.7921 37.8805 19.6251 37.9829 19.4533C38.2465 19.0085 38.3676 18.4767 38.8548 18.1649C39.4148 17.806 39.9455 17.4001 40.5526 17.1177C40.9714 16.9224 41.3103 16.6412 41.5539 16.2447C41.8527 15.7576 41.7892 15.2975 41.4115 14.9034C41.0397 14.5139 40.5726 14.4963 40.1161 14.7434C39.7901 14.9199 39.5148 15.1693 39.2724 15.4611C38.7971 16.0353 38.2641 16.5553 37.6476 16.9801C37.0063 17.4213 36.2262 17.4425 35.8074 17.0142C33.5671 14.7198 30.7845 13.5397 27.6618 13.0597C27.3523 13.0114 27.1547 12.8949 26.9805 12.6008C26.5628 11.8948 26.7158 11.1594 26.7735 10.4288C26.8264 9.74871 27.0088 9.0804 26.9617 8.38856C26.9288 7.90969 26.7005 7.57906 26.251 7.40728C25.811 7.23785 25.4486 7.39434 25.1227 7.68731C24.6062 8.15207 24.7003 8.75213 24.785 9.33102C24.8733 9.93108 25.0015 10.5241 24.9791 11.1347H24.978Z" fill="white"/>
<path d="M118.083 26.134C118.083 21.0887 118.083 16.0447 118.083 10.9994C118.083 10.2005 118.101 10.2005 118.876 10.0829C120.501 9.83578 122.124 9.5781 123.746 9.31454C124.62 9.17217 124.619 9.16159 124.62 10.0664C124.62 13.2926 124.62 16.5188 124.62 19.7451C124.62 20.4098 124.624 20.411 125.253 20.1945C127.393 19.4592 129.578 19.2497 131.787 19.7815C135.051 20.5675 137.314 22.576 138.353 25.7363C139.51 29.2543 139.598 32.8488 138.324 36.3833C136.947 40.2014 134.143 42.3616 130.207 43.1382C128.34 43.5064 126.464 43.3958 124.588 43.2429C122.812 43.097 121.048 42.8628 119.311 42.4499C119.121 42.4051 118.935 42.3416 118.743 42.3016C118.237 42.1981 118.07 41.9074 118.072 41.3862C118.09 36.3021 118.083 31.2181 118.083 26.134ZM124.598 31.5946C124.598 33.3348 124.612 35.0761 124.589 36.8163C124.584 37.3105 124.758 37.5117 125.251 37.5634C125.973 37.6388 126.693 37.6752 127.419 37.6764C129.541 37.6799 131.004 36.7292 131.821 34.789C132.79 32.4841 132.754 30.1309 132.018 27.7906C131.523 26.214 130.395 25.2774 128.724 25.0904C127.519 24.955 126.343 25.1151 125.208 25.568C124.773 25.741 124.578 25.994 124.586 26.4905C124.615 28.1919 124.597 29.8932 124.598 31.5946Z" fill="white"/>
<path d="M74.7121 33.043C74.7121 33.7983 74.7121 34.3819 74.7121 34.9667C74.7121 37.334 74.7144 39.7013 74.7109 42.0686C74.7109 42.8299 74.665 42.8758 73.9202 42.877C72.2341 42.8805 70.5481 42.8628 68.8632 42.8864C68.3114 42.8934 68.1043 42.7087 68.1055 42.1428C68.1172 31.7158 68.1172 21.2888 68.1055 10.8606C68.1055 10.3641 68.2925 10.1676 68.7644 10.097C70.4681 9.84401 72.1683 9.56869 73.8696 9.29689C74.665 9.16982 74.7121 9.19924 74.7121 10.004C74.7132 15.6964 74.7121 21.39 74.7156 27.0823C74.7156 27.3118 74.665 27.5483 74.8132 27.8601C75.6486 26.9423 76.4675 26.0657 77.2594 25.1657C78.6431 23.5937 80.0138 22.0088 81.3798 20.4216C81.6387 20.1204 81.9164 19.9545 82.3341 19.9569C84.4896 19.9722 86.6463 19.9627 88.803 19.9663C88.9724 19.9663 89.1983 19.898 89.2913 20.0722C89.4113 20.2957 89.1666 20.4146 89.0477 20.5499C86.3192 23.6514 83.6248 26.7846 80.6421 29.6508C80.2809 29.9979 80.428 30.1579 80.6998 30.4297C84.1272 33.856 87.0204 37.6858 89.363 41.9263C89.8325 42.7758 89.816 42.7852 88.8571 42.7852C86.8769 42.7852 84.8979 42.7734 82.9176 42.7946C82.4694 42.7993 82.2093 42.6369 81.9622 42.2734C80.3715 39.9261 78.9313 37.4705 77.0288 35.3444C76.3405 34.5749 75.6498 33.8089 74.7121 33.0418V33.043Z" fill="white"/>
<path d="M225.569 33.6148C223.395 33.6148 221.219 33.6136 219.045 33.6148C218.317 33.6148 218.259 33.6936 218.486 34.4007C219.081 36.2503 220.525 37.1469 222.285 37.5305C224.934 38.107 227.54 37.747 230.083 36.8728C230.828 36.6163 230.823 36.6033 230.954 37.3728C231.184 38.72 231.406 40.0696 231.65 41.4144C231.72 41.8074 231.624 42.0521 231.225 42.1698C227.306 43.3252 223.339 43.9512 219.317 42.8169C215.02 41.605 212.564 38.6835 211.834 34.3113C211.388 31.6428 211.517 28.9954 212.485 26.4552C214.043 22.3689 216.985 19.9427 221.39 19.4756C224.496 19.1462 227.355 19.8003 229.733 21.9594C231.092 23.1936 231.905 24.7609 232.403 26.5034C232.992 28.5636 233.036 30.6686 232.888 32.7841C232.83 33.6112 232.793 33.6112 231.976 33.6112C229.84 33.6124 227.705 33.6112 225.569 33.6112V33.6148ZM222.49 28.9954C223.429 28.9954 224.368 28.9954 225.308 28.9954C226.816 28.9954 226.843 28.9872 226.379 27.5176C225.911 26.0398 224.925 25.0515 223.357 24.8338C220.883 24.4903 219.098 25.7986 218.575 28.2495C218.418 28.986 218.424 28.9943 219.204 28.9954C220.299 28.9978 221.396 28.9954 222.491 28.9954H222.49Z" fill="white"/>
<path d="M268.929 33.6147C266.773 33.6147 264.619 33.6147 262.463 33.6147C261.717 33.6147 261.676 33.6665 261.903 34.3866C262.248 35.482 262.929 36.3009 263.941 36.8563C265.569 37.7505 267.321 37.8987 269.129 37.7493C270.715 37.6175 272.283 37.4151 273.755 36.7574C274.027 36.6362 274.199 36.701 274.253 37.021C274.508 38.5423 274.773 40.0625 275.029 41.5838C275.095 41.9768 274.789 42.0792 274.516 42.1886C273.493 42.6016 272.416 42.7993 271.332 42.9769C268.67 43.4123 266.005 43.6405 263.342 43.0063C259.896 42.1839 257.264 40.3202 255.928 36.9492C255.066 34.7713 254.849 32.4652 255.035 30.1461C255.214 27.9177 255.81 25.7986 257.125 23.9384C259.537 20.5298 262.877 19.1497 266.987 19.4509C269.416 19.6285 271.563 20.4404 273.314 22.1794C274.939 23.7937 275.716 25.8104 276.092 28.013C276.379 29.699 276.393 31.3933 276.232 33.0959C276.186 33.5747 275.934 33.6159 275.568 33.6147C273.354 33.6112 271.141 33.6136 268.926 33.6136L268.929 33.6147ZM265.861 28.9954C266.975 28.9954 268.09 28.9954 269.204 28.9954C269.798 28.9954 270.031 28.6997 269.904 28.1083C269.4 25.7786 267.705 24.5361 265.407 24.8103C263.604 25.0256 262.347 26.2234 261.884 28.1671C261.688 28.9907 261.689 28.9942 262.518 28.9954C263.633 28.9966 264.747 28.9954 265.861 28.9954Z" fill="white"/>
<path d="M156.86 33.5183C154.664 33.5183 152.469 33.5171 150.274 33.5194C149.638 33.5194 149.556 33.6347 149.744 34.2583C150.351 36.2821 151.933 37.1869 153.826 37.5246C156.353 37.9752 158.861 37.6893 161.294 36.8539C162.028 36.6021 162.033 36.5892 162.168 37.361C162.401 38.6894 162.598 40.0237 162.863 41.345C162.964 41.8521 162.776 42.0403 162.347 42.2086C161.075 42.7063 159.738 42.9028 158.402 43.0981C155.688 43.497 152.979 43.604 150.313 42.7698C147.081 41.758 144.729 39.7589 143.632 36.5233C142.957 34.5301 142.775 32.4228 142.936 30.3226C143.11 28.0553 143.679 25.8857 145.012 23.9866C147.426 20.551 150.774 19.1473 154.914 19.452C157.389 19.6344 159.563 20.478 161.322 22.2723C162.879 23.8596 163.634 25.8245 164.006 27.9671C164.299 29.6543 164.309 31.3486 164.142 33.0511C164.096 33.5135 163.837 33.5206 163.504 33.5206C161.29 33.5183 159.074 33.5194 156.86 33.5206V33.5183ZM153.855 28.9942C155.048 28.9942 156.241 28.9836 157.434 29.0001C157.852 29.006 158.009 28.8389 157.943 28.4377C157.71 27.0176 157.106 25.8421 155.76 25.1632C153.232 23.8878 150.101 25.6315 149.791 28.4754C149.748 28.8672 149.894 29.0025 150.274 28.9989C151.467 28.9884 152.66 28.9954 153.853 28.9954L153.855 28.9942Z" fill="white"/>
<path d="M187.26 31.6181C187.26 28.2543 187.276 24.8892 187.244 21.5253C187.238 20.8876 187.455 20.6558 188.062 20.5099C191.161 19.7663 194.294 19.338 197.484 19.3792C199.207 19.4015 200.881 19.7392 202.442 20.4664C204.894 21.6088 206.059 23.7091 206.579 26.247C206.823 27.4389 206.915 28.6472 206.918 29.8603C206.93 33.8313 206.924 37.8012 206.923 41.7722C206.923 42.604 206.892 42.6346 206.069 42.6358C204.443 42.6393 202.815 42.6393 201.189 42.6358C200.432 42.6346 200.412 42.6111 200.41 41.8322C200.408 37.9012 200.414 33.969 200.402 30.038C200.399 29.0379 200.255 28.0531 199.957 27.093C199.562 25.8163 198.66 25.2104 197.37 25.0457C196.485 24.9327 195.611 25.0633 194.731 25.0657C193.92 25.068 193.861 25.1422 193.86 25.9411C193.86 31.0463 193.863 36.1516 193.858 41.2568C193.857 42.7723 194.014 42.6323 192.462 42.6358C190.973 42.6405 189.483 42.6193 187.994 42.6452C187.427 42.6546 187.248 42.4393 187.25 41.8875C187.268 38.4648 187.258 35.042 187.258 31.6181H187.26Z" fill="white"/>
<path d="M112.127 30.9309C112.127 34.2372 112.127 37.5434 112.127 40.8485C112.127 41.5387 111.796 41.9607 111.133 42.1145C107.932 42.8475 104.69 43.2699 101.404 43.1228C99.0953 43.0193 96.9033 42.478 95.1396 40.8296C93.6642 39.4507 93.0194 37.6705 92.6852 35.7456C92.5111 34.7431 92.4323 33.7312 92.4346 32.7111C92.4429 28.7201 92.437 24.7303 92.437 20.7392C92.437 19.9486 92.4405 19.945 93.21 19.9439C94.8372 19.9415 96.4633 19.9427 98.0905 19.9439C98.6788 19.9439 98.9738 20.231 98.9753 20.8051C98.9765 24.542 98.9753 28.2777 98.9777 32.0146C98.9777 33.0347 99.0765 34.0466 99.3307 35.0349C99.7483 36.6633 100.631 37.3987 102.312 37.5422C103.235 37.621 104.15 37.4846 105.068 37.4234C105.37 37.4034 105.527 37.2328 105.525 36.9245C105.525 36.7292 105.53 36.5339 105.53 36.3374C105.53 31.1733 105.53 26.008 105.53 20.844C105.53 19.945 105.532 19.9439 106.444 19.9439C107.993 19.9439 109.541 19.9439 111.09 19.9439C111.781 19.9439 112.128 20.2808 112.128 20.9546C112.128 24.2796 112.128 27.6059 112.128 30.9309H112.127Z" fill="white"/>
<path d="M287.253 43.4923C284.932 43.6017 282.598 43.0464 280.296 42.2875C279.901 42.1569 279.837 41.9486 279.913 41.5886C280.212 40.1731 280.506 38.7577 280.784 37.3375C280.865 36.9186 281.011 36.7657 281.451 36.9539C283.803 37.9623 286.292 37.9776 288.787 37.927C289.184 37.9188 289.562 37.8223 289.94 37.7187C290.517 37.5611 290.875 37.1751 290.921 36.6033C290.966 36.0303 290.733 35.5208 290.205 35.222C289.3 34.7114 288.374 34.2537 287.387 33.9077C285.814 33.3559 284.266 32.7358 282.915 31.7275C281.365 30.5721 280.654 28.9707 280.506 27.0882C280.132 22.3159 283.521 20.1533 286.841 19.5968C289.93 19.0791 292.923 19.5874 295.892 20.4028C296.348 20.5287 296.465 20.7404 296.349 21.2087C296.027 22.5183 295.746 23.8372 295.469 25.1574C295.38 25.5833 295.241 25.7586 294.762 25.5986C293.328 25.1197 291.864 24.7656 290.337 24.7526C289.552 24.7468 288.767 24.7656 288.016 25.0138C287.508 25.1809 287.1 25.4762 287.024 26.0587C286.94 26.6999 287.054 27.2564 287.654 27.6424C288.467 28.1648 289.336 28.5636 290.246 28.8778C291.602 29.3461 292.901 29.9426 294.143 30.658C296.28 31.8863 297.332 33.7489 297.395 36.2009C297.425 37.3269 297.36 38.4235 296.853 39.4624C296.055 41.0967 294.7 42.0604 293.044 42.6687C291.216 43.3405 289.312 43.5252 287.252 43.4935L287.253 43.4923Z" fill="white"/>
<path d="M244.116 30.1839C244.188 31.4617 243.995 33.0289 244.219 34.5867C244.528 36.7505 245.444 37.5482 247.612 37.5847C248.878 37.6058 250.117 37.4517 251.315 37.0517C251.727 36.914 251.887 37.0199 251.955 37.4211C252.19 38.7883 252.437 40.1532 252.683 41.518C252.739 41.8239 252.682 42.0393 252.348 42.1581C249.311 43.2394 246.22 43.6418 243.067 42.7676C240.18 41.9675 238.519 40.0002 237.904 37.107C237.701 36.148 237.577 35.1809 237.578 34.1996C237.579 27.8624 237.58 21.5265 237.582 15.1893C237.582 14.321 237.583 14.3175 238.463 14.1763C240.124 13.908 241.789 13.6562 243.447 13.3715C243.96 13.2832 244.138 13.4068 244.128 13.9551C244.098 15.7341 244.135 17.5143 244.106 19.2945C244.098 19.8192 244.272 19.9604 244.78 19.9545C246.896 19.9298 249.012 19.9592 251.129 19.9345C251.682 19.9275 251.893 20.0863 251.878 20.6617C251.844 22.0301 251.853 23.3996 251.875 24.768C251.882 25.2528 251.704 25.4198 251.223 25.4163C249.088 25.3998 246.951 25.4234 244.815 25.3998C244.292 25.3939 244.087 25.5257 244.104 26.087C244.144 27.3565 244.116 28.6296 244.116 30.1839Z" fill="white"/>
<path d="M169.119 31.897C169.119 28.5319 169.127 25.168 169.109 21.803C169.107 21.3158 169.252 21.0688 169.731 20.9134C173.022 19.8451 176.375 19.2239 179.848 19.5086C181.037 19.6062 182.217 19.8074 183.38 20.0875C183.827 20.1957 183.982 20.4205 183.882 20.884C183.579 22.2983 183.287 23.7149 183.031 25.1386C182.938 25.6563 182.713 25.761 182.231 25.6398C180.628 25.2363 179.006 25.0433 177.344 25.168C175.661 25.2939 175.658 25.2633 175.658 26.9423C175.658 31.9311 175.658 36.9187 175.658 41.9075C175.658 42.757 175.656 42.7605 174.812 42.7617C173.146 42.764 171.48 42.7475 169.814 42.7699C169.276 42.777 169.107 42.5864 169.111 42.051C169.131 38.6671 169.121 35.282 169.121 31.8982L169.119 31.897Z" fill="white"/>
<path d="M30.9797 30.4792C32.7293 30.7768 34.5624 31.0886 36.3955 31.3993C36.7426 31.4581 36.7932 31.6416 36.6638 31.944C35.7602 34.0666 34.3706 35.7939 32.4716 37.1116C32.2033 37.2975 32.0316 37.3022 31.8927 36.9622C31.2068 35.2785 30.4902 33.6066 29.8219 31.9158C29.516 31.1404 30.0713 30.4345 30.9785 30.478L30.9797 30.4792Z" fill="white"/>
<path d="M24.3639 17.0519C24.2886 18.652 24.2309 20.2534 24.1321 21.8524C24.0686 22.896 23.2132 23.3066 22.3472 22.7078C20.8976 21.7053 19.4751 20.6652 18.0303 19.6568C17.6832 19.4145 17.7149 19.2368 18.002 18.9826C19.701 17.4801 21.6601 16.5189 23.9003 16.1318C24.2239 16.0753 24.3898 16.1871 24.3839 16.5247C24.3804 16.7012 24.3839 16.8765 24.3839 17.053C24.3768 17.053 24.3709 17.053 24.3639 17.053V17.0519Z" fill="white"/>
<path d="M27.2021 16.7353C27.1198 16.2223 27.3268 16.0964 27.8339 16.1811C30.0165 16.5482 31.9167 17.4695 33.5616 18.9461C33.917 19.265 33.8687 19.4509 33.5087 19.7015C32.0956 20.6828 30.6943 21.6782 29.2882 22.6701C28.9094 22.9372 28.507 23.0278 28.0728 22.8277C27.6139 22.6159 27.5457 22.2159 27.521 21.757C27.4316 20.0827 27.3115 18.4096 27.2021 16.7341V16.7353Z" fill="white"/>
<path d="M14.1318 27.7048C14.2048 25.6634 14.686 23.7326 15.6685 21.9301C15.8673 21.5653 16.0214 21.5582 16.3215 21.83C17.5981 22.9819 18.8971 24.1079 20.1784 25.2539C21.0455 26.0305 20.8667 26.8823 19.7595 27.2153C18.1676 27.693 16.5686 28.1448 14.9719 28.6061C14.1648 28.839 14.1389 28.819 14.133 27.9978C14.133 27.9001 14.133 27.8024 14.133 27.7048H14.1318Z" fill="white"/>
<path d="M37.4549 27.3612C37.4572 28.8237 37.4549 28.832 36.0359 28.4402C34.6605 28.0601 33.2909 27.6577 31.9155 27.273C31.4719 27.1494 31.1165 26.9306 31.0001 26.4623C30.8812 25.9858 31.1271 25.6457 31.466 25.3398C32.6685 24.2515 33.8604 23.1525 35.0605 22.063C35.7312 21.4535 35.7641 21.457 36.1547 22.2454C36.9536 23.8573 37.4584 25.5457 37.4549 27.3612Z" fill="white"/>
<path d="M20.6684 30.5356C21.592 30.5521 22.0779 31.2404 21.7885 31.9499C21.1108 33.6124 20.4071 35.2656 19.7365 36.9304C19.5659 37.3528 19.3729 37.3587 19.0458 37.1128C17.2739 35.7809 15.909 34.1325 15.0772 32.0664C14.9783 31.8205 14.8713 31.551 15.2678 31.4805C17.1139 31.1522 18.9623 30.8333 20.6684 30.5356Z" fill="white"/>
<path d="M25.8602 39.2472C24.7719 39.293 23.7212 39.0636 22.6693 38.8224C22.1857 38.7118 22.1081 38.5236 22.3493 38.0976C23.167 36.6504 23.96 35.1903 24.7683 33.7372C25.3296 32.7265 26.2438 32.7182 26.8427 33.7277C27.2321 34.3831 27.5851 35.0597 27.9546 35.7268C28.4181 36.5657 28.8782 37.4058 29.3477 38.2412C29.5171 38.5436 29.5277 38.7189 29.1112 38.8083C28.0381 39.0377 26.9721 39.2954 25.8614 39.2472H25.8602Z" fill="white"/>
<path d="M25.8944 25.708C26.2533 25.7633 26.6721 25.5798 26.9392 25.9469C27.2663 26.3975 27.8287 26.7364 27.8546 27.3376C27.9029 28.466 26.8286 29.6543 25.8462 29.6461C24.892 29.639 23.7977 28.3977 23.8589 27.3094C23.8918 26.7293 24.439 26.4116 24.7531 25.9751C25.0508 25.5609 25.5097 25.7704 25.8956 25.708H25.8944Z" fill="white"/>
</svg>
