<svg width="85" height="84" viewBox="0 0 85 84" fill="none" xmlns="http://www.w3.org/2000/svg">
<g id="jGFCCt.tif">
<path id="Vector" d="M84.2088 0.0534781C84.2088 27.7459 84.2051 55.4384 84.2254 83.1308C84.2254 83.8205 84.0705 83.9772 83.3808 83.9754C55.6884 83.9551 27.9959 83.9588 0.303478 83.9588C0.285037 83.4996 0.251844 83.0404 0.251844 82.5831C0.25 55.6375 0.25 28.6938 0.25 1.74818C0.25 0.582727 0.832727 0 1.99818 0C28.9438 0 55.8875 0 82.8331 0.00184407C83.2923 0.00184407 83.7515 0.0350374 84.2088 0.0534781ZM35.5197 48.2539C35.363 48.0418 35.1952 47.8389 35.055 47.6177C32.1857 43.048 29.3458 38.46 26.4432 33.9125C24.6157 31.0487 25.6613 31.6332 22.2166 31.5761C21.0272 31.5558 20.9848 31.6166 20.9829 32.8263C20.9811 38.9892 20.9829 45.1503 20.9829 51.3132C20.9829 52.588 21.6142 53.2206 22.8768 53.2107C24.1566 53.2015 24.2229 53.1425 24.2229 51.848C24.2193 46.9427 24.2082 42.0375 24.2082 37.1323C24.2082 36.8464 24.0846 36.5274 24.3502 36.2563C24.4295 36.3153 24.5217 36.3541 24.5623 36.4223C27.5515 41.4216 30.8542 46.2272 33.8269 51.2339C34.7544 52.7958 35.7798 53.4523 37.5611 53.2402C38.8483 53.0872 38.8962 53.1738 38.8962 51.8646C38.8981 45.7644 38.8999 39.6623 38.8962 33.5621C38.8962 31.3935 39.0899 31.5779 36.9231 31.5761C35.7171 31.5761 35.6691 31.6203 35.6691 32.8116C35.6728 37.7482 35.6839 42.6829 35.6875 47.6195C35.6875 47.8187 35.7982 48.0473 35.5179 48.2575L35.5197 48.2539ZM43.7554 42.3362C43.7554 45.5836 43.7609 48.8311 43.7498 52.0803C43.748 52.7386 43.842 53.2181 44.6774 53.2126C47.9857 53.1923 51.2958 53.1997 54.604 53.207C55.2292 53.207 55.5003 52.9175 55.4763 52.3071C55.4652 52.0324 55.4523 51.7539 55.4818 51.481C55.5777 50.5885 55.1757 50.3045 54.3053 50.3247C52.2234 50.3708 50.1377 50.3192 48.0557 50.3469C47.3476 50.3561 47.047 50.0832 47.0526 49.3861C47.0655 47.8242 47.071 46.2604 47.0489 44.6985C47.0378 43.9443 47.3845 43.664 48.1092 43.6713C49.8242 43.6879 51.541 43.6824 53.256 43.6658C54.3016 43.6566 54.3791 43.5423 54.3772 42.2643C54.3772 41.0177 54.2924 40.9034 53.2247 40.8942C51.5392 40.8794 49.8537 40.8702 48.1701 40.8942C47.4159 40.9034 47.0304 40.6434 47.047 39.8338C47.0765 38.3936 47.071 36.9534 47.0489 35.5132C47.0378 34.7718 47.355 34.462 48.0926 34.4713C49.8076 34.4897 51.5244 34.4731 53.2394 34.4713C55.1167 34.4713 55.0909 34.4713 55.0761 32.5848C55.0706 31.8379 54.8106 31.5521 54.0508 31.5595C50.9878 31.5871 47.923 31.5927 44.86 31.5558C44.0135 31.5466 43.7332 31.8545 43.7406 32.6825C43.772 35.8986 43.7535 39.1165 43.7535 42.3344L43.7554 42.3362ZM63.0388 43.7525H63.0425C63.0425 46.5094 63.0628 49.2681 63.0315 52.025C63.0222 52.8825 63.3118 53.3029 64.2024 53.2107C64.4145 53.1886 64.6303 53.2107 64.846 53.2089C65.8369 53.2064 66.3342 52.7128 66.3379 51.7281C66.3397 46.4264 66.3379 41.1265 66.3416 35.8248C66.3416 34.5635 66.4264 34.4842 67.7099 34.4749C68.844 34.4657 69.9781 34.4768 71.1104 34.4694C72.368 34.4602 72.4344 34.3827 72.4325 32.9794C72.4325 31.6259 72.3883 31.5724 71.1509 31.5705C66.9833 31.5668 62.8157 31.5705 58.6499 31.5705C56.8225 31.5705 56.8593 31.5705 56.8501 33.3777C56.8464 34.2407 57.2079 34.5044 58.0119 34.4823C59.2677 34.4454 60.5235 34.4657 61.7812 34.4786C62.9245 34.4897 63.0351 34.5967 63.0388 35.7566C63.0481 38.4231 63.0425 41.0878 63.0425 43.7543L63.0388 43.7525ZM15.2478 53.5408C16.369 53.5408 17.3095 52.6852 17.3353 51.6433C17.363 50.594 16.3451 49.624 15.2423 49.6424C14.1137 49.6627 13.2415 50.5184 13.2396 51.6045C13.2396 52.6944 14.1174 53.5427 15.2497 53.5408H15.2478Z" fill="white"/>
</g>
</svg>
