<svg width="299" height="46" viewBox="0 0 299 46" fill="none" xmlns="http://www.w3.org/2000/svg">
<path d="M39.8951 0.741821C40.4851 0.951333 41.1137 0.972711 41.7165 1.10954C44.7865 1.79793 47.5059 3.11058 49.678 5.44086C50.5117 6.33877 50.8453 7.43336 50.9607 8.61774C51.1531 10.6273 50.7726 12.5685 50.2338 14.4841C49.1221 18.452 47.3178 22.1034 45.0131 25.5155C44.9362 25.6309 44.7651 25.7549 44.8378 25.8875C44.9234 26.0414 45.1286 25.9644 45.2782 25.9431C46.1462 25.8362 47.0099 25.7164 47.8736 25.6053C48.5834 25.5155 49.2718 25.5839 49.926 25.896C51.3455 26.563 51.6619 28.1023 50.6315 29.2867C50.0756 29.9238 49.3958 30.3984 48.6689 30.8131C46.8346 31.865 44.8378 32.3139 42.7513 32.4251C42.1569 32.4593 41.5669 32.5362 40.9683 32.4422C40.6733 32.3951 40.6562 32.6389 40.6391 32.8313C40.5963 33.3444 40.5792 33.8617 40.545 34.3748C40.4167 36.2134 40.1602 38.0263 39.4761 39.758C38.5397 42.131 36.7994 43.6019 34.3751 44.3116C33.1779 44.6623 31.9507 44.9145 30.7065 44.9274C28.2052 44.953 26.0844 43.961 24.9727 41.4127C24.2715 39.805 23.9936 38.1332 23.8867 36.4058C23.8439 35.6789 23.8268 34.952 23.8012 34.2294C23.7841 33.6992 23.7499 33.6864 23.2496 33.8232C20.8466 34.486 18.4864 34.362 16.1647 33.4513C15.8013 33.3102 15.4763 33.1049 15.1856 32.8527C15.0017 32.6945 14.8649 32.6945 14.6639 32.8142C13.5351 33.4855 12.3294 33.7848 11.0124 33.5496C9.60999 33.2973 8.48547 32.5619 7.53625 31.5443C5.68485 29.5603 4.57316 27.1488 3.59401 24.6689C2.29419 21.3937 1.33215 18.0158 0.643752 14.561C0.553961 14.1078 0.562513 13.6375 0.387207 13.2013V10.4221C0.494101 10.204 0.498376 9.9646 0.532582 9.72943C1.02002 6.43284 2.64052 3.92297 5.69768 2.45639C7.48067 1.60125 9.40047 1.28912 11.3545 1.21215C14.3304 1.09671 17.2379 1.55421 20.1069 2.29819C20.3378 2.35805 20.5345 2.35378 20.7526 2.25543C23.4164 1.0454 26.2341 0.96416 29.0817 1.17367C30.0267 1.24208 30.963 1.41739 31.9037 1.12236C32.5322 0.921402 33.2164 0.976987 33.8449 0.750373H39.8865L39.8951 0.741821ZM25.0369 33.5667C25.0625 35.2727 25.1181 37.1198 25.3704 38.9584C25.6911 41.3101 27.427 43.5719 30.4713 43.6617C31.8695 43.7045 33.2121 43.4394 34.5247 42.999C36.0939 42.4774 37.2954 41.5281 37.9282 39.9547C38.2361 39.1893 38.3857 38.3855 38.5268 37.5731C38.886 35.4737 39.1981 33.37 39.4761 31.2621C39.5188 30.9499 39.6343 30.8473 39.9421 30.9286C40.421 31.0568 40.9127 31.0483 41.4001 31.0568C42.251 31.0739 43.0891 30.997 43.9314 30.8944C45.7443 30.6677 47.3905 30.0349 48.8485 28.9275C49.135 28.7095 49.3787 28.4486 49.5412 28.1237C49.7678 27.6747 49.6267 27.2557 49.1734 27.0291C48.7074 26.7939 48.2199 26.8452 47.7325 26.9094C46.9329 27.012 46.1334 27.1574 45.3338 27.2301C44.4103 27.3113 43.4781 27.3284 42.576 27.0376C42.174 26.9051 42.1398 26.8153 42.3921 26.4946C43.4012 25.1991 44.2991 23.8266 45.12 22.407C46.8346 19.4354 48.2028 16.3226 48.9639 12.9662C49.3017 11.4825 49.5326 9.97743 49.3359 8.44671C49.229 7.63004 49.011 6.86896 48.4423 6.2447C47.7881 5.52638 47.0484 4.9064 46.2488 4.36338C43.8159 2.71721 41.0709 2.05447 38.1848 1.90055C35.6835 1.76372 33.2121 1.99889 30.7835 2.64025C30.6381 2.67873 30.497 2.67446 30.3516 2.6488C28.7311 2.35805 27.0978 2.24261 25.4516 2.3666C23.9209 2.48205 22.4415 2.82411 21.0604 3.5125C20.774 3.6536 20.5302 3.67926 20.2309 3.59802C17.3705 2.81128 14.4672 2.32385 11.487 2.43074C9.61854 2.49915 7.80135 2.78135 6.12525 3.68781C4.52613 4.55151 3.3503 5.80003 2.67473 7.48467C1.88372 9.46006 1.70841 11.521 2.05047 13.6033C2.69611 17.5455 3.85484 21.3509 5.377 25.0409C6.18511 27.0034 7.13433 28.8933 8.56243 30.501C9.24655 31.2749 10.0333 31.9248 11.0766 32.1557C12.4619 32.4593 13.5993 31.9719 14.5698 31.0098C15.8568 29.7314 17.1609 28.4743 18.495 27.2472C18.6275 27.1232 18.7472 26.965 18.9739 27.0633C19.782 27.4267 20.6371 27.5807 21.5137 27.6448C21.6847 27.6576 21.7873 27.7389 21.6376 27.8928C21.0604 28.5085 20.5131 29.1499 19.6109 29.3465C18.6959 29.5432 17.751 29.633 16.8616 29.9622C16.3657 30.1461 15.8312 30.3342 15.8055 30.997C15.7799 31.6811 16.3058 31.9334 16.7975 32.1985C16.8189 32.2113 16.8445 32.2198 16.8702 32.2284C19.5682 33.1605 22.1892 33.1605 24.6734 31.5657C24.7589 31.5101 24.8445 31.4032 24.9556 31.4759C25.0582 31.54 25.024 31.6683 25.024 31.7709C25.024 32.3267 25.024 32.8826 25.024 33.5838L25.0369 33.5667Z" fill="white"/>
<path d="M272.124 23.3648C272.102 26.0115 271.696 28.299 270.58 30.4155C269.746 31.9933 268.579 33.2974 267.159 34.3791C266.809 34.6442 266.813 34.6656 267.189 34.9222C268.613 35.8842 270.033 36.8548 271.465 37.804C271.739 37.9879 271.726 38.1161 271.504 38.3128C270.931 38.8216 270.358 39.3347 269.802 39.8606C269.605 40.0488 269.46 40.0702 269.225 39.9034C267.698 38.8302 266.159 37.7784 264.628 36.7137C264.462 36.5983 264.316 36.5469 264.119 36.641C262.054 37.6287 259.848 37.9921 257.586 38.1503C255.401 38.3043 253.225 38.3 251.053 37.9964C248.171 37.5945 245.456 36.7223 243.079 34.982C240.971 33.4428 239.35 31.5101 238.388 29.0644C237.858 27.7133 237.546 26.3108 237.469 24.8613C237.358 22.7491 237.486 20.6626 238.179 18.6359C239.081 15.9977 240.693 13.8941 242.95 12.2693C245.516 10.4221 248.427 9.567 251.523 9.20784C253.195 9.01543 254.875 8.9684 256.551 9.07101C259.797 9.2677 262.944 9.90479 265.727 11.6835C268.895 13.7102 270.999 16.5194 271.769 20.2564C272 21.3766 272.055 22.5054 272.119 23.3648H272.124ZM268.618 24.1174C268.682 21.9239 268.288 19.6749 267.527 18.1655C266.044 15.2153 263.671 13.2655 260.579 12.1923C258.3 11.397 255.931 11.226 253.528 11.3714C251.147 11.5167 248.868 12.0085 246.764 13.1757C244.515 14.4242 242.809 16.1687 241.843 18.576C241.12 20.3846 240.898 22.2702 240.966 24.2071C241.013 25.4471 241.18 26.6572 241.591 27.8244C242.839 31.3818 245.396 33.6352 248.859 34.9179C251.202 35.7859 253.644 35.9825 256.132 35.8372C257.894 35.7346 259.596 35.4181 261.242 34.7896C263.692 33.8532 265.689 32.3567 267.031 30.0692C268.109 28.2349 268.541 26.221 268.618 24.1174Z" fill="white"/>
<path d="M222.384 9.01538C225.043 9.04104 227.579 9.21206 230.008 10.0672C231.675 10.653 233.146 11.5423 234.176 13.0303C235.066 14.313 235.455 15.7411 235.442 17.2932C235.442 17.5797 235.314 17.6609 235.057 17.6609C234.117 17.6567 233.176 17.6524 232.235 17.6609C231.897 17.6652 231.825 17.5156 231.803 17.2077C231.701 15.5359 231.119 14.095 229.73 13.0602C228.81 12.3761 227.763 11.9699 226.655 11.7262C224.334 11.2131 221.982 11.2088 219.626 11.4312C218.343 11.5552 217.078 11.7775 215.902 12.3291C214.358 13.0517 213.576 14.3173 213.418 15.9806C213.336 16.8614 213.422 17.7293 213.858 18.5246C214.41 19.5337 215.316 20.1195 216.364 20.4786C217.946 21.0217 219.596 21.2825 221.234 21.6032C224.103 22.1633 227.019 22.4797 229.854 23.2108C231.059 23.523 232.244 23.9035 233.343 24.5021C234.805 25.2974 235.797 26.4732 236.173 28.098C236.584 29.8682 236.528 31.6255 235.754 33.2973C234.955 35.0333 233.535 36.1236 231.812 36.8547C230.089 37.5859 228.272 37.9066 226.416 38.0819C224.911 38.223 223.402 38.2615 221.892 38.2016C219.438 38.1075 217.005 37.8339 214.688 36.9616C213.093 36.363 211.643 35.5421 210.574 34.1653C209.565 32.8698 209.108 31.3732 208.928 29.7698C208.894 29.4534 208.885 29.137 208.86 28.8206C208.83 28.4743 208.954 28.3204 209.33 28.3332C210.215 28.3588 211.105 28.3588 211.994 28.3332C212.396 28.3204 212.528 28.47 212.537 28.8591C212.558 29.8468 212.764 30.8003 213.195 31.6939C213.969 33.3059 215.312 34.2636 216.928 34.8922C218.463 35.4865 220.066 35.7559 221.7 35.8072C223.936 35.8756 226.177 35.9141 228.37 35.3369C229.413 35.0632 230.422 34.704 231.239 33.9601C232.411 32.8954 232.731 31.4972 232.693 29.9965C232.646 27.9954 231.62 26.6357 229.708 26.0157C228.066 25.4813 226.369 25.2033 224.676 24.9083C221.888 24.4252 219.075 24.0532 216.321 23.3819C215.149 23.0997 213.974 22.8175 212.909 22.2274C211.036 21.1884 210.057 19.5679 209.877 17.4514C209.741 15.8395 209.929 14.2831 210.797 12.8721C211.763 11.3072 213.251 10.4691 214.948 9.93894C216.227 9.5413 217.544 9.33606 218.882 9.20351C220.084 9.08379 221.285 9.06669 222.375 9.01966L222.384 9.01538Z" fill="white"/>
<path d="M165.375 22.2831C165.375 21.4108 165.392 20.5942 165.367 19.7775C165.358 19.3927 165.495 19.2687 165.871 19.2815C166.547 19.3072 167.222 19.2986 167.898 19.2815C168.172 19.2772 168.296 19.3328 168.296 19.6492C168.279 25.6823 168.347 31.7196 168.236 37.7527C168.18 40.7928 166.547 42.9306 163.712 44.1193C162.062 44.8077 160.321 45.0728 158.564 45.1797C156.379 45.3122 154.194 45.2096 152.039 44.7735C150.521 44.4656 149.063 43.9996 147.947 42.828C147.015 41.8531 146.562 40.6559 146.323 39.3604C146.288 39.1894 146.357 39.1124 146.532 39.1124C147.379 39.1124 148.225 39.1124 149.072 39.1124C149.316 39.1124 149.337 39.2877 149.38 39.4545C149.551 40.1129 149.803 40.7329 150.201 41.293C150.898 42.285 151.937 42.704 153.053 42.9349C155.597 43.4608 158.154 43.5079 160.698 42.9435C162.84 42.4689 164.392 41.2845 165.063 39.1209C165.2 38.6805 165.298 38.223 165.333 37.7613C165.427 36.4956 165.354 35.23 165.375 33.8319C165.042 34.1782 164.807 34.4561 164.542 34.6956C163.015 36.0809 161.155 36.7436 159.154 37.0216C156.696 37.3593 154.233 37.3294 151.826 36.6752C147.939 35.6234 145.613 32.9767 145.335 28.8036C145.237 27.3627 145.369 25.9517 145.822 24.5791C146.451 22.6807 147.708 21.2997 149.41 20.2991C150.838 19.4568 152.407 19.0463 154.036 18.8454C155.883 18.6145 157.73 18.6273 159.573 18.9352C161.484 19.2558 163.156 20.034 164.486 21.4707C164.721 21.7229 164.973 21.9581 165.217 22.1976C165.234 22.2147 165.26 22.2232 165.371 22.2873L165.375 22.2831ZM156.982 20.7438C155.323 20.7481 153.703 20.9362 152.18 21.646C150.577 22.3942 149.397 23.5487 148.781 25.2333C148.302 26.5417 148.23 27.8928 148.405 29.2611C148.713 31.6641 149.889 33.4342 152.176 34.392C153.455 34.9264 154.793 35.1189 156.161 35.2001C157.846 35.2984 159.496 35.183 161.074 34.5331C162.583 33.9131 163.84 32.9938 164.584 31.4802C165.354 29.9153 165.525 28.2648 165.273 26.5716C164.935 24.2542 163.691 22.5824 161.544 21.5947C160.095 20.9277 158.551 20.7524 156.978 20.7438H156.982Z" fill="white"/>
<path d="M61.0256 23.6726C61.0256 19.243 61.0256 14.8133 61.0256 10.3836C61.0256 9.77219 61.0256 9.77647 61.6456 9.77219C67.2084 9.74654 72.7668 9.63537 78.3296 9.71661C80.4204 9.74654 82.3872 10.2896 84.042 11.6706C85.4059 12.808 86.1798 14.2788 86.4663 16.0062C86.74 17.6481 86.6673 19.2729 86.0345 20.8378C85.2948 22.6678 83.9265 23.8821 82.1777 24.6988C80.5914 25.4385 78.894 25.7293 77.1623 25.7421C73.1217 25.772 69.0854 25.7549 65.0448 25.7592C64.4548 25.7592 64.4505 25.7592 64.4505 26.3493C64.4505 29.8938 64.4591 33.4384 64.4633 36.983C64.4633 37.5474 64.4633 37.5474 63.8904 37.5474C63.1122 37.5474 62.334 37.5474 61.5515 37.5474C61.0427 37.5474 61.0256 37.5303 61.0256 37.0087C61.0256 32.5662 61.0256 28.1237 61.0256 23.6769V23.6726ZM70.9796 12.0341C68.9785 12.0298 66.9817 12.0383 64.9807 12.0212C64.5873 12.0212 64.4548 12.1196 64.4548 12.53C64.4676 16.0191 64.4676 19.5123 64.4548 23.0013C64.4548 23.3733 64.5488 23.5059 64.9422 23.5059C68.6236 23.4931 72.305 23.5102 75.9865 23.4931C77.2735 23.4845 78.5476 23.3691 79.7748 22.9287C81.4851 22.3129 82.631 21.1713 82.9944 19.367C83.2296 18.1911 83.2125 17.0025 82.9046 15.8266C82.5326 14.4114 81.6946 13.3809 80.3691 12.7524C79.2702 12.2307 78.0901 12.064 76.8929 12.0469C74.9218 12.017 72.9464 12.0383 70.971 12.0383L70.9796 12.0341Z" fill="white"/>
<path d="M196.37 28.9361C193.193 28.9361 190.012 28.9361 186.835 28.9361C186.288 28.9361 186.271 28.9361 186.309 29.4962C186.493 32.2968 187.943 34.2551 190.482 35.3155C193.283 36.487 196.191 36.5042 199.06 35.5336C200.838 34.935 202.057 33.6822 202.741 31.9334C202.861 31.6213 203.019 31.5015 203.352 31.5101C204.105 31.5315 204.862 31.5101 205.619 31.5186C206.025 31.5186 206.068 31.5828 205.935 31.9676C205.135 34.3235 203.545 35.9526 201.279 36.936C198.846 37.9921 196.289 38.2615 193.659 38.0733C191.667 37.9322 189.751 37.5303 187.998 36.5469C185.296 35.0247 183.688 32.75 183.333 29.633C183.137 27.8843 183.265 26.174 183.919 24.5278C184.638 22.7106 185.907 21.368 187.571 20.376C189.294 19.3499 191.196 18.918 193.163 18.7555C195.246 18.5802 197.315 18.6914 199.35 19.2088C201.676 19.7988 203.566 21.0302 204.909 23.0313C205.725 24.2456 206.17 25.6138 206.345 27.0676C206.397 27.4866 206.418 27.9099 206.444 28.3332C206.474 28.9404 206.487 28.9404 205.867 28.9404C202.703 28.9404 199.538 28.9404 196.37 28.9404V28.9361ZM194.818 27.2215C197.507 27.2215 200.197 27.2215 202.886 27.2215C203.37 27.2215 203.421 27.183 203.357 26.6999C203.288 26.1611 203.181 25.6267 202.946 25.135C202.006 23.151 200.449 21.8384 198.401 21.1243C196.161 20.3418 193.869 20.376 191.598 21.0003C190.175 21.3937 188.896 22.0735 187.947 23.2665C187.139 24.2841 186.673 25.4514 186.382 26.6999C186.267 27.1959 186.284 27.2215 186.788 27.2215C189.465 27.2215 192.141 27.2215 194.814 27.2215H194.818Z" fill="white"/>
<path d="M121.207 38.099C119.206 38.0648 117.192 38.0178 115.229 37.4876C113.626 37.0558 112.215 36.3203 111.321 34.8409C110.812 33.9986 110.577 33.0665 110.445 32.1044C110.411 31.8479 110.526 31.7709 110.753 31.7709C111.586 31.7709 112.42 31.7709 113.254 31.7581C113.626 31.7496 113.634 31.9847 113.652 32.2541C113.724 33.5112 114.31 34.4518 115.388 35.106C116.102 35.5379 116.88 35.8072 117.688 35.9355C120.283 36.3503 122.883 36.4101 125.457 35.7944C126.393 35.5721 127.274 35.1915 127.86 34.362C128.813 33.0152 128.347 31.1638 126.898 30.3728C126.081 29.9281 125.183 29.8554 124.294 29.7271C121.164 29.2825 118.004 29.0259 114.909 28.3632C113.617 28.0853 112.463 27.5337 111.732 26.3707C110.637 24.6219 110.834 21.5647 113.284 20.0811C114.361 19.4269 115.571 19.1746 116.786 18.9865C119.407 18.5803 122.032 18.5375 124.653 18.9779C126.034 19.2088 127.364 19.6065 128.518 20.4445C129.84 21.4023 130.485 22.7235 130.596 24.3311C130.622 24.6946 130.494 24.8229 130.126 24.81C129.412 24.7887 128.694 24.7929 127.98 24.81C127.685 24.8143 127.552 24.7288 127.535 24.4124C127.424 22.685 126.393 21.6845 124.845 21.1414C123.058 20.5172 121.203 20.53 119.347 20.6284C118.513 20.6711 117.684 20.7737 116.875 20.9918C116.179 21.1799 115.52 21.4536 114.968 21.9282C113.566 23.1254 113.793 25.1692 115.413 26.0158C115.777 26.2082 116.157 26.3536 116.559 26.4519C117.448 26.6743 118.355 26.7726 119.261 26.9051C121.446 27.2216 123.661 27.3284 125.842 27.7047C127.154 27.9313 128.424 28.2777 129.57 28.9874C132.337 30.6977 131.759 34.5031 129.925 35.9997C128.638 37.0558 127.112 37.4962 125.525 37.7912C124.101 38.0563 122.656 38.0648 121.203 38.0905L121.207 38.099Z" fill="white"/>
<path d="M97.267 38.1375C95.3515 38.1162 93.4616 37.9366 91.6529 37.2482C88.0998 35.8928 85.8593 32.6646 85.808 28.8677C85.7866 27.2087 85.9747 25.5968 86.6973 24.0789C87.7278 21.9111 89.4381 20.483 91.6401 19.615C93.996 18.6872 96.4503 18.5504 98.9473 18.7214C100.666 18.8411 102.338 19.1532 103.907 19.8758C106.276 20.9619 107.991 22.6893 108.687 25.2333C109.496 28.1708 109.367 31.0569 107.738 33.7292C106.746 35.3583 105.254 36.4101 103.497 37.1071C102.043 37.68 100.529 37.9665 98.973 38.0691C98.4043 38.1033 97.8357 38.1546 97.267 38.1418V38.1375ZM97.4466 36.1279C98.0323 36.1536 98.7207 36.098 99.4049 36.0082C100.021 35.927 100.632 35.8158 101.226 35.6191C103.492 34.8751 105.143 33.4898 105.806 31.1296C106.242 29.5775 106.25 27.9955 105.968 26.4177C105.494 23.7924 103.98 22.0436 101.423 21.2783C98.926 20.53 96.3819 20.4488 93.8678 21.197C91.7085 21.8384 90.1179 23.1895 89.3141 25.336C88.7839 26.747 88.677 28.2221 88.8823 29.71C89.2243 32.2456 90.4771 34.1611 92.8245 35.2813C94.2526 35.9612 95.7833 36.1536 97.4508 36.1322L97.4466 36.1279Z" fill="white"/>
<path d="M274.27 23.6298C274.27 19.2386 274.27 14.8474 274.27 10.4563C274.27 9.70373 274.27 9.708 275.044 9.70373C275.801 9.69945 276.553 9.69945 277.31 9.6738C277.609 9.66524 277.725 9.77641 277.712 10.0629C277.703 10.1954 277.712 10.328 277.712 10.4605C277.712 18.4604 277.712 26.4646 277.712 34.4646C277.712 34.8779 277.924 35.0845 278.349 35.0845C284.745 35.0845 291.142 35.0845 297.543 35.0845C298.471 35.0845 298.385 35.0033 298.385 35.9482C298.385 36.3587 298.368 36.7692 298.364 37.1797C298.364 37.4405 298.24 37.573 297.97 37.5602C297.863 37.5559 297.757 37.5602 297.654 37.5602C290.103 37.5602 282.556 37.5602 275.005 37.5602C274.873 37.5602 274.74 37.5602 274.608 37.5559C274.402 37.5516 274.287 37.449 274.283 37.2395C274.283 37.0941 274.278 36.9488 274.278 36.8034C274.278 32.4122 274.278 28.021 274.278 23.6298H274.27Z" fill="white"/>
<path d="M135.808 27.9099C135.808 25.849 135.8 23.7838 135.817 21.7229C135.817 21.3509 135.719 21.2098 135.33 21.2183C134.402 21.244 133.474 21.2183 132.55 21.2312C132.251 21.2312 132.114 21.1542 132.14 20.825C132.17 20.4701 132.17 20.1109 132.14 19.756C132.11 19.3798 132.23 19.2429 132.623 19.2558C133.495 19.2814 134.368 19.2643 135.24 19.2643C135.613 19.2643 135.801 19.0733 135.804 18.6914C135.804 17.0538 135.817 15.4119 135.804 13.7743C135.804 13.4194 135.907 13.274 136.275 13.2826C136.937 13.3039 137.6 13.3039 138.258 13.2826C138.635 13.2697 138.772 13.4066 138.767 13.7871C138.754 15.4375 138.763 17.0922 138.763 18.747C138.763 19.0947 138.931 19.2686 139.268 19.2686C140.576 19.2686 141.884 19.2814 143.193 19.26C143.603 19.2515 143.731 19.3926 143.701 19.7817C143.672 20.1109 143.68 20.4444 143.701 20.7737C143.723 21.1285 143.595 21.2611 143.223 21.2568C141.914 21.2354 140.602 21.2525 139.289 21.2269C138.891 21.2183 138.763 21.3381 138.763 21.7443C138.776 25.6993 138.763 29.6501 138.772 33.6052C138.772 34.952 139.366 35.5934 140.708 35.7388C141.581 35.8328 142.449 35.9141 143.308 35.6532C143.483 35.6019 143.616 35.6148 143.642 35.8499C143.689 36.3117 143.71 36.7735 143.693 37.2353C143.684 37.4234 143.629 37.5602 143.411 37.603C141.585 37.9621 139.768 37.9194 138.002 37.3165C136.544 36.8162 135.843 35.7473 135.826 34.114C135.8 32.0531 135.821 29.9879 135.821 27.927C135.821 27.927 135.817 27.927 135.813 27.927L135.808 27.9099Z" fill="white"/>
<path d="M174.354 22.4412C174.521 22.1162 174.671 21.7955 174.846 21.4962C175.744 19.9484 177.142 19.183 178.869 18.9051C180.315 18.67 181.768 18.6742 183.226 18.6785C183.504 18.6785 183.633 18.7726 183.628 19.0719C183.611 19.6662 183.615 20.2605 183.628 20.8591C183.628 21.0986 183.556 21.1969 183.303 21.167C182.859 21.1114 182.41 21.0601 181.961 21.0344C180.49 20.9489 179.045 21.0644 177.689 21.6929C175.898 22.5267 174.983 24.0275 174.559 25.8831C174.354 26.7768 174.299 27.6832 174.299 28.5982C174.299 31.3903 174.299 34.1781 174.299 36.9701C174.299 37.5303 174.282 37.5431 173.717 37.5431C173.097 37.5431 172.477 37.5303 171.853 37.5516C171.472 37.5645 171.353 37.4148 171.353 37.0386C171.361 34.131 171.353 31.2193 171.348 28.3118C171.348 25.494 171.348 22.6763 171.344 19.8629C171.344 19.2942 171.344 19.2899 171.921 19.2942C172.558 19.2942 173.196 19.3199 173.828 19.2942C174.205 19.2814 174.311 19.4353 174.303 19.7817C174.286 20.5342 174.294 21.291 174.303 22.0435C174.303 22.1675 174.26 22.3043 174.363 22.4412H174.354Z" fill="white"/>
<path d="M26.388 32.3653C26.3409 31.3733 26.4478 30.3856 26.4521 29.3936C26.4649 27.9399 25.2036 26.7042 23.7541 26.7555C23.2539 26.7726 23.2111 26.7213 23.3992 26.2467C23.7028 25.4685 24.0192 24.6989 24.4425 23.9805C25.8279 21.6331 26.0032 19.1105 25.5371 16.498C25.443 15.9763 25.3233 15.4632 25.1908 14.9502C24.8145 13.505 23.8439 12.6883 22.3987 12.4232C21.1459 12.1923 19.9188 12.3762 18.7087 12.7139C18.1486 12.8721 17.5928 13.0475 17.0626 13.2954C16.7205 13.4536 16.6436 13.3938 16.6949 13.009C16.8573 11.7049 17.1737 10.4392 17.6783 9.22066C18.5163 7.19823 19.8119 5.57345 21.7702 4.53872C23.0828 3.84605 24.4938 3.47406 25.9861 3.41848C29.7359 3.27738 33.1736 4.19239 36.2051 6.44143C38.065 7.81822 39.5102 9.55417 40.5364 11.6322C40.7801 12.1282 40.7545 12.1666 40.22 12.1367C39.1297 12.0769 38.0479 12.094 36.9961 12.4232C34.9779 13.0517 34.328 14.4542 34.6273 16.4082C34.8283 17.708 35.3756 18.8838 36.0041 20.0212C37.0389 21.8982 38.2104 23.6898 39.4033 25.4685C39.6428 25.8276 39.9677 26.1312 40.2628 26.4519C40.4338 26.64 40.3996 26.717 40.1601 26.8025C38.8218 27.2686 38.3857 27.8971 38.2959 29.3252C38.189 31.0141 37.9025 32.6817 37.6546 34.3535C37.4707 35.5934 37.2355 36.8291 37.0474 38.0691C36.7224 40.2112 35.5851 41.6094 33.4258 42.1268C32.1431 42.4346 30.8647 42.704 29.5477 42.3705C28.7268 42.161 28.1154 41.665 27.6108 41.0023C26.9096 40.0872 26.7215 39.014 26.6231 37.9152C26.4521 36.0723 26.4136 34.2209 26.3922 32.3738L26.388 32.3653Z" fill="white"/>
<path d="M12.0987 3.50401C14.5658 3.4698 16.725 3.93586 18.8757 4.45323C19.3803 4.57295 19.3846 4.6157 19.0083 4.96631C16.9174 6.91178 15.9212 9.40026 15.4209 12.141C15.143 13.6632 15.1943 15.1853 15.3098 16.7203C15.4038 17.9603 15.2713 19.2045 15.0917 20.4317C14.7967 22.4798 15.391 24.2072 16.8619 25.6609C17.0885 25.8832 17.5332 26.0415 17.4861 26.3579C17.4476 26.6101 17.0885 26.8282 16.849 27.0334C15.6091 28.1109 14.5401 29.3637 13.3002 30.4412C12.3467 31.2707 11.4659 31.3006 10.4653 30.5395C9.37503 29.71 8.66526 28.577 8.01107 27.4097C6.4205 24.562 5.41997 21.4835 4.52207 18.3665C4.02608 16.6519 3.57285 14.9202 3.36762 13.1458C3.14955 11.2474 3.2821 9.36178 4.08594 7.59162C4.91971 5.75305 6.39912 4.64563 8.30182 4.06413C9.61448 3.66221 10.9485 3.42705 12.0944 3.50829L12.0987 3.50401Z" fill="white"/>
<path d="M33.135 3.32865C33.3531 3.14907 33.5925 3.18755 33.8063 3.16189C36.4957 2.80273 39.1724 2.81556 41.7977 3.58519C43.9313 4.20945 45.8211 5.26983 47.3305 6.93738C47.8607 7.52315 47.9676 8.26286 48.006 9.00683C48.1044 10.8967 47.7067 12.7182 47.1509 14.5054C45.928 18.4434 44.051 22.0521 41.6053 25.3701C41.524 25.4813 41.4642 25.6737 41.2846 25.6053C41.0409 25.5069 41.1007 25.3273 41.2204 25.152C41.6181 24.5663 41.8875 23.9206 42.0457 23.2322C42.345 21.941 42.2167 20.654 42.0072 19.3712C41.7806 17.9987 41.7763 16.6348 42.0841 15.2794C42.2723 14.4499 42.2937 13.6033 42.3193 12.7567C42.3364 12.2478 42.1098 11.7732 41.8875 11.3243C40.2114 7.94217 37.6502 5.45797 34.2382 3.85029C34.0586 3.76477 33.879 3.67926 33.7037 3.58947C33.5327 3.49968 33.3146 3.5125 33.1393 3.33292L33.135 3.32865Z" fill="white"/>
<path d="M24.3866 18.3792C24.4251 20.6368 23.9377 22.1376 23.1381 23.5572C22.6849 24.3653 22.3172 25.2162 22.0179 26.0927C21.9195 26.3792 21.7699 26.486 21.4663 26.4689C18.8538 26.2979 16.391 24.3054 16.3782 21.3252C16.3782 20.547 16.5834 19.7817 16.6304 19.0035C16.6946 17.9217 16.7245 16.8357 16.6219 15.7582C16.5449 14.9159 16.5278 14.886 17.306 14.5097C18.7085 13.8384 20.1708 13.4151 21.7485 13.5049C22.8003 13.5647 23.5187 14.1206 23.8051 15.1211C24.1643 16.3867 24.3567 17.6737 24.3824 18.3792H24.3866ZM21.7229 15.6513C22.283 15.6599 22.6293 15.5145 22.9201 15.2408C23.1681 15.0014 23.1552 14.762 22.8559 14.5952C22.206 14.2275 21.5091 14.142 20.7907 14.3515C20.4658 14.4456 20.3845 14.6807 20.5684 14.9672C20.872 15.4375 21.338 15.6214 21.7229 15.6513Z" fill="white"/>
<path d="M35.9187 15.6812C35.9273 14.5225 36.3976 13.8427 37.3725 13.5263C38.4414 13.1799 39.5403 13.2398 40.6391 13.3253C40.9513 13.351 40.9427 13.5733 40.9128 13.7914C40.8401 14.313 40.7845 14.8432 40.6733 15.3563C40.3569 16.7886 40.4296 18.2167 40.652 19.6491C40.8358 20.8549 40.9897 22.0606 40.6177 23.2621C40.5408 23.5144 40.4382 23.7581 40.3355 24.0018C40.2372 24.2284 40.1132 24.2498 39.9849 24.0147C39.2025 22.6037 38.2191 21.3167 37.4537 19.8971C36.8594 18.7897 36.2821 17.6737 36.0384 16.4252C35.9828 16.1387 35.9529 15.8523 35.9273 15.6855L35.9187 15.6812ZM38.6509 13.9367C38.172 13.9367 37.7786 13.9923 37.4152 14.1676C37.0518 14.3429 37.0218 14.6337 37.3511 14.8603C37.8129 15.1767 38.3174 15.2152 38.8177 14.98C39.1212 14.8346 39.5232 14.6294 39.4248 14.2489C39.3307 13.8726 38.8818 13.9752 38.6466 13.9367H38.6509Z" fill="white"/>
<path d="M17.3918 31.1381C17.8707 30.8046 18.3838 30.7832 18.867 30.6678C19.085 30.6165 19.3074 30.578 19.5297 30.5438C20.774 30.3428 21.7788 29.74 22.5783 28.7694C22.7536 28.5556 22.9674 28.376 23.1684 28.1836C23.6772 27.7047 24.233 27.9142 24.6692 28.3503C25.1438 28.8249 25.1694 29.3466 24.7418 29.8212C23.442 31.2707 21.7702 31.7709 19.8846 31.6726C19.2774 31.6427 18.6703 31.57 18.0845 31.3947C17.8494 31.322 17.6227 31.2279 17.3918 31.1424V31.1381Z" fill="white"/>
<path d="M47.7369 28.1237C47.4162 28.4786 47.0057 28.6881 46.5995 28.8976C45.3895 29.5261 44.0768 29.757 42.7385 29.8725C41.8962 29.9452 41.0453 29.9665 40.2115 29.8041C39.66 29.6972 39.5916 29.5817 39.6856 29.0473C39.8267 28.2349 40.3184 27.7987 41.1437 27.7603C41.2334 27.7603 41.3318 27.7774 41.4088 27.8158C42.5033 28.3973 43.6877 28.4273 44.8849 28.3845C45.8384 28.3546 46.7791 28.2306 47.7369 28.1237Z" fill="white"/>
</svg>
