<svg width="185" height="52" viewBox="0 0 185 52" fill="none" xmlns="http://www.w3.org/2000/svg">
<g id="Group">
<path id="Vector" d="M36.4728 38.6761C33.3591 38.6761 30.2455 38.6812 27.1302 38.6727C26.6199 38.6727 26.273 38.7401 26.268 39.3884C26.2613 40.0755 26.6284 40.158 27.1756 40.1563C30.3179 40.1462 33.4602 40.1513 36.6024 40.1529C37.1362 40.1529 37.6684 40.163 38.2022 40.1563C38.6821 40.1513 38.9246 40.3466 38.9196 40.8568C38.901 42.5122 38.9953 44.1742 38.8758 45.8211C38.6535 48.9095 35.8042 51.358 32.3387 51.4136C28.2433 51.4775 24.1462 51.4759 20.0508 51.4152C16.2148 51.3597 13.4615 48.4919 13.4548 44.671C13.4497 40.9124 13.448 37.1521 13.4548 33.3935C13.4632 29.5693 16.3444 26.688 20.1721 26.6813C24.2405 26.6729 28.3073 26.683 32.3757 26.6779C36.9544 26.6729 40.3913 23.2258 40.4014 18.6336C40.4048 17.1181 40.42 15.6042 40.3947 14.0886C40.3846 13.4437 40.6204 13.1692 41.2805 13.1995C43.0149 13.2787 44.7629 13.0395 46.4873 13.341C49.5352 13.8748 51.6301 16.2795 51.6654 19.3965C51.7143 23.7731 51.7294 28.1497 51.6621 32.5246C51.6048 36.2899 49.0957 38.661 45.3085 38.6744C42.3633 38.6845 39.4163 38.6761 36.4711 38.6778L36.4728 38.6761ZM33.3709 48.0692C34.6861 48.0743 35.6594 47.106 35.6594 45.7942C35.6594 44.5093 34.6726 43.4939 33.3894 43.4569C32.182 43.4215 30.9999 44.5986 31.0151 45.8178C31.0319 47.0386 32.1046 48.0642 33.3709 48.0692Z" fill="white"/>
<path id="Vector_2" d="M16.0717 13.1979C19.1584 13.1979 22.2434 13.1945 25.3301 13.1996C25.815 13.1996 26.204 13.1844 26.2192 12.5108C26.2343 11.8288 25.9026 11.7328 25.3385 11.7345C21.9167 11.748 18.4932 11.7497 15.0714 11.7379C13.411 11.7328 13.4295 11.9972 13.4565 10.0927C13.4767 8.6933 13.3234 7.28551 13.5744 5.89288C14.1317 2.78935 16.7604 0.559789 19.906 0.549685C24.1142 0.536213 28.3224 0.534529 32.5307 0.549685C36.1141 0.563157 38.9179 3.38715 38.928 6.9824C38.9398 10.9094 38.9381 14.8381 38.928 18.7651C38.9179 22.4815 36.2067 25.2028 32.502 25.2112C28.4066 25.2213 24.3096 25.1961 20.2142 25.2197C17.1494 25.2382 14.7632 26.5331 13.1163 29.145C12.3299 30.3928 12.0032 31.7703 11.9881 33.2252C11.9712 34.7677 11.9645 36.3119 11.9914 37.8544C12.0015 38.4674 11.7826 38.7048 11.1612 38.693C9.70293 38.6644 8.24294 38.7115 6.78464 38.6745C3.52618 38.592 0.870578 36.0323 0.816691 32.7705C0.742597 28.2272 0.745965 23.6805 0.813324 19.1372C0.863842 15.7238 3.48576 13.2737 6.98166 13.1996C7.03723 13.1996 7.09448 13.1996 7.15005 13.1996C10.1239 13.1996 13.0978 13.1996 16.0717 13.1996V13.1979ZM21.366 6.15389C21.3677 4.9044 20.3152 3.83172 19.0893 3.83509C17.8011 3.83845 16.8193 4.83872 16.8193 6.14884C16.8193 7.47243 17.7842 8.45081 19.091 8.4525C20.3961 8.4525 21.3627 7.47749 21.366 6.15389Z" fill="white"/>
<path id="Vector_3" d="M68.0218 41.7292C68.0218 43.4973 68.0285 45.2638 68.0184 47.032C68.0117 47.9531 67.9056 48.0171 67.0366 47.7359C65.2023 47.1397 64.2851 45.8863 64.2851 43.9756C64.2851 35.8387 64.2952 27.7035 64.2682 19.5666C64.2649 18.7583 64.5158 18.1807 65.1119 17.6705C67.0838 15.9865 69.4211 15.2102 71.9387 14.8667C73.0534 14.7151 74.1682 14.6461 75.2931 14.7539C78.2232 15.0334 80.2911 16.6079 81.4951 19.1894C83.4451 23.3673 83.7297 27.7102 81.9397 32.0026C80.0166 36.6116 75.5272 38.4522 70.8138 36.743C70.1048 36.4853 69.4127 36.1637 68.7459 35.8101C68.1784 35.5103 68.01 35.6434 68.0167 36.2597C68.0352 38.0834 68.0234 39.9071 68.0218 41.7309V41.7292ZM68.0234 25.8175C68.0234 27.8921 68.0369 29.9667 68.015 32.0431C68.01 32.5819 68.1851 32.9339 68.66 33.2016C69.7697 33.8264 70.9333 34.3063 72.1862 34.5269C75.0725 35.0338 77.2094 33.7607 78.1188 30.9586C79.0214 28.17 78.9085 25.3207 78.4859 22.4681C78.3293 21.4089 78.0565 20.3732 77.4907 19.4504C76.7699 18.275 75.7865 17.4415 74.3568 17.2933C72.4051 17.0895 70.573 17.4987 68.82 18.3676C68.2424 18.6539 68.0032 19.0261 68.0133 19.6778C68.0453 21.7238 68.0251 23.7715 68.0251 25.8191L68.0234 25.8175Z" fill="white"/>
<path id="Vector_4" d="M104.917 26.5264C104.917 29.6131 104.917 32.6981 104.917 35.7848C104.917 37.2751 104.729 38.7469 104.549 40.2221C104.148 43.5058 102.205 45.5097 99.2408 46.6868C97.6393 47.3233 95.9806 47.7157 94.2714 47.9043C93.1549 48.0272 93.0674 47.9531 92.7777 46.8434C92.4325 45.5248 92.4342 45.5417 93.7864 45.3497C95.0915 45.1645 96.3982 44.9708 97.6326 44.4741C99.6718 43.6523 100.911 42.226 101.181 39.9745C101.327 38.7419 101.324 37.5143 101.346 36.2816C101.354 35.8303 101.192 35.6602 100.733 35.8471C98.6884 36.6824 96.5565 37.0646 94.3556 37.2499C91.6562 37.4789 88.4954 35.7983 87.3217 33.3549C86.9479 32.5769 86.8216 31.7602 86.8216 30.9047C86.8266 26.2469 86.8418 21.5891 86.8064 16.9329C86.7997 16.1499 87.0422 15.7356 87.8016 15.5538C88.3994 15.4106 88.9888 15.2069 89.5597 14.9762C90.2888 14.6815 90.4774 14.9223 90.4724 15.6615C90.4488 20.1223 90.4623 24.5831 90.4589 29.044C90.4589 29.6064 90.496 30.1621 90.5869 30.7178C90.8883 32.5634 92.1378 33.9342 93.97 34.3754C96.4168 34.9664 98.6261 34.3467 100.714 33.0568C101.199 32.7571 101.16 32.3294 101.16 31.8831C101.16 26.7487 101.16 21.6143 101.16 16.4799C101.16 15.6425 101.58 15.2226 102.42 15.2203C102.87 15.2203 103.318 15.2187 103.767 15.2203C104.889 15.2271 104.912 15.2439 104.914 16.3385C104.917 19.7334 104.914 23.1282 104.914 26.5231L104.917 26.5264Z" fill="white"/>
<path id="Vector_5" d="M126.655 17.5071C127.757 16.7948 128.707 16.2054 129.771 15.8383C131.487 15.2472 133.236 14.8936 135.057 15.1513C137.941 15.5588 140.048 17.6907 140.447 20.5803C140.516 21.0788 140.577 21.584 140.578 22.0858C140.589 26.6308 140.57 31.1758 140.599 35.7191C140.604 36.5392 140.381 36.9248 139.506 36.8373C138.923 36.7783 138.327 36.7935 137.739 36.8339C137.03 36.8827 136.827 36.5729 136.83 35.8959C136.852 32.0801 136.843 28.2659 136.838 24.4501C136.838 23.4144 136.891 22.3788 136.665 21.3499C136.19 19.1827 135.023 17.9416 133.135 17.6839C132.219 17.5593 131.359 17.8456 130.507 18.1319C129.382 18.5108 128.382 19.1338 127.368 19.7367C126.814 20.065 126.64 20.481 126.644 21.1125C126.667 25.937 126.657 30.7632 126.655 35.5878C126.655 36.4118 126.233 36.8243 125.387 36.8255C124.798 36.8255 124.209 36.8103 123.621 36.8255C123.117 36.8373 122.904 36.5965 122.912 36.1132C122.915 35.9161 122.907 35.7208 122.907 35.5238C122.907 25.3409 122.919 15.1563 122.887 4.97342C122.883 4.03377 123.123 3.50333 124.084 3.31977C124.685 3.20526 125.263 2.96109 125.844 2.75228C126.42 2.54515 126.672 2.69166 126.662 3.3383C126.639 4.7966 126.657 6.25491 126.657 7.7149C126.657 10.9094 126.657 14.1055 126.657 17.5054L126.655 17.5071Z" fill="white"/>
<path id="Vector_6" d="M153.525 14.6915C158.715 14.6882 162.835 18.5293 163.345 23.8725C163.701 27.5923 163.116 31.0579 160.675 34.0739C157.081 38.5128 149.503 38.2888 146.114 33.7051C143.138 29.6821 142.821 22.8284 145.627 18.8829C147.575 16.1431 150.153 14.7 153.523 14.6932L153.525 14.6915ZM147.688 25.0226C147.7 28.148 148.141 30.551 149.481 32.7688C151.192 35.6012 156.002 35.2661 157.586 33.0568C158.807 31.3543 159.174 29.4413 159.341 27.4458C159.54 25.0765 159.456 22.7341 158.385 20.5416C157.283 18.2885 155.316 17.108 153.07 17.3084C150.712 17.5189 148.927 19.0479 148.23 21.4644C147.84 22.82 147.673 24.2059 147.688 25.0226Z" fill="white"/>
<path id="Vector_7" d="M166.516 27.4475C166.516 24.6976 166.53 21.946 166.505 19.1961C166.499 18.568 166.715 18.1723 167.229 17.8035C170.206 15.6648 173.518 14.6107 177.172 14.71C178.998 14.7606 180.722 15.222 182.155 16.463C183.4 17.5408 184.018 18.9098 184.021 20.5382C184.035 25.6457 184.018 30.7531 184.038 35.8605C184.041 36.5846 183.799 36.8928 183.06 36.8339C182.502 36.7901 181.933 36.7817 181.377 36.8339C180.54 36.913 180.259 36.6133 180.268 35.7477C180.308 31.4823 180.286 27.2168 180.286 22.9513C180.286 22.6432 180.294 22.3333 180.278 22.0251C180.111 18.76 177.851 16.8739 174.604 17.2107C173.378 17.337 172.254 17.6856 171.164 18.2362C170.517 18.5629 170.243 18.989 170.248 19.7501C170.28 25.026 170.266 30.3018 170.265 35.5776C170.265 36.4061 169.844 36.8215 169.002 36.8238C168.497 36.8238 167.988 36.7901 167.486 36.8322C166.752 36.8928 166.498 36.5964 166.505 35.8639C166.533 33.0584 166.516 30.2513 166.516 27.4441V27.4475Z" fill="white"/>
<path id="Vector_8" d="M111.109 25.1591C111.109 23.0558 111.109 20.9508 111.109 18.8476C111.109 18.0348 110.712 17.6256 109.919 17.62C108.649 17.6116 108.608 17.5341 108.603 16.2964C108.6 15.4662 108.895 15.1681 109.745 15.2052C111.106 15.2641 111.107 15.2136 111.109 13.8294C111.109 12.5951 111.136 11.3607 111.101 10.1264C111.082 9.4831 111.342 9.14799 111.943 8.96781C112.64 8.75731 113.329 8.51145 114.002 8.2336C114.625 7.97764 114.869 8.11909 114.859 8.81457C114.834 10.581 114.849 12.3492 114.853 14.1157C114.854 15.217 114.858 15.2187 115.994 15.222C116.695 15.2254 117.397 15.2389 118.098 15.2203C118.66 15.2052 118.891 15.4258 118.909 16.0101C118.961 17.6132 118.977 17.62 117.405 17.6217C116.816 17.6217 116.227 17.6436 115.639 17.6166C115.061 17.5897 114.836 17.8254 114.844 18.4047C114.866 19.8916 114.851 21.3786 114.851 22.8655C114.851 25.6979 114.839 28.532 114.856 31.3644C114.869 33.8247 115.55 34.6077 117.971 35.0321C118.79 35.1752 119.246 36.1839 118.818 36.8912C118.721 37.0528 118.574 37.1185 118.402 37.1337C116.04 37.3492 113.159 36.7413 111.832 34.4596C111.306 33.5553 111.121 32.5752 111.114 31.5547C111.101 29.4228 111.111 27.2909 111.109 25.1591Z" fill="white"/>
</g>
</svg>
