<svg width="71" height="70" viewBox="0 0 71 70" fill="none" xmlns="http://www.w3.org/2000/svg">
<g id="SpXsHN.tif">
<path id="Vector" d="M0.0395422 63.9905V5.94152C0.172121 5.75686 0.168964 5.53274 0.224205 5.32598C0.969172 2.51499 2.75109 0.770952 5.58575 0.108058C5.74043 0.0717568 5.8951 0.0370337 6.04978 0.000732422C25.3984 0.000732422 44.7486 0.000732422 64.0972 0.000732422C64.2661 0.0749134 64.4491 0.0859616 64.6259 0.122263C67.3406 0.687301 69.5108 2.95061 69.9559 5.67794C69.989 5.87839 69.9622 6.08831 70.038 6.28244V63.648C69.9527 63.8879 69.9859 64.142 69.937 64.3882C69.3845 67.2497 67.0991 69.4483 64.2187 69.8855C64.0404 69.9123 63.8573 69.9265 63.6868 69.9992H6.3907C6.13501 69.8966 5.85722 69.8981 5.59207 69.8366C2.69427 69.1532 0.898147 67.3618 0.192639 64.4719C0.153181 64.3077 0.143711 64.1325 0.0379639 63.9905H0.0395422ZM43.4133 59.1024C43.4133 60.1047 43.4212 61.1053 43.4086 62.1076C43.4054 62.3901 43.5112 62.5463 43.7653 62.6537C44.2688 62.8667 44.7738 63.0735 45.2962 63.2376C47.367 63.8863 49.5025 64.1152 51.6584 64.1736C53.0253 64.2115 54.3874 64.1026 55.74 63.8974C57.2125 63.6732 58.6362 63.2866 59.9525 62.5732C62.099 61.4099 63.5195 59.6817 64.0451 57.2653C64.2566 56.2883 64.2724 55.2987 64.2234 54.3091C64.1414 52.6597 63.6205 51.1667 62.5773 49.8709C61.8781 49.0012 61.0352 48.2941 60.1024 47.6912C58.9234 46.9273 57.6639 46.3196 56.3713 45.7735C55.3217 45.3316 54.2753 44.885 53.2715 44.3436C52.4981 43.9253 51.761 43.4518 51.1723 42.7826C50.5741 42.1024 50.3595 41.3195 50.5678 40.4357C50.7414 39.7033 51.2323 39.2046 51.8415 38.8116C52.4129 38.4423 53.0505 38.2339 53.7134 38.0982C54.8861 37.8599 56.062 37.8677 57.2457 38.0145C59.146 38.2513 60.9342 38.8068 62.5757 39.8075C62.6246 39.8375 62.6719 39.8675 62.7225 39.8943C62.8298 39.9511 62.8976 39.9243 62.9103 39.798C62.915 39.7412 62.9166 39.6844 62.9166 39.6276C62.9166 37.7841 62.9166 35.9406 62.9166 34.0956C62.9166 33.7341 62.8866 33.6994 62.5473 33.5779C61.8607 33.3317 61.1583 33.1359 60.4434 32.9971C58.4468 32.6088 56.4313 32.4888 54.3984 32.5678C53.3488 32.6088 52.3119 32.724 51.2828 32.9308C49.6145 33.2654 48.0394 33.8383 46.6457 34.839C45.2568 35.8364 44.2419 37.1212 43.7053 38.7579C43.2949 40.0095 43.2066 41.2959 43.336 42.6027C43.5222 44.4888 44.2751 46.1018 45.6103 47.445C46.5352 48.3746 47.6116 49.088 48.7638 49.7004C49.7013 50.1976 50.6909 50.5748 51.6616 50.9962C52.7475 51.4665 53.8381 51.929 54.8419 52.5666C55.5095 52.9912 56.1235 53.4757 56.5765 54.1371C57.3672 55.2892 57.151 56.787 56.073 57.6662C55.5963 58.0544 55.0487 58.2991 54.4647 58.468C53.1531 58.8436 51.8163 58.8862 50.4715 58.73C47.9825 58.4427 45.7382 57.5446 43.7605 55.9979C43.6753 55.9316 43.5917 55.7959 43.4764 55.8543C43.3628 55.9111 43.4149 56.061 43.4149 56.1683C43.4117 57.1469 43.4133 58.1255 43.4149 59.1056L43.4133 59.1024ZM31.8537 51.2898C31.8537 47.3298 31.8537 43.3698 31.8537 39.4098C31.8537 38.9889 32.0689 38.7784 32.4992 38.7784C35.0245 38.7784 37.5514 38.7784 40.0767 38.7784C40.5944 38.7784 40.6102 38.7611 40.6102 38.2371C40.6102 36.7803 40.6102 35.3235 40.6102 33.8683C40.6102 33.4295 40.3924 33.2096 39.9568 33.2085C32.2656 33.2085 24.5729 33.2085 16.8818 33.2085C16.7792 33.2085 16.6766 33.2054 16.574 33.2101C16.2883 33.2228 16.2473 33.2654 16.2347 33.5574C16.2315 33.6142 16.2347 33.671 16.2347 33.7278C16.2347 35.2304 16.2347 36.7314 16.2347 38.2339C16.2347 38.5959 16.4204 38.7769 16.7918 38.7769C19.295 38.7769 21.7982 38.7769 24.3015 38.7769C24.4151 38.7769 24.5287 38.7737 24.6424 38.78C24.9059 38.7958 24.9501 38.8416 24.9659 39.113C24.9738 39.2598 24.9691 39.4082 24.9691 39.5565C24.9691 47.4529 24.9691 55.3508 24.9691 63.2471C24.9691 63.7585 24.9785 63.7679 25.482 63.7679C27.4171 63.7679 29.3505 63.7679 31.2855 63.7679C31.6622 63.7679 31.8511 63.5791 31.8521 63.2013C31.8521 59.2303 31.8521 55.2592 31.8521 51.2882L31.8537 51.2898Z" fill="white"/>
</g>
</svg>
