<svg width="83" height="70" viewBox="0 0 83 70" fill="none" xmlns="http://www.w3.org/2000/svg">
<path id="Vector" d="M0.761963 0.0961335V0.0166385C0.875218 0.0129411 0.988473 0.00739489 1.10173 0.00739489C11.6066 0.00739489 22.1134 0.00739489 32.6183 0.00739489C32.6777 0.00739489 32.7389 0.0129411 32.7984 0.00739489C32.945 -0.00739489 33.0323 0.0591591 33.0991 0.184872C33.3294 0.619322 33.5652 1.05192 33.8009 1.48452C35.251 4.14853 36.7047 6.81069 38.1548 9.4747C39.3282 11.6303 40.4979 13.7878 41.6694 15.9452C41.7678 16.1264 41.7827 16.1264 41.8959 15.9489C42.5049 14.9876 43.112 14.0263 43.7229 13.0668C44.9464 11.1404 46.1755 9.21773 47.3971 7.29136C48.8695 4.97121 50.3381 2.64922 51.8011 0.323526C51.9441 0.0924361 52.1 0 52.3767 0C62.3877 0.00739489 72.4006 0.00739489 82.4116 0.00739489C82.8312 0.00739489 82.8368 0.0110923 82.6233 0.378988C81.4721 2.34788 80.3173 4.31677 79.1625 6.28381C77.9705 8.31555 76.7767 10.3436 75.5847 12.3753C74.1143 14.8841 72.6494 17.3928 71.1789 19.9015C69.4132 22.9149 67.642 25.9246 65.8745 28.9362C64.4671 31.334 63.0654 33.7355 61.6599 36.1351C60.3454 38.3795 59.029 40.622 57.7127 42.8663C55.778 46.1663 53.8471 49.4681 51.9125 52.7681C50.3455 55.4432 48.7766 58.1164 47.2078 60.7897C45.8654 63.0784 44.5231 65.3689 43.1807 67.6577C42.724 68.4378 42.2672 69.2198 41.8105 70H41.7307C41.6935 69.9297 41.6583 69.8576 41.6174 69.7892C41.2238 69.1182 40.8265 68.4471 40.4347 67.776C38.9383 65.221 37.4437 62.6661 35.9472 60.113C34.0423 56.8648 32.1355 53.6185 30.2325 50.3703C28.7397 47.8227 27.2488 45.2715 25.7561 42.724C24.2764 40.1986 22.791 37.6769 21.3094 35.1516C19.9857 32.8962 18.6637 30.6407 17.3437 28.3853C16.0756 26.2204 14.8112 24.0556 13.545 21.8907C11.9742 19.2101 10.4035 16.5313 8.83094 13.8506C7.27878 11.2051 5.72477 8.56143 4.17262 5.91591C3.0345 3.9766 1.89823 2.03544 0.761963 0.0961335ZM15.9307 5.91776C14.3823 5.91776 12.8339 5.91776 11.2854 5.91776C11.0403 5.91776 11.0311 5.92885 11.1536 6.1433C11.3151 6.42616 11.4878 6.70346 11.6512 6.98447C13.1922 9.61335 14.7332 12.2404 16.2724 14.8693C17.7985 17.476 19.3228 20.0827 20.8509 22.6875C21.8534 24.3976 22.8635 26.1039 23.866 27.814C25.3272 30.3042 26.7828 32.7982 28.2422 35.2884C29.6421 37.6751 31.0438 40.0618 32.4456 42.4485C33.7861 44.7317 35.1247 47.0148 36.4634 49.2999C38.1956 52.256 39.9279 55.2102 41.6601 58.1663C41.727 58.2791 41.7659 58.3752 41.8755 58.1885C43.2476 55.8388 44.6233 53.4909 45.9991 51.1449C48.448 46.9668 50.8951 42.7887 53.3458 38.6106C54.5972 36.4753 55.8542 34.3437 57.1055 32.2084C58.8211 29.2819 60.5311 26.3517 62.2466 23.4252C63.2083 21.7835 64.1756 20.1455 65.1392 18.5039C66.3702 16.4037 67.5974 14.2999 68.8284 12.1997C70.0092 10.1846 71.1919 8.17135 72.3727 6.15809C72.499 5.94364 72.4841 5.91776 72.2279 5.91776C69.144 5.91776 66.0601 5.91776 62.9762 5.91406C62.7906 5.91406 62.6866 5.98061 62.5956 6.13776C61.9904 7.20077 61.3777 8.26194 60.7631 9.31941C59.2611 11.9076 57.7535 14.494 56.2515 17.084C54.8163 19.5576 53.3885 22.0368 51.9552 24.5122C50.4643 27.0856 48.9679 29.6535 47.4751 32.2269C45.9007 34.9427 44.3281 37.6603 42.7555 40.3779C42.4696 40.8734 42.1781 41.367 41.8941 41.8625C41.8142 42.0011 41.7474 42.027 41.6657 41.868C41.636 41.8088 41.597 41.7552 41.5636 41.6961C40.8135 40.4001 40.0653 39.1042 39.3133 37.8101C38.1102 35.7395 36.9053 33.6708 35.7021 31.6002C34.4898 29.5111 33.2829 27.4202 32.0706 25.3312C30.6075 22.8114 29.1426 20.2934 27.6814 17.7736C26.4394 15.6328 25.2028 13.4901 23.9607 11.3493C22.96 9.6226 21.9518 7.89959 20.9585 6.17103C20.8509 5.98431 20.7339 5.91221 20.5185 5.91221C18.9905 5.91961 17.4606 5.91591 15.9326 5.91591L15.9307 5.91776Z" fill="white"/>
</svg>
