<svg width="65" height="68" viewBox="0 0 65 68" fill="none" xmlns="http://www.w3.org/2000/svg">
<g id="P1XzAc.tif">
<g id="Group">
<path id="Vector" d="M64.5246 15.0217C64.1467 16.3197 64.2491 17.668 64.1561 18.9886C63.7007 25.4129 63.3416 31.8431 62.9458 38.2717C62.7932 40.7467 62.6388 43.2217 62.4708 45.6959C62.4366 46.1929 62.3343 46.6849 62.2635 47.1794C62.1688 47.1945 62.0742 47.2105 61.9795 47.2256C61.1394 45.4675 60.2916 43.7129 59.4608 41.9506C55.6756 33.9211 51.8955 25.8906 48.1136 17.8594C45.6137 12.55 43.1113 7.24232 40.6267 1.92622C40.463 1.57612 40.0442 1.12947 40.3385 0.819673C40.6685 0.472095 41.0873 0.938052 41.4362 1.09673C48.7789 4.43398 56.1157 7.78719 63.4567 11.1278C63.7928 11.2806 64.1681 11.3528 64.5246 11.4619V15.0217Z" fill="white"/>
<path id="Vector_2" d="M32.2099 67.3061C27.2861 64.5196 22.369 61.7213 17.4357 58.9525C15.3794 57.7981 15.6907 57.9853 16.4455 56.2088C17.2148 54.3978 17.9833 52.5861 18.7023 50.7558C19.0017 49.9943 19.4486 49.6795 20.3007 49.682C28.4648 49.708 36.6289 49.7064 44.793 49.6871C45.5828 49.6854 46.028 49.9414 46.3197 50.6828C47.1343 52.7548 47.9718 54.8201 48.8913 56.8485C49.2964 57.7426 49.0363 58.1683 48.2422 58.6116C43.3993 61.3141 38.5778 64.0519 33.7503 66.7805C33.4578 66.9459 33.1754 67.1298 32.888 67.3052H32.2099V67.3061Z" fill="white"/>
<path id="Vector_3" d="M24.9713 0.822915C17.6567 16.3363 10.36 31.8136 3.04458 47.3304C2.54391 46.9795 2.63518 46.6176 2.61556 46.3011C2.14219 38.5049 1.67991 30.7088 1.20398 22.9126C0.996726 19.5141 0.780938 16.1155 0.531034 12.7203C0.467919 11.8657 0.858554 11.4736 1.59803 11.1378C9.08322 7.7451 16.5539 4.32305 24.0297 0.911068C24.26 0.806123 24.4826 0.645767 24.9713 0.822915Z" fill="white"/>
<path id="Vector_4" d="M32.5325 18.6083C32.9743 18.8417 33.0443 19.3152 33.2089 19.7081C35.7634 25.8084 38.3068 31.9136 40.8484 38.0189C41.4097 39.3681 41.3329 39.4907 39.8949 39.4924C34.9991 39.4982 30.1034 39.4991 25.2085 39.4924C23.75 39.4907 23.6588 39.3664 24.2106 38.0399C26.8095 31.7978 29.4202 25.5598 32.0344 19.3236C32.1436 19.0633 32.1743 18.7309 32.5325 18.6083Z" fill="white"/>
</g>
</g>
</svg>
