<svg width="87" height="52" viewBox="0 0 87 52" fill="none" xmlns="http://www.w3.org/2000/svg">
<g id="97mYu0">
<g id="Group">
<path id="Vector" d="M37.7269 20.7356C38.0681 19.2807 38.4115 17.8268 38.7515 16.3719C39.8331 11.7512 40.9125 7.12944 41.9963 2.50989C42.333 1.07636 42.6574 0.823912 44.1137 0.821658C44.7479 0.821658 45.381 0.818277 46.0152 0.821658C47.1762 0.82842 47.5856 1.15863 47.8484 2.29238C48.6437 5.7083 49.4367 9.12534 50.2342 12.5413C50.8527 15.1897 51.4769 17.837 52.0999 20.4843C52.1424 20.6657 52.1905 20.8449 52.2498 21.0782C52.4444 20.8968 52.4399 20.6826 52.4858 20.5046C54.026 14.509 55.5595 8.51225 57.0952 2.51553C57.4587 1.09664 57.8166 0.820531 59.2886 0.820531C60.0157 0.820531 60.7427 0.809261 61.4686 0.826166C62.0827 0.83969 62.303 1.08537 62.3109 1.69395C62.3142 1.99824 62.2639 2.29126 62.1744 2.58089C59.8546 10.0698 57.5359 17.5597 55.2139 25.0475C54.838 26.2613 54.4544 26.5385 53.1882 26.5475C52.4802 26.5532 51.7722 26.5565 51.0641 26.5453C49.9221 26.5272 49.5307 26.2173 49.2633 25.1027C47.8484 19.1928 46.4391 13.2806 45.0275 7.36948C44.9928 7.22523 44.9514 7.08323 44.8799 6.80937C44.3687 8.96531 43.8866 10.9973 43.4034 13.0292C42.4706 16.9523 41.5377 20.8765 40.6026 24.7996C40.5378 25.0723 40.4628 25.3461 40.3655 25.6087C40.1798 26.108 39.8297 26.3976 39.285 26.454C38.2258 26.5655 37.1688 26.5464 36.1073 26.4788C35.3389 26.4303 34.915 26.019 34.6991 25.3292C34.3289 24.1481 33.9665 22.9648 33.6085 21.7792C31.716 15.5131 29.8257 9.24593 27.9388 2.97759C27.8258 2.60118 27.7207 2.21913 27.6547 1.83144C27.545 1.19131 27.8146 0.841944 28.451 0.82842C29.4197 0.808134 30.3894 0.801372 31.3581 0.830674C32.2563 0.857721 32.6108 1.15637 32.886 2.18306C33.424 4.19475 33.9228 6.21544 34.4318 8.23501C35.4507 12.273 36.4664 16.311 37.4842 20.3491C37.5155 20.4753 37.5603 20.597 37.5994 20.721L37.7258 20.7345L37.7269 20.7356Z" fill="white"/>
<path id="Vector_2" d="M44.8697 51.9331C33.0325 51.9196 23.1235 49.4751 13.8241 44.5536C9.4496 42.2376 5.42741 39.3976 1.71281 36.1147C1.46114 35.8926 1.21618 35.6571 0.999191 35.4013C0.767658 35.1285 0.663635 34.8051 0.881747 34.4692C1.11552 34.1097 1.46338 33.9835 1.85486 34.1368C2.21726 34.2788 2.56064 34.4726 2.90067 34.6653C11.2135 39.3807 20.08 42.5329 29.4633 44.2335C33.0414 44.8815 36.6442 45.2996 40.2771 45.4833C45.9715 45.7718 51.6301 45.4957 57.2629 44.5975C64.0501 43.5156 70.6192 41.6685 76.9545 38.9828C77.1961 38.8803 77.4444 38.807 77.7106 38.8014C78.3962 38.7856 78.8906 39.0843 79.0875 39.6421C79.272 40.1651 79.0942 40.7252 78.5752 41.1309C77.3515 42.0877 76.0496 42.9307 74.7129 43.7162C68.7233 47.2381 62.2661 49.4706 55.4767 50.7768C51.5339 51.5353 47.5598 51.9883 44.8697 51.9331Z" fill="white"/>
<path id="Vector_3" d="M25.0439 14.0673C25.1088 16.0553 24.9634 18.0444 25.1368 20.0347C25.2408 21.2293 25.677 22.2864 26.1971 23.33C26.7027 24.3454 26.6099 24.7027 25.6658 25.3406C25.1547 25.6854 24.6491 26.0393 24.1279 26.3672C23.4467 26.7955 22.8886 26.6997 22.3394 26.0979C21.7287 25.4273 21.2656 24.661 20.8696 23.8473C20.5889 23.2691 20.5867 23.2759 20.1482 23.7312C17.2725 26.7222 13.7715 27.723 9.78064 26.871C6.54253 26.1802 4.45537 23.3942 4.29542 20.0595C4.04599 14.8764 7.6521 11.9688 11.7727 11.4109C14.333 11.0649 16.8642 11.3467 19.3708 11.9091C19.5162 11.9417 19.665 11.9586 19.8093 11.997C20.0755 12.068 20.1963 11.9744 20.1907 11.6949C20.1683 10.4214 20.2824 9.14229 19.995 7.88119C19.4894 5.66214 18.3843 4.67602 16.1372 4.35596C13.3722 3.96151 10.7694 4.56107 8.21695 5.55057C7.79974 5.71173 7.38142 5.87514 6.95079 5.99235C6.41837 6.13773 6.04702 5.89656 6.01347 5.34208C5.97096 4.63207 5.98103 3.9153 6.0157 3.20304C6.04479 2.61025 6.46199 2.28905 6.94855 2.03435C8.50217 1.22179 10.1609 0.73155 11.8734 0.425008C14.1898 0.00914763 16.5085 0.00125872 18.8093 0.533199C22.2655 1.33336 24.2912 3.5727 24.8359 7.09793C25.1938 9.41615 24.9679 11.7468 25.0451 14.0695L25.0439 14.0673ZM15.1115 14.8302C14.5355 14.8201 13.8699 14.8539 13.2033 14.9519C11.2627 15.2359 9.93388 16.3404 9.56476 18.0354C9.42495 18.6778 9.42383 19.3269 9.4887 19.9885C9.64865 21.6226 10.6822 22.8285 12.2884 23.1271C13.9975 23.445 15.6383 23.1373 17.164 22.354C18.7925 21.5189 19.8775 20.2274 20.1292 18.3239C20.231 17.5564 20.1806 16.7878 20.2254 16.0226C20.2511 15.5662 20.0475 15.396 19.637 15.316C18.1729 15.0331 16.702 14.8144 15.1115 14.8314V14.8302Z" fill="white"/>
<path id="Vector_4" d="M73.5766 27.244C70.5588 27.2722 68.3263 26.8169 66.1608 25.9964C65.7414 25.8375 65.3409 25.6369 64.9741 25.3732C64.5009 25.0329 64.2515 24.5776 64.256 23.9859C64.2593 23.4415 64.2425 22.8961 64.2616 22.3517C64.2851 21.6463 64.6452 21.3735 65.332 21.5471C65.6552 21.6293 65.9684 21.7589 66.2749 21.8931C68.4101 22.833 70.6539 23.2443 72.9692 23.2162C74.2745 23.2004 75.5765 23.0482 76.7375 22.3405C77.8258 21.6767 78.3247 20.7142 78.2777 19.4238C78.2341 18.2247 77.5798 17.4922 76.6011 16.9591C75.3427 16.275 73.9558 15.9538 72.6113 15.512C71.1606 15.0353 69.673 14.669 68.3162 13.9252C65.0322 12.1277 63.5927 8.22941 65.0803 4.92506C66.1765 2.49076 68.1965 1.13048 70.6908 0.491476C73.9032 -0.332355 77.0485 0.0891402 80.1143 1.2522C81.2552 1.68496 81.9476 2.45132 81.772 3.78568C81.7351 4.06292 81.7742 4.34917 81.7619 4.62979C81.7272 5.42658 81.329 5.72748 80.5852 5.47955C79.932 5.26091 79.3056 4.95775 78.6502 4.74925C76.5161 4.06855 74.345 3.91077 72.1415 4.35255C71.7187 4.43708 71.3216 4.5926 70.9324 4.77968C69.0287 5.69593 68.9157 8.54158 70.5722 9.66407C71.2266 10.1081 71.9223 10.4654 72.6683 10.7144C74.4546 11.3106 76.2566 11.8606 78.0339 12.4815C79.9533 13.151 81.5964 14.1968 82.5292 16.1217C84.2048 19.5827 82.7104 23.9262 79.1904 25.8116C77.3225 26.8124 75.4266 27.2418 73.5799 27.2418L73.5766 27.244Z" fill="white"/>
<path id="Vector_5" d="M77.7353 35.8801C75.8685 35.8351 73.929 36.0864 71.9861 36.305C71.7087 36.3366 71.4279 36.3614 71.1506 36.3456C70.607 36.3152 70.4079 35.9297 70.6651 35.4451C70.8027 35.1859 71.032 35.0259 71.2658 34.8681C73.2109 33.5495 75.3864 32.8745 77.6838 32.5668C80.0819 32.2456 82.4756 32.2253 84.8424 32.8282C86.5011 33.2509 86.8758 33.9079 86.7349 35.6446C86.5235 38.2434 85.8546 40.7037 84.7585 43.0512C83.9106 44.8679 82.8022 46.5054 81.3145 47.8601C81.1501 48.01 80.9656 48.1441 80.7743 48.2568C80.507 48.4134 80.2106 48.5002 79.9354 48.2861C79.6435 48.0584 79.7151 47.7519 79.8247 47.4622C80.2352 46.3747 80.668 45.295 81.0651 44.2019C81.725 42.3851 82.3357 40.5515 82.5684 38.6176C82.6064 38.3032 82.6198 37.9797 82.5997 37.6642C82.5483 36.882 82.1378 36.3918 81.3828 36.1698C80.2162 35.826 79.0227 35.8801 77.7375 35.8801H77.7353Z" fill="white"/>
</g>
</g>
</svg>
