<svg width="199" height="42" viewBox="0 0 199 42" fill="none" xmlns="http://www.w3.org/2000/svg">
<g id="wbMs6t">
<g id="Group">
<path id="Vector" d="M40.3702 39.7581C40.7037 39.0633 40.5731 38.5046 40.5731 37.9682C40.5842 26.3427 40.5814 14.7143 40.5814 3.08876C40.5814 0.92373 40.612 0.890379 42.727 0.8876C52.9629 0.8876 63.2017 0.88482 73.4376 0.8876C75.372 0.8876 75.4053 0.926509 75.4137 2.79972C75.4164 3.95866 75.3775 5.1176 75.4248 6.27377C75.4637 7.28819 75.0385 7.67451 74.0296 7.66339C71.1114 7.62726 68.1932 7.65227 65.275 7.65227C59.9944 7.65227 54.7139 7.68562 49.4333 7.63004C48.2077 7.61614 47.8047 8.01913 47.8436 9.2281C47.9186 11.496 47.9131 13.7694 47.8436 16.0345C47.8074 17.2101 48.266 17.538 49.3888 17.5325C55.5504 17.4908 61.7092 17.513 67.8708 17.513C69.3271 17.513 70.0562 18.2643 70.0581 19.767C70.0581 20.7397 70.0136 21.7152 70.0636 22.6852C70.1248 23.883 69.6161 24.3138 68.4211 24.3055C63.0016 24.2666 57.582 24.2888 52.1625 24.2888C49.2943 24.2888 47.8603 25.7146 47.8603 28.5661C47.8603 30.0029 47.9242 31.4426 47.8408 32.8739C47.7713 34.0884 48.2021 34.472 49.4277 34.4664C57.3486 34.4191 65.2694 34.4414 73.1903 34.4442C74.6707 34.4442 75.4109 35.1732 75.4109 36.6314C75.4109 37.6042 75.347 38.5824 75.4248 39.5496C75.5248 40.7975 74.9217 41.1894 73.7934 41.1838C62.5402 41.1227 51.2843 41.3283 40.0311 41.0754C38.0412 41.031 36.0457 40.9782 34.0585 41.0699C32.7523 41.131 31.9408 40.6252 31.1459 39.6302C23.603 30.1864 16.0157 20.7786 8.4395 11.3598C8.26996 11.1486 8.08931 10.9457 7.85586 10.6677C7.36115 11.1875 7.5557 11.76 7.5557 12.2603C7.53902 21.2011 7.54458 30.1391 7.53902 39.0799C7.53902 41.031 7.43619 41.1421 5.52963 41.1783C4.32622 41.2005 3.12003 41.1588 1.91662 41.1755C0.724323 41.1894 0.196267 40.7364 0.226839 39.4384C0.304657 36.1061 0.251852 32.7683 0.251852 29.4332C0.251852 20.5396 0.251852 11.646 0.251852 2.75247C0.25741 0.954301 0.318553 0.898717 2.14729 0.890379C3.9538 0.882041 5.76309 0.940405 7.56681 0.868145C8.65628 0.823677 9.3622 1.23223 10.032 2.06878C18.5448 12.6938 27.0854 23.2966 35.6233 33.905C37.1768 35.8366 38.7443 37.757 40.3702 39.7608V39.7581Z" fill="white"/>
<path id="Vector_2" d="M88.7817 0.912585C91.447 0.0676962 93.3647 1.69633 95.1434 4.16986C97.5169 7.47159 100.207 10.5454 102.767 13.7138C103.954 15.184 103.965 15.1784 105.185 13.661C108.289 9.80338 111.41 5.95969 114.481 2.07431C115.115 1.27389 115.79 0.882014 116.824 0.909806C118.906 0.965391 120.99 0.920923 123.072 0.93204C123.478 0.93204 123.995 0.815312 124.22 1.22386C124.476 1.68521 123.967 1.96036 123.725 2.2633C119.303 7.79121 114.868 13.3108 110.438 18.8331C110.149 19.1944 109.896 19.5919 109.568 19.9143C108.801 20.6758 108.84 21.3178 109.54 22.1766C114.07 27.735 118.556 33.3324 123.036 38.9354C123.511 39.5274 124.514 40.1638 124.2 40.8225C123.822 41.6118 122.688 41.1532 121.888 41.1782C120.223 41.231 118.556 41.1699 116.891 41.2005C115.893 41.2171 115.168 40.8892 114.518 40.0749C104.534 27.6155 94.5237 15.1812 84.5184 2.73855C84.3433 2.52177 84.1738 2.30221 84.0098 2.07709C83.8236 1.82418 83.479 1.58238 83.6318 1.24332C83.8097 0.843104 84.2599 0.915365 84.6184 0.912585C85.8219 0.901469 87.0253 0.907027 88.7817 0.907027V0.912585Z" fill="white"/>
<path id="Vector_3" d="M148.997 0.887539C154.183 0.887539 159.369 0.926449 164.552 0.862526C165.942 0.845851 166.489 1.27385 166.364 2.69405C166.259 3.88912 166.289 5.10365 166.376 6.3015C166.451 7.33816 166.092 7.68556 165.053 7.67167C161.534 7.62442 158.013 7.71335 154.497 7.62442C153.11 7.58829 152.671 7.9746 152.679 9.40591C152.738 19.3139 152.71 29.2219 152.707 39.1299C152.707 40.4917 152.005 41.1754 150.601 41.181C149.581 41.1838 148.563 41.1865 147.543 41.181C145.609 41.1699 145.584 41.1504 145.584 39.2605C145.581 32.3624 145.584 25.4616 145.584 18.5635C145.584 15.4619 145.523 12.3575 145.612 9.25861C145.648 7.93847 145.173 7.60496 143.93 7.6272C140.367 7.6939 136.799 7.61052 133.236 7.67167C132.005 7.6939 131.571 7.24366 131.654 6.04859C131.73 4.9897 131.666 3.91969 131.671 2.85524C131.677 0.893098 131.679 0.887539 133.719 0.88476C137.238 0.879201 140.756 0.88476 144.275 0.88476C145.848 0.88476 147.424 0.88476 148.997 0.88476V0.887539Z" fill="white"/>
<path id="Vector_4" d="M88.0478 41.2088C86.9389 41.2088 85.8272 41.2199 84.7183 41.2033C84.3153 41.1977 83.8011 41.3117 83.601 40.8586C83.437 40.4834 83.8095 40.1833 84.0374 39.9026C87.1696 36.0116 90.3073 32.1235 93.4423 28.2381C94.4011 27.0514 95.385 25.8813 96.3133 24.6723C96.8358 23.9914 97.2638 23.9025 97.8252 24.6195C98.9397 26.0369 100.079 27.4377 101.23 28.8273C101.655 29.3387 101.669 29.7611 101.235 30.2947C98.495 33.6687 95.7574 37.0483 93.0643 40.4612C92.439 41.2561 91.6553 41.2227 90.8243 41.2227C89.8988 41.2227 88.9733 41.2227 88.0478 41.2227V41.2172V41.2088Z" fill="white"/>
<path id="Vector_5" d="M191.683 40.9809C189.157 40.8503 186.775 40.3611 185.502 37.8098C185.144 37.0927 184.496 36.1561 185.572 35.5086C186.505 34.9444 188.02 35.4697 188.529 36.3729C189.56 38.2072 192.775 38.6324 194.226 37.1261C195.143 36.1756 194.904 34.9277 193.629 34.2968C192.417 33.6965 191.061 33.5381 189.777 33.1601C188.054 32.6515 186.428 31.9567 185.697 30.1307C184.838 27.9824 185.791 25.5089 188.031 24.3833C190.541 23.1243 193.115 23.127 195.621 24.4861C196.283 24.8446 196.866 25.3365 197.217 25.9952C197.631 26.7706 198.395 27.6183 197.62 28.5049C197.019 29.1914 195.035 28.6216 194.412 27.7072C193.506 26.376 190.78 26.0175 189.546 27.068C188.579 27.8907 188.618 29.0163 189.677 29.7389C190.655 30.4087 191.825 30.5782 192.945 30.8394C193.946 31.0729 194.904 31.3981 195.791 31.9094C197.303 32.7794 198.234 34.0383 198.226 35.8337C198.217 37.7069 197.342 39.0938 195.708 40.0137C194.46 40.7169 193.092 40.8947 191.678 40.9837L191.683 40.9809Z" fill="white"/>
<path id="Vector_6" d="M182.651 30.4782C182.651 32.2374 182.712 33.9967 182.634 35.7532C182.539 37.9071 181.603 39.6107 179.516 40.4278C177.312 41.2894 175.158 41.1393 173.204 39.6941C172.843 39.4273 172.509 39.0521 172.309 38.6519C171.895 37.8209 171.147 36.8732 172.145 36.0505C172.951 35.3891 174.677 36.0144 175.252 37.0233C175.725 37.8543 176.461 38.1266 177.359 38.0488C178.309 37.9682 178.912 37.4124 179.082 36.5063C179.218 35.7865 179.215 35.0361 179.221 34.2996C179.235 31.2925 179.268 28.2826 179.21 25.2754C179.185 24.0692 179.61 23.6384 180.816 23.6496C182.031 23.6607 182.756 23.9025 182.684 25.3366C182.598 27.043 182.664 28.7606 182.664 30.4726C182.662 30.4726 182.656 30.4726 182.653 30.4726L182.651 30.4782Z" fill="white"/>
<path id="Vector_7" d="M169.658 38.9632C169.627 40.0415 168.746 40.8781 167.685 40.8336C166.609 40.7919 165.8 39.922 165.82 38.8409C165.842 37.7848 166.728 36.951 167.804 36.976C168.877 37.001 169.688 37.8709 169.658 38.9632Z" fill="white"/>
</g>
</g>
</svg>
