<svg width="178" height="48" viewBox="0 0 178 48" fill="none" xmlns="http://www.w3.org/2000/svg">
<g id="RtAUFk.tif">
<g id="Group">
<path id="Vector" d="M0.00240554 26.7034C0.522003 25.9665 0.404131 25.0668 0.635064 24.2533C0.959812 23.1097 1.41446 22.021 1.80175 20.9037C2.26121 19.5782 3.18013 19.1619 4.49115 19.0303C6.30012 18.8508 8.0706 18.8891 9.83146 19.3437C9.95414 21.3439 9.91565 23.3298 10.262 25.3468C11.1713 30.6321 13.5528 35.1086 17.1419 39.0134C18.5227 40.5159 18.5227 40.4633 17.0986 42.0305C15.689 43.5833 13.9666 44.6934 12.2105 45.7821C11.9435 45.7055 11.6645 45.6601 11.4095 45.55C5.8166 43.1646 2.38871 38.9392 0.702419 33.2161C0.392104 32.1657 0.46427 31.0412 0 30.0291V26.6986L0.00240554 26.7034Z" fill="white"/>
<path id="Vector_2" d="M12.2106 45.7821C13.9667 44.6935 15.689 43.5833 17.0987 42.0305C18.5228 40.4634 18.5228 40.516 17.142 39.0134C13.5505 35.1087 11.1714 30.6321 10.2621 25.3468C9.91574 23.3299 9.95423 21.344 9.83154 19.3438L9.88928 19.2816L9.96866 19.3127C10.991 19.5232 11.9701 19.8869 12.8721 20.3869C20.0671 24.373 22.516 32.3955 18.7441 39.6259C18.4891 40.114 18.5131 40.4299 18.9101 40.7529C21.229 42.6311 23.6971 44.27 26.5116 45.3419C24.8951 46.299 23.0644 46.5621 21.2627 46.9139C21.0462 46.9569 20.7768 46.8732 20.6589 47.1555H16.8172C16.6368 46.7775 16.2616 46.9258 15.9729 46.866C14.6907 46.598 13.3845 46.4258 12.213 45.7821H12.2106Z" fill="#E2E2E2"/>
<path id="Vector_3" d="M26.5112 45.3443C23.6943 44.2724 21.2286 42.6334 18.9097 40.7552C18.5103 40.4322 18.4887 40.1164 18.7437 39.6283C22.5156 32.3954 20.0667 24.3754 12.8718 20.3893C11.9697 19.8892 10.993 19.5256 9.96826 19.315C10.5143 12.063 13.5333 6.03122 19.0588 1.22924C19.5351 0.815322 19.8069 0.56649 20.3554 1.22685C24.5314 6.2322 28.8181 11.1442 32.8065 16.3003C35.7509 20.107 37.5406 24.3323 37.4732 29.2204C37.3818 36.0083 32.4962 43.2148 26.5112 45.3443Z" fill="white"/>
<path id="Vector_4" d="M110.413 22.9853C112.97 20.0376 115.909 19.3628 119.159 20.5663C122.739 21.8918 124.471 24.7534 124.836 28.4093C125.3 33.0606 122.589 37.3242 118.498 38.4057C115.426 39.2168 112.756 38.4535 110.61 35.9341C110.545 36.1375 110.504 36.2356 110.482 36.336C110.355 36.9174 110.824 37.8769 110.189 38.0324C109.174 38.2788 108.048 38.1233 106.975 38.0563C106.633 38.0348 106.737 37.6065 106.737 37.3505C106.732 29.4286 106.737 21.509 106.722 13.5871C106.722 12.9722 106.937 12.7855 107.557 12.7544C110.701 12.5965 110.713 12.5798 110.699 15.6639C110.687 17.9967 110.826 20.3318 110.415 22.9853H110.413ZM110.478 29.3831C110.485 32.3236 112.349 34.7139 114.896 35.0464C117.639 35.4053 120.008 33.7975 120.742 31.0771C121.541 28.1198 120.177 25.0764 117.579 24.0117C114.052 22.5666 110.468 25.2774 110.478 29.3831Z" fill="white"/>
<path id="Vector_5" d="M97.5067 30.1727C95.5871 30.1727 93.665 30.2134 91.7478 30.156C90.8121 30.1273 90.6461 30.4766 90.8842 31.2733C91.4616 33.2089 92.6619 34.5512 94.6657 35.0225C96.7826 35.5202 98.7167 35.0465 100.018 33.2735C100.675 32.3787 101.18 32.4481 101.93 32.9099C101.964 32.9314 102 32.9481 102.036 32.9649C104.322 34.0631 104.358 34.355 102.419 36.1566C99.537 38.8364 95.0554 39.4872 91.6107 37.7262C88.2622 36.0155 86.3474 32.1801 86.8189 28.2467C87.7715 20.2745 96.0898 18.0589 101.125 21.7364C103.711 23.6241 104.355 26.4163 104.427 29.4119C104.442 30.0674 104.067 30.1823 103.504 30.1775C101.505 30.1584 99.5033 30.1703 97.5043 30.1703L97.5067 30.1727ZM95.7097 27.1772C97.028 27.1772 98.3438 27.1461 99.6597 27.1891C100.386 27.213 100.422 26.9642 100.23 26.3589C99.6308 24.4759 97.9108 23.3514 95.563 23.3825C93.6049 23.4088 91.6011 24.885 91.1079 26.6053C90.942 27.1843 91.2354 27.1796 91.6372 27.1796C92.9939 27.1748 94.3506 27.1796 95.7073 27.1796L95.7097 27.1772Z" fill="white"/>
<path id="Vector_6" d="M171.015 30.1727C169.095 30.1727 167.173 30.2086 165.256 30.156C164.354 30.132 164.128 30.4168 164.378 31.2566C164.958 33.1898 166.141 34.5464 168.148 35.0178C170.313 35.5274 172.247 35.013 173.589 33.197C174.164 32.4194 174.616 32.4074 175.304 32.8596C175.369 32.9027 175.451 32.9218 175.523 32.9553C177.825 34.0487 177.861 34.3406 175.927 36.1471C173.137 38.7526 168.703 39.4632 165.333 37.8458C161.951 36.2236 159.93 32.5223 160.293 28.6127C160.921 21.8584 167.226 18.1307 173.295 20.9229C176.259 22.2867 178.412 26.323 177.933 29.5195C177.825 30.2349 177.378 30.1679 176.896 30.1679C174.936 30.1679 172.975 30.1679 171.017 30.1679L171.015 30.1727ZM169.086 27.1772C170.402 27.1772 171.722 27.1317 173.036 27.1939C173.902 27.2346 173.935 26.9379 173.69 26.2417C173.038 24.3898 171.282 23.3059 168.941 23.3849C167.039 23.4495 165.1 24.9209 164.611 26.6077C164.441 27.1963 164.739 27.1796 165.136 27.1796C166.452 27.1748 167.77 27.1796 169.086 27.1796V27.1772Z" fill="white"/>
<path id="Vector_7" d="M50.4249 25.4593C50.4249 21.5785 50.4465 17.6976 50.408 13.8192C50.3984 13.0057 50.6077 12.7377 51.4641 12.7473C55.9408 12.788 60.4199 12.7832 64.899 12.7497C65.7121 12.7449 66.0056 12.9459 66.0056 13.8049C66.0056 16.6186 66.0392 16.6186 63.2127 16.6186C60.6532 16.6186 58.0937 16.6473 55.5366 16.6018C54.7308 16.5875 54.4012 16.7765 54.4349 17.6426C54.4975 19.382 54.5023 21.1286 54.4349 22.8681C54.4012 23.7438 54.7284 23.9113 55.5318 23.8993C58.2501 23.8538 60.9708 23.9136 63.6866 23.8634C64.5358 23.849 64.8726 24.0046 64.8581 24.9496C64.8196 27.6581 64.8678 27.6581 62.123 27.6581C60.0446 27.6581 57.959 27.7538 55.8879 27.6222C54.5937 27.5408 54.3916 28.005 54.4253 29.1367C54.5047 31.7877 54.4181 34.4435 54.471 37.0946C54.4878 37.9439 54.2136 38.1449 53.3909 38.1425C50.4273 38.1306 50.4273 38.1593 50.4273 35.202C50.4273 31.9552 50.4273 28.7084 50.4273 25.4617L50.4249 25.4593Z" fill="white"/>
<path id="Vector_8" d="M138.304 35.9006C136.036 38.6306 133.346 39.2575 130.222 38.2287C127.624 37.3745 126.139 35.2714 126.178 32.551C126.212 30.1033 127.884 27.9835 130.397 27.2298C133.058 26.4331 135.68 26.6604 138.259 27.6126C138.838 25.4928 136.887 23.7462 135.22 23.4471C133.407 23.1217 131.67 23.3849 130.368 24.8109C129.798 25.433 129.389 25.4449 128.831 24.9066C128.66 24.7439 128.444 24.6266 128.247 24.4903C127.116 23.7023 127.078 22.8721 128.131 21.9996C130.876 19.7266 136.067 19.3796 139.108 21.2435C141.078 22.4518 142.081 24.2606 142.148 26.4714C142.261 30.1129 142.187 33.7616 142.218 37.4056C142.223 37.9918 142.009 38.1832 141.453 38.1282C141.136 38.0971 140.813 38.1234 140.493 38.1234C139.14 38.1234 138.41 37.3833 138.304 35.903V35.9006ZM134.443 29.7755C133.707 29.7253 132.959 29.8402 132.238 30.0986C131.056 30.5197 130.188 31.6753 130.19 32.7759C130.193 33.9148 130.919 34.7905 132.247 35.257C134.431 36.0251 137.106 34.7474 138.049 32.4864C138.646 31.0532 138.509 30.7661 137.061 30.2086C136.224 29.8856 135.365 29.7612 134.443 29.7779V29.7755Z" fill="white"/>
<path id="Vector_9" d="M152.014 20.04C154.09 20.15 156.348 20.8128 157.972 22.9231C158.559 23.6863 158.641 24.1959 157.558 24.4855C157.214 24.5764 156.866 24.7056 156.56 24.8826C155.701 25.3803 155.119 25.397 154.39 24.4759C153.339 23.1528 150.703 22.9661 149.3 23.8706C148.776 24.2103 148.374 24.6218 148.427 25.3133C148.48 25.9856 148.874 26.4043 149.454 26.6556C150.594 27.1508 151.816 27.3709 153.017 27.6652C154.537 28.0361 156 28.505 157.241 29.5243C159.199 31.1321 159.557 33.9195 158.011 35.8982C154.65 40.1977 146.717 39.456 144.222 34.6253C143.902 34.0081 143.866 33.6276 144.631 33.4219C144.898 33.3501 145.17 33.2496 145.403 33.1036C146.589 32.3619 147.421 32.2949 148.319 33.7257C149.3 35.2881 152.115 35.6877 153.774 34.8407C154.405 34.5201 154.891 34.0846 154.934 33.3118C154.977 32.5318 154.542 32.0413 153.926 31.6896C152.73 31.0077 151.379 30.7924 150.058 30.4981C148.646 30.1847 147.282 29.7636 146.142 28.8209C143.638 26.7513 143.892 23.0571 146.661 21.3679C148.17 20.4467 149.639 20.0495 152.014 20.04Z" fill="white"/>
<path id="Vector_10" d="M79.7512 23.1432C81.1946 21.0257 83.0685 19.9538 85.5654 20.04C86.5758 20.0759 87.2998 20.3534 87.0713 21.5712C87.0569 21.6478 87.0713 21.7292 87.0713 21.8081C87.0521 22.5977 87.3311 23.6217 86.9342 24.117C86.4579 24.7127 85.5077 23.9734 84.7452 23.916C82.6163 23.7605 80.5066 25.2894 80.0086 27.4858C79.8619 28.1366 79.8066 28.8185 79.797 29.4884C79.7705 31.3905 79.7873 33.2903 79.7873 35.1924C79.7873 38.243 79.7873 38.2262 76.701 38.1353C76.0996 38.1186 75.8687 37.9965 75.8711 37.3481C75.8952 32.0006 75.8904 26.6532 75.8759 21.3057C75.8759 20.7554 76.0251 20.5137 76.6192 20.5424C77.4973 20.5855 78.51 20.3008 79.2244 20.6453C80.0832 21.0592 79.2918 22.234 79.7537 23.1408L79.7512 23.1432Z" fill="white"/>
<path id="Vector_11" d="M68.2818 29.4405C68.2818 26.7871 68.3035 24.1337 68.2674 21.4803C68.2578 20.753 68.4863 20.5448 69.22 20.5352C72.263 20.4874 72.263 20.4635 72.263 23.4303C72.263 27.9858 72.2413 32.5414 72.2822 37.0945C72.2894 37.9367 72.0417 38.1497 71.2118 38.1449C68.2818 38.1305 68.2818 38.1616 68.2818 35.2642C68.2818 33.3238 68.2818 31.3833 68.2818 29.4429V29.4405Z" fill="white"/>
<path id="Vector_12" d="M67.6631 14.9796C67.6631 13.4484 68.7672 12.3813 70.3188 12.4052C71.7405 12.4267 72.8951 13.5656 72.9192 14.9701C72.9433 16.3985 71.7188 17.6259 70.2707 17.6306C68.7624 17.6354 67.6631 16.5157 67.6655 14.9796H67.6631Z" fill="white"/>
</g>
</g>
</svg>
