<svg width="191" height="62" viewBox="0 0 191 62" fill="none" xmlns="http://www.w3.org/2000/svg">
<g id="vvBRgo">
<g id="Group">
<path id="Vector" d="M61.6645 31.1477C61.6645 38.9447 61.6645 46.7416 61.6645 54.5386C61.6645 55.339 61.6568 56.1367 61.4347 56.9216C60.637 59.7409 58.1946 61.685 55.272 61.796C54.8718 61.8115 54.4717 61.8063 54.0689 61.8063C38.586 61.8063 23.1031 61.8063 7.61756 61.8063C7.32582 61.8063 7.03407 61.7986 6.74233 61.8063C3.52544 61.8941 0.179453 59.351 0.0348735 55.277C0.0271282 55.0575 0.02971 54.8407 0.02971 54.6212C0.02971 38.8801 0.02971 23.1416 0.02971 7.40049C0.02971 6.59497 0.0736002 5.79979 0.298215 5.02009C1.11147 2.21628 3.51769 0.334162 6.49706 0.176674C6.78881 0.161183 7.08055 0.168929 7.37229 0.168929C23.0385 0.168929 38.7022 0.168929 54.3684 0.174092C54.9132 0.174092 55.4631 0.194746 56.0001 0.2722C59.1653 0.729174 61.5148 3.3471 61.6516 6.55367C61.6697 6.98999 61.6645 7.42889 61.6645 7.86521C61.6645 15.626 61.6645 23.3869 61.6645 31.1477ZM49.4708 45.1383C49.8554 44.9938 50.2608 44.8414 50.6661 44.6865C50.8727 44.6065 51.0973 44.5161 51.1644 44.2941C51.2909 43.8862 51.6214 43.7597 51.9648 43.628C52.1687 43.5506 52.3753 43.4757 52.5741 43.3853C53.2608 43.0678 53.3847 42.7321 53.0155 42.1022C52.7754 41.6943 52.5121 41.2992 52.2384 40.9146C51.9493 40.5092 51.7763 40.4576 51.3064 40.6073C50.963 40.7158 50.63 40.9946 50.2789 40.912C49.7212 40.7803 49.29 41.0488 48.8176 41.214C48.6084 41.2863 48.4019 41.3948 48.3632 41.6375C48.3115 41.955 48.1076 42.0428 47.8262 42.0583C44.0542 42.2752 40.7005 41.2631 37.8889 38.6632C36.7839 37.6409 35.8854 36.4558 35.129 35.1572C34.9818 34.9068 34.8398 34.6512 34.6875 34.4033C34.5739 34.22 34.4009 34.1864 34.215 34.2691C33.9827 34.3723 33.7581 34.4937 33.5309 34.6099C30.3527 36.2286 27.1745 37.8474 23.9989 39.4688C23.7408 39.6004 23.4903 39.7476 23.2425 39.8999C23.134 39.967 23.147 40.091 23.196 40.1865C23.2451 40.282 23.3199 40.3672 23.3948 40.4447C25.8552 43.0187 28.7262 44.9421 32.147 45.9981C35.7486 47.1082 39.3889 47.0928 43.0499 46.3389C44.7642 45.9878 46.4346 45.4817 48.0714 44.8647C48.4561 44.7201 48.8176 44.5497 49.1377 44.9834C49.1919 45.0583 49.3288 45.0712 49.4708 45.1306V45.1383ZM31.8605 24.8946C31.8475 24.7294 31.8398 24.621 31.8295 24.5125C31.5248 21.6881 31.2202 18.861 31.1763 16.0159C31.1763 15.9075 31.1711 15.7964 31.153 15.688C31.0911 15.3291 30.789 15.1278 30.4276 15.2284C30.1823 15.2956 29.9474 15.3988 29.715 15.4995C24.6263 17.6786 19.5376 19.8576 14.4489 22.0392C14.214 22.1399 13.9765 22.238 13.7622 22.3722C13.2458 22.7027 13.109 23.1338 13.3878 23.6812C13.7493 24.3963 14.152 25.0883 14.5341 25.7931C14.6658 26.0332 14.8517 26.2191 15.1305 26.2062C15.5823 26.1829 15.652 26.4798 15.745 26.8155C16.0651 27.9747 16.4111 29.1262 16.8913 30.2312C17.0514 30.5978 17.2218 30.9618 17.4102 31.3155C17.5755 31.6253 17.7252 31.6795 18.0324 31.5608C18.3035 31.4575 18.5695 31.3336 18.8354 31.2148C21.3294 30.0995 23.8234 28.9842 26.3148 27.8688C28.011 27.1098 29.7021 26.3456 31.4035 25.5969C31.7546 25.442 31.9224 25.2225 31.8605 24.8946ZM21.7089 38.2605C21.9774 38.1314 22.2433 38.0126 22.5015 37.881C25.9069 36.146 29.3148 34.4085 32.7202 32.6709C32.9138 32.5728 33.1126 32.4773 33.3011 32.3663C33.598 32.1933 33.629 32.0952 33.5257 31.7338C33.1823 30.5436 32.8389 29.3559 32.493 28.1683C32.4517 28.0289 32.4 27.8921 32.3329 27.763C32.2813 27.6649 32.1909 27.5874 32.067 27.6339C31.8295 27.7191 31.5894 27.8069 31.357 27.9101C27.4353 29.6632 23.5136 31.4188 19.5918 33.1744C19.3595 33.2777 19.1323 33.3938 18.9077 33.5126C18.714 33.6159 18.6934 33.7863 18.7708 33.9747C18.8121 34.0754 18.8638 34.1735 18.9154 34.2691C19.5789 35.4851 20.3225 36.652 21.1461 37.7674C21.2313 37.8835 21.3191 38.0049 21.4249 38.103C21.4998 38.1727 21.6108 38.2063 21.7115 38.2579L21.7089 38.2605Z" fill="#FEFFFF"/>
<path id="Vector_2" d="M134.36 34.4859C134.36 38.418 134.36 42.3526 134.36 46.2846C134.36 47.5497 134.352 47.5032 133.172 47.5007C132.444 47.5007 131.713 47.48 130.988 47.5058C130.523 47.5239 130.242 47.3328 130.033 46.9352C129.744 46.3879 129.418 45.8612 129.106 45.3268C128.977 45.1073 128.845 44.8879 128.701 44.6788C128.584 44.511 128.409 44.4619 128.223 44.5497C127.96 44.6736 127.701 44.8104 127.446 44.9473C125.972 45.7399 124.485 46.5118 123.031 47.3432C122.427 47.6865 121.82 47.826 121.154 47.7304C120.578 47.6478 119.997 47.5729 119.435 47.4335C117.359 46.9172 115.882 45.6702 114.994 43.7183C114.23 42.0402 113.827 40.2743 113.659 38.4515C113.409 35.7252 113.432 32.9936 113.677 30.2673C113.809 28.8163 114.046 27.386 114.62 26.0228C115.737 23.3636 117.769 22.0133 120.581 21.75C121.342 21.6803 122.107 21.6596 122.871 21.6441C123.744 21.6261 124.619 21.6312 125.494 21.6416C127.9 21.6725 130.296 21.5383 132.695 21.3731C134.528 21.2465 134.357 21.0839 134.36 22.9015C134.365 26.7612 134.36 30.6236 134.36 34.4833V34.4859ZM128.401 33.2157C128.401 31.8318 128.401 30.448 128.401 29.0642C128.401 28.5556 128.406 28.0444 128.383 27.5358C128.365 27.133 128.246 27.0065 127.851 27.0039C126.359 26.9962 124.861 26.9523 123.374 27.0323C121.908 27.1098 120.831 27.8636 120.274 29.2526C120.07 29.7561 119.902 30.2828 119.793 30.8146C119.326 33.0866 119.409 35.3792 119.649 37.6667C119.716 38.3147 119.873 38.9575 120.165 39.5539C120.984 41.2373 123.034 41.9395 124.696 41.0953C125.639 40.6176 126.576 40.1323 127.513 39.6495C127.676 39.5668 127.836 39.4816 127.996 39.3939C128.238 39.2648 128.386 39.0737 128.388 38.7871C128.393 38.5316 128.398 38.2785 128.401 38.0229C128.401 36.4197 128.401 34.819 128.401 33.2157Z" fill="#F6F7F8"/>
<path id="Vector_3" d="M174.235 34.4059C174.463 34.078 174.692 33.7553 174.914 33.4249C177.129 30.1279 179.345 26.831 181.56 23.5341C181.702 23.3224 181.849 23.1132 181.986 22.899C182.133 22.6692 182.332 22.5246 182.611 22.5246C184.578 22.5298 186.545 22.5375 188.513 22.5504C188.575 22.5504 188.634 22.6175 188.735 22.6795C188.642 23.0693 188.352 23.3508 188.125 23.6632C185.83 26.8155 183.522 29.9575 181.232 33.1125C180.346 34.3285 180.328 34.0135 181.232 35.214C184.02 38.9086 186.816 42.5953 189.607 46.2873C189.806 46.548 190.002 46.8114 190.188 47.0825C190.317 47.2709 190.237 47.4594 190.033 47.4826C189.961 47.4904 189.889 47.4956 189.816 47.4956C187.849 47.4956 185.882 47.4904 183.912 47.5007C183.545 47.5007 183.284 47.3716 183.08 47.0799C182.957 46.8992 182.82 46.7288 182.691 46.5532C180.886 44.1263 179.086 41.6943 177.277 39.2726C177.065 38.9886 176.923 38.6246 176.531 38.5187C176.28 38.6401 176.161 38.8724 176.014 39.079C175.506 39.7915 175.025 40.5247 174.496 41.2167C174.124 41.7046 173.954 42.2132 173.972 42.8303C174.006 43.9224 173.982 45.017 173.982 46.1091C173.982 46.3647 173.987 46.6203 173.977 46.8733C173.954 47.3742 173.874 47.4826 173.417 47.4852C171.814 47.4981 170.21 47.4955 168.607 47.4852C168.194 47.4826 168.091 47.3665 168.065 46.9689C168.047 46.6771 168.052 46.3854 168.052 46.0936C168.052 35.5961 168.052 25.1012 168.052 14.6037C168.052 14.312 168.049 14.0202 168.065 13.7285C168.088 13.3283 168.181 13.2276 168.615 13.225C170.218 13.2147 171.821 13.2147 173.425 13.225C173.853 13.2276 173.946 13.3335 173.969 13.7362C173.987 14.0641 173.982 14.392 173.982 14.7199C173.982 20.88 173.982 27.0375 173.982 33.1977C173.982 33.5849 174.003 33.9748 174.016 34.362C174.088 34.375 174.16 34.3879 174.233 34.4008L174.235 34.4059Z" fill="#F6F7F8"/>
<path id="Vector_4" d="M73.3862 33.5385C73.3862 29.6425 73.3862 25.7441 73.3862 21.8482C73.3862 20.9006 73.425 19.9583 73.6418 19.0263C74.0885 17.1054 75.227 15.8817 77.153 15.3963C78.1832 15.1381 79.234 15.0271 80.2899 15.0245C84.7693 15.0142 89.2487 15.0194 93.7281 15.0194C93.9449 15.0194 94.167 15.0194 94.3813 15.0478C94.5826 15.071 94.7014 15.2156 94.7324 15.4092C94.7582 15.5873 94.7634 15.7707 94.7634 15.954C94.7634 17.2294 94.7634 18.5022 94.7634 19.7776C94.7634 19.9583 94.7479 20.1416 94.7272 20.3223C94.704 20.5315 94.5671 20.6476 94.3683 20.6605C94.0405 20.6812 93.7126 20.6838 93.3873 20.6838C90.2194 20.6838 87.0516 20.6864 83.8837 20.6838C83.1892 20.6838 82.5025 20.7148 81.8209 20.8568C80.7908 21.071 80.1273 21.6623 79.8975 22.7001C79.8278 23.0177 79.7606 23.3456 79.7581 23.6683C79.74 25.0883 79.7348 26.5083 79.7452 27.9282C79.7503 28.5866 79.8278 28.6434 80.5274 28.6692C80.8192 28.6795 81.1109 28.6744 81.4001 28.6744C84.3485 28.6744 87.2994 28.6744 90.2478 28.6744C90.5757 28.6744 90.9036 28.6873 91.2289 28.7079C91.4354 28.7209 91.5542 28.8422 91.5619 29.0565C91.5645 29.1288 91.5723 29.2036 91.5645 29.2734C91.438 30.7966 91.3167 32.3224 91.1773 33.8431C91.1437 34.2123 91.0456 34.2923 90.7048 34.313C90.3769 34.3311 90.049 34.3311 89.7211 34.3311C86.8089 34.3311 83.8941 34.3311 80.9818 34.3311C79.6574 34.3311 79.7348 34.3052 79.7348 35.591C79.7348 38.9421 79.7348 42.2907 79.7348 45.6418C79.7348 45.8974 79.7348 46.1504 79.7348 46.406C79.7245 47.4826 79.7245 47.4878 78.6453 47.4904C77.2615 47.4955 75.8776 47.4904 74.4938 47.4904C74.2744 47.4904 74.0575 47.4852 73.838 47.4749C73.5876 47.462 73.425 47.3303 73.412 47.0747C73.394 46.7468 73.3914 46.4189 73.3914 46.0911C73.3914 41.9034 73.3914 37.7158 73.3914 33.5255L73.3862 33.5385Z" fill="#F6F7F8"/>
<path id="Vector_5" d="M143.993 39.5359C144.685 39.5359 145.376 39.523 146.068 39.541C146.474 39.5514 146.567 39.6469 146.621 40.0626C146.673 40.4602 146.716 40.8552 146.851 41.2373C147.096 41.9318 147.548 42.4249 148.227 42.7037C148.495 42.8147 148.777 42.8974 149.058 42.9645C150.168 43.233 151.302 43.2562 152.427 43.1349C154.469 42.9128 155.29 41.8078 155.04 39.776C154.88 38.4696 154.209 37.6176 152.944 37.2794C152.241 37.0935 151.521 36.9748 150.803 36.8508C149.763 36.6675 148.72 36.5126 147.679 36.3319C147.284 36.2622 146.895 36.1692 146.51 36.0582C143.995 35.3405 142.467 33.6856 141.935 31.1374C141.682 29.9213 141.61 28.6898 141.811 27.4454C142.1 25.6666 142.937 24.2337 144.359 23.139C145.568 22.2096 146.938 21.6338 148.423 21.3524C150.599 20.9367 152.773 21.0013 154.926 21.5306C155.42 21.6519 155.908 21.8171 156.372 22.0185C158.254 22.8344 159.504 24.2208 160.093 26.1958C160.387 27.1847 160.503 28.1915 160.464 29.2191C160.449 29.6373 160.343 29.7716 159.961 29.7742C158.577 29.7871 157.193 29.7793 155.809 29.7793C155.5 29.7793 155.35 29.6064 155.298 29.3249C155.247 29.0384 155.213 28.7466 155.146 28.4652C154.888 27.3834 154.232 26.6631 153.155 26.3507C152.012 26.0177 150.858 26.0048 149.698 26.2604C149.556 26.2914 149.414 26.3275 149.278 26.3791C147.153 27.1769 147.142 29.0461 147.979 30.4764C148.289 31.0057 148.81 31.2819 149.407 31.3981C150.442 31.5995 151.48 31.7931 152.518 31.9868C153.341 32.1391 154.167 32.2811 154.988 32.4386C155.345 32.5057 155.704 32.5831 156.05 32.6864C158.363 33.3783 159.876 34.8706 160.506 37.2123C160.957 38.8879 161.063 40.5892 160.676 42.2932C160.302 43.9326 159.39 45.2055 157.988 46.1323C156.656 47.0127 155.177 47.5316 153.605 47.7072C151.237 47.9731 148.877 47.9034 146.549 47.3328C145.911 47.1754 145.294 46.9559 144.703 46.6642C143.301 45.9723 142.314 44.8931 141.757 43.4344C141.349 42.3681 141.176 41.2553 141.202 40.1142C141.212 39.6521 141.308 39.5488 141.798 39.5359C142.526 39.5178 143.254 39.5307 143.985 39.5307L143.993 39.5359Z" fill="#F6F7F8"/>
<path id="Vector_6" d="M101.84 30.3809C101.84 25.0985 101.84 19.8162 101.84 14.5339C101.84 13.1165 101.765 13.2224 103.133 13.2198C104.297 13.2172 105.464 13.2198 106.631 13.2198C106.887 13.2198 107.14 13.2275 107.396 13.2456C107.602 13.2611 107.731 13.385 107.749 13.589C107.773 13.842 107.778 14.0976 107.778 14.3532C107.778 25.0262 107.778 35.7019 107.778 46.375C107.778 47.5368 107.793 47.5135 106.634 47.5161C105.25 47.5187 103.866 47.5368 102.482 47.5316C101.935 47.5316 101.871 47.449 101.847 46.8862C101.834 46.5583 101.842 46.2304 101.842 45.9025C101.842 40.7286 101.842 35.5573 101.842 30.3834L101.84 30.3809Z" fill="#F6F7F8"/>
</g>
</g>
</svg>
