<svg width="188" height="42" viewBox="0 0 188 42" fill="none" xmlns="http://www.w3.org/2000/svg">
<g id="0vBpNs.tif">
<g id="Group">
<path id="Vector" d="M0.167358 2.21252C12.7926 2.21252 25.4178 2.21252 38.043 2.21252C38.1085 2.21252 38.1675 2.21252 38.233 2.21252C38.3509 2.22563 38.5082 2.17977 38.5606 2.3239C38.613 2.46804 38.4689 2.54011 38.3837 2.62528C37.1585 3.85046 35.9399 5.07564 34.7147 6.29426C29.7943 11.2081 24.8674 16.1219 19.9471 21.0291C19.5147 21.4615 19.5147 21.4681 19.9471 21.9005C25.9812 27.9281 32.0219 33.9492 38.0495 39.9833C38.2395 40.1733 38.6261 40.3568 38.5344 40.6057C38.4295 40.8744 38.0299 40.7237 37.7613 40.7237C25.2278 40.7237 12.6943 40.7237 0.167358 40.7237L0.167358 2.21252Z" fill="white"/>
<path id="Vector_2" d="M142.616 0.71875C142.622 0.934958 142.642 1.15117 142.642 1.37392C142.642 14.2284 142.642 27.0764 142.642 39.9309C142.642 40.0685 142.642 40.2127 142.642 40.3503C142.642 40.6254 142.511 40.7434 142.242 40.7434C140.447 40.7434 138.652 40.7434 136.857 40.7434C136.588 40.7434 136.45 40.6189 136.444 40.3503C136.444 40.1603 136.444 39.9768 136.444 39.7868C136.444 27.0109 136.444 14.2416 136.444 1.46565C136.444 1.21668 136.444 0.967716 136.444 0.71875C138.501 0.71875 140.565 0.71875 142.622 0.71875L142.616 0.71875Z" fill="white"/>
<path id="Vector_3" d="M60.9677 22.4639C60.8235 22.726 60.8694 22.9095 60.8694 23.0929C60.8694 28.7339 60.8694 34.3685 60.8694 40.0095C60.8694 40.4987 60.6292 40.7433 60.1487 40.7433C58.478 40.7433 56.8073 40.7302 55.1366 40.7498C54.6846 40.7498 54.5404 40.5926 54.547 40.1536C54.5535 27.7053 54.5535 15.257 54.5535 2.81525C54.5535 2.2387 54.5863 2.20594 55.1628 2.20594C56.8466 2.20594 58.537 2.20594 60.2208 2.20594C60.8563 2.20594 60.8694 2.22559 60.8694 2.86766C60.8694 8.21389 60.8694 13.5536 60.8694 18.8998C60.8694 19.0243 60.8694 19.1487 60.8694 19.2732C60.876 19.3781 60.8235 19.5156 60.948 19.5681C61.0791 19.6205 61.1315 19.4763 61.197 19.4043C62.2846 18.2446 63.3722 17.0849 64.4598 15.9253C65.9798 14.2939 67.4932 12.6625 69.0132 11.0311C71.6929 8.16147 74.3791 5.29181 77.0522 2.41559C77.2619 2.18628 77.4846 2.09456 77.786 2.10111C80.0464 2.10766 82.3133 2.10111 84.5736 2.10111C84.7374 2.10111 84.9536 2.02904 85.0453 2.21249C85.1436 2.40904 84.9209 2.50732 84.816 2.62525C82.785 4.80043 80.7408 6.96906 78.7098 9.13768C75.8008 12.2432 72.8984 15.3553 69.996 18.4608C69.3605 19.1422 68.7184 19.8301 68.0632 20.4919C67.8142 20.7408 67.847 20.8981 68.0632 21.147C70.9525 24.377 73.8222 27.6202 76.705 30.8502C78.9784 33.3988 81.2584 35.9343 83.5384 38.4698C84.0822 39.0726 84.6195 39.6754 85.1502 40.2847C85.2353 40.3829 85.3795 40.4878 85.2943 40.645C85.2222 40.7761 85.0715 40.7367 84.9536 40.7367C82.5819 40.7367 80.2101 40.7367 77.8384 40.7367C77.5829 40.7367 77.3929 40.6516 77.2226 40.4616C74.4643 37.3888 71.6994 34.3226 68.9346 31.2564C66.8118 28.9108 64.6825 26.5784 62.5532 24.2329C62.0291 23.6563 61.518 23.0732 60.9677 22.4508V22.4639Z" fill="white"/>
<path id="Vector_4" d="M98.6399 41.2281C95.2265 41.4509 92.1996 40.3502 89.4937 38.3716C86.5847 36.2423 84.9795 33.2874 84.344 29.7691C83.9051 27.3122 84.0099 24.875 84.5406 22.4443C85.8313 16.5739 91.3413 12.3218 96.9561 11.9025C100.533 11.6339 103.849 12.3284 106.862 14.3005C109.182 15.8205 110.748 17.9629 111.802 20.4919C112.7 22.6539 113.113 24.9077 113.021 27.2402C112.877 30.9288 111.75 34.2833 109.182 36.9826C106.646 39.6426 103.514 41.1757 99.7603 41.2281C99.3868 41.2281 99.0134 41.2281 98.6334 41.2281H98.6399ZM106.463 26.264C106.495 25.5498 106.378 24.4884 106.096 23.4729C105.251 20.4264 102.355 17.3536 98.2141 17.5305C94.9906 17.6681 92.1996 19.555 91.0334 22.5557C90.4044 24.174 90.2013 25.8381 90.2799 27.5481C90.3913 29.9395 91.2037 31.9902 92.9203 33.746C95.5148 36.4061 100.841 36.7467 103.803 33.6871C105.709 31.7216 106.463 29.304 106.463 26.264Z" fill="white"/>
<path id="Vector_5" d="M168.291 16.3839C168.56 16.0433 168.822 15.7026 169.091 15.3619C170.735 13.3046 172.976 12.3219 175.498 11.9484C178.374 11.5226 181.054 12.1057 183.452 13.8026C185.103 14.9753 186.138 16.5936 186.813 18.4674C187.278 19.7581 187.422 21.0947 187.416 22.464C187.396 28.2885 187.409 34.1195 187.409 39.944C187.409 40.632 187.409 40.6385 186.702 40.6385C185.123 40.6385 183.55 40.6385 181.971 40.6385C181.297 40.6385 181.264 40.6057 181.264 39.9178C181.264 34.5454 181.264 29.1664 181.264 23.794C181.264 22.3919 181.061 21.0291 180.307 19.7974C179.344 18.225 177.909 17.3798 176.094 17.1964C175.321 17.1177 174.542 17.144 173.769 17.3208C170.794 17.9957 169.268 20.0202 168.586 22.8374C168.462 23.3419 168.455 23.8529 168.455 24.3705C168.455 29.4809 168.455 34.5912 168.455 39.7016C168.455 39.8588 168.442 40.0161 168.455 40.1668C168.488 40.5861 168.311 40.7499 167.885 40.7433C166.201 40.7302 164.511 40.7433 162.827 40.7433C162.781 40.7433 162.735 40.7433 162.69 40.7433C162.401 40.7564 162.251 40.6189 162.264 40.324C162.264 40.1995 162.264 40.0751 162.264 39.9506C162.264 31.0402 162.264 22.1298 162.264 13.2195C162.264 12.6778 162.53 12.407 163.063 12.407C164.563 12.407 166.057 12.407 167.558 12.407C168.16 12.407 168.2 12.4529 168.2 13.0426C168.2 14.1498 168.2 15.2505 168.2 16.3577C168.232 16.3708 168.265 16.3774 168.298 16.3905L168.291 16.3839Z" fill="white"/>
<path id="Vector_6" d="M119.206 25.6743C119.206 23.2567 119.206 20.8457 119.206 18.4281C119.206 17.8515 119.173 17.8188 118.596 17.8188C117.332 17.8188 116.067 17.8188 114.803 17.8188C114.22 17.8188 114.148 17.7467 114.148 17.1767C114.148 15.8402 114.154 14.4971 114.141 13.1605C114.141 12.7281 114.266 12.5381 114.724 12.5577C115.458 12.5905 116.192 12.5708 116.926 12.5577C117.142 12.5577 117.365 12.5381 117.574 12.5053C118.806 12.2957 119.337 11.6864 119.356 10.4415C119.376 8.99359 119.356 7.54565 119.363 6.09772C119.363 5.50806 119.396 5.4753 119.959 5.4753C121.63 5.4753 123.301 5.48841 124.971 5.46875C125.423 5.46875 125.574 5.62599 125.574 6.06496C125.561 7.96496 125.574 9.86497 125.574 11.765C125.574 12.2979 125.834 12.5643 126.354 12.5643C128.07 12.5643 129.787 12.5643 131.503 12.5643C132.06 12.5643 132.119 12.6233 132.126 13.1802C132.126 14.5036 132.126 15.8271 132.126 17.1505C132.126 17.7402 132.047 17.8188 131.438 17.8188C129.689 17.8188 127.939 17.8188 126.196 17.8188C125.607 17.8188 125.581 17.8515 125.581 18.4215C125.581 22.9881 125.581 27.5481 125.581 32.1147C125.581 32.8812 125.79 33.5888 126.216 34.2309C126.721 34.9909 127.435 35.3775 128.339 35.3906C129.335 35.4037 130.337 35.3906 131.333 35.3906C131.923 35.3906 131.955 35.4233 131.955 35.9868C131.955 37.402 131.942 38.8237 131.962 40.2389C131.962 40.6713 131.851 40.8547 131.385 40.8482C129.747 40.822 128.11 40.8875 126.472 40.822C123.838 40.7171 121.708 39.6164 120.346 37.3102C119.52 35.9147 119.238 34.3423 119.225 32.7306C119.206 30.3785 119.225 28.0264 119.225 25.6743H119.206Z" fill="white"/>
<path id="Vector_7" d="M155.549 26.7029C155.549 31.1843 155.549 35.6722 155.549 40.1536C155.549 40.835 155.549 40.835 154.881 40.8416C153.243 40.8416 151.605 40.8416 149.967 40.8416C149.377 40.8416 149.344 40.8154 149.344 40.2454C149.344 31.2171 149.344 22.1822 149.338 13.1539C149.338 12.6691 149.521 12.5511 149.973 12.5511C151.624 12.5708 153.282 12.5577 154.933 12.5577C155.536 12.5577 155.549 12.5774 155.549 13.1998C155.549 17.7008 155.549 22.2019 155.549 26.6964V26.7029Z" fill="white"/>
<path id="Vector_8" d="M149.344 3.97494C149.344 3.09045 149.357 2.19942 149.344 1.31493C149.337 0.908723 149.495 0.771136 149.894 0.777688C151.657 0.790791 153.413 0.790791 155.175 0.777688C155.588 0.777688 155.725 0.941481 155.725 1.33459C155.719 3.11011 155.719 4.87908 155.725 6.6546C155.725 7.06081 155.548 7.1984 155.162 7.19184C153.399 7.17874 151.644 7.17874 149.881 7.19184C149.462 7.19184 149.337 7.02805 149.35 6.63495C149.37 5.75046 149.35 4.85942 149.35 3.97494H149.344Z" fill="white"/>
</g>
</g>
</svg>
