<svg width="289" height="46" viewBox="0 0 289 46" fill="none" xmlns="http://www.w3.org/2000/svg">
<path d="M31.769 0.89209C32.679 1.28362 33.1826 1.98135 33.4931 2.91804C34.7893 6.84086 36.1303 10.7487 37.4564 14.6609C39.2989 20.1018 41.1413 25.5439 42.9859 30.9848C44.1819 34.5118 45.3895 38.0346 46.5769 41.5637C46.7551 42.0929 46.977 42.6188 46.8276 43.2173C46.5332 44.3994 45.7288 45.0694 44.4998 45.0737C42.1719 45.0811 39.843 45.0758 37.514 45.0758C34.7231 45.0758 31.9333 45.0726 29.1424 45.0833C28.4106 45.0865 27.7918 44.8539 27.2594 44.3546C24.3619 41.6373 21.4611 38.9243 18.5614 36.2092C18.5091 36.1612 18.4515 36.1185 18.4003 36.0694C18.076 35.76 17.8818 35.775 17.725 36.2476C16.944 38.6032 16.13 40.9492 15.3448 43.3027C14.9565 44.4656 14.1521 45.079 12.9295 45.0801C9.42806 45.0822 5.92665 45.0843 2.42524 45.0801C0.619055 45.0769 -0.418993 43.5854 0.161375 41.8902C1.21009 38.8198 2.23107 35.7398 3.27125 32.6672C4.82992 28.0659 6.39926 23.4678 7.95687 18.8664C8.99705 15.7939 10.0244 12.716 11.0625 9.64242C11.8338 7.35828 12.634 5.08269 13.3775 2.78895C13.6656 1.8992 14.1862 1.27296 15.0269 0.89209H31.7701L31.769 0.89209ZM23.4508 19.4244C23.3238 19.7594 23.2491 19.9386 23.1883 20.1221C22.2154 23.009 21.2456 25.897 20.2737 28.785C20.0251 29.5232 20.0251 29.5275 20.8295 29.5243C22.64 29.5157 24.4515 29.504 26.2619 29.4912C26.8178 29.4869 26.837 29.4496 26.6535 28.9087C25.9045 26.6939 25.1588 24.4781 24.412 22.2633C24.108 21.3629 23.8028 20.4624 23.4508 19.4255V19.4244Z" fill="white"/>
<path d="M288.999 28.8831C285.232 28.8895 281.465 28.8948 277.699 28.9012C276.872 28.9023 276.837 28.9589 276.999 29.7846C277.499 32.3376 279.286 33.4055 281.604 33.5655C283.56 33.7 285.376 33.2764 287.054 32.2714C287.408 32.0591 287.531 32.1551 287.528 32.5403C287.522 33.3564 287.514 34.1715 287.532 34.9876C287.542 35.3813 287.372 35.6064 287.032 35.775C285.805 36.382 284.482 36.6445 283.147 36.8482C281.531 37.0947 279.915 37.0381 278.343 36.5858C275.789 35.8507 274.045 34.2163 273.231 31.6793C272.405 29.1082 272.369 26.5062 273.324 23.9671C274.415 21.0652 276.446 19.0905 279.558 18.5272C281.785 18.1239 283.993 18.3287 285.926 19.706C287.392 20.7505 288.271 22.1939 288.688 23.9308C288.779 24.3084 288.811 24.7021 289 25.052V28.8831H288.999ZM280.84 25.7914C281.78 25.7914 282.721 25.7914 283.66 25.7914C284.931 25.7914 284.918 25.7935 284.706 24.5304C284.248 21.8003 281.665 21.2594 279.949 21.8526C278.256 22.4383 277.481 23.7718 277.021 25.371C276.915 25.7423 277.149 25.7903 277.432 25.7903C278.567 25.7903 279.703 25.7903 280.839 25.7914H280.84Z" fill="white"/>
<path d="M75.2427 17.36C74.5759 19.0382 73.9113 20.7174 73.2423 22.3945C72.0411 25.4084 70.8377 28.4212 69.6364 31.435C69.0528 32.9009 68.4479 34.3593 67.9027 35.839C67.6968 36.4002 67.3981 36.621 66.806 36.5613C66.3131 36.5111 65.8106 36.5314 65.3146 36.557C64.9049 36.5773 64.6691 36.4428 64.5112 36.0406C63.6588 33.8813 62.7818 31.7306 61.9081 29.5798C60.3014 25.6218 58.6915 21.6648 57.0795 17.7078C57.0432 17.6193 57.0422 17.4902 56.8907 17.4731C56.7883 17.6716 56.8416 17.8849 56.8416 18.0898C56.8384 23.9777 56.8395 29.8646 56.8384 35.7526C56.8384 36.2839 56.5735 36.5502 56.0436 36.5517C55.2083 36.5527 54.3729 36.5538 53.5376 36.5517C52.8164 36.5495 52.7748 36.5111 52.7748 35.8038C52.7726 33.2327 52.7737 30.6605 52.7737 28.0894C52.7737 22.929 52.7737 17.7686 52.7737 12.6083C52.7737 11.7452 52.7833 11.7356 53.624 11.7345C55.2051 11.7335 56.7872 11.7505 58.3683 11.7249C58.8505 11.7175 59.0895 11.8711 59.2676 12.3341C60.9042 16.5866 62.5695 20.8273 64.221 25.0734C64.7801 26.5104 65.3242 27.9539 65.88 29.3931C65.9525 29.5819 65.9696 29.8113 66.2363 29.9457C66.4412 29.4688 66.6471 29.0037 66.8402 28.5343C68.769 23.8454 70.6968 19.1556 72.6236 14.4657C72.9202 13.7445 73.2391 13.0308 73.4952 12.2946C73.6531 11.8401 73.9209 11.7196 74.3721 11.726C75.8999 11.7473 77.4287 11.7324 78.9564 11.7345C79.6445 11.7356 79.6605 11.7516 79.6605 12.4632C79.6616 18.0844 79.6605 23.7068 79.6605 29.328C79.6605 31.4734 79.6605 33.6199 79.6605 35.7654C79.6605 36.2881 79.391 36.5499 78.8519 36.5506C77.9632 36.5517 77.0745 36.5517 76.1869 36.5506C75.3814 36.5506 75.3792 36.5485 75.3792 35.7643C75.3792 32.8379 75.3792 29.9126 75.3792 26.9863C75.3792 23.9713 75.3792 20.9564 75.3792 17.9425C75.3792 17.7537 75.3792 17.5638 75.3792 17.375C75.3334 17.3707 75.2886 17.3654 75.2427 17.3611V17.36Z" fill="white"/>
<path d="M173.922 29.3536C173.922 27.19 173.909 25.0264 173.931 22.8628C173.937 22.3561 173.781 22.1577 173.264 22.1907C172.644 22.2313 172.021 22.2014 171.4 22.2323C171.085 22.2483 171.002 22.1395 171.007 21.8376C171.024 20.934 171.026 20.0293 171.007 19.1257C171.001 18.8227 171.078 18.7171 171.393 18.7309C172.05 18.7587 172.709 18.732 173.365 18.7565C173.778 18.7715 173.927 18.6157 173.929 18.1996C173.933 17.2448 173.911 16.291 174.005 15.333C174.245 12.8792 176.17 10.6495 178.595 10.1257C179.859 9.85258 181.127 9.84404 182.399 10.1118C182.764 10.1886 182.91 10.3572 182.906 10.7221C182.893 11.5905 182.893 12.46 182.906 13.3284C182.912 13.7359 182.823 13.8682 182.382 13.6986C181.682 13.4287 180.953 13.322 180.194 13.5065C179.295 13.7253 178.722 14.2779 178.46 15.1367C178.14 16.1865 178.19 17.2747 178.212 18.3565C178.217 18.621 178.364 18.7437 178.617 18.7448C180.411 18.7469 182.206 18.7459 184 18.7448C184.354 18.7448 184.383 18.5026 184.382 18.2338C184.381 17.2757 184.403 16.3177 184.375 15.3607C184.362 14.9084 184.526 14.6961 184.965 14.5777C186.01 14.2971 187.041 13.9589 188.082 13.6623C188.651 13.5001 188.736 13.5716 188.739 14.1733C188.747 15.4856 188.759 16.7978 188.734 18.11C188.725 18.5933 188.886 18.7747 189.378 18.7576C190.39 18.7235 191.404 18.7512 192.416 18.7181C192.776 18.7064 192.902 18.8387 192.901 19.1683C192.899 20.0368 192.898 20.9062 192.901 21.7747C192.902 22.1395 192.742 22.2526 192.37 22.2398C191.34 22.2025 190.31 22.2174 189.28 22.195C188.897 22.1865 188.737 22.3294 188.739 22.722C188.749 25.5951 188.72 28.4681 188.756 31.3401C188.779 33.0694 190.189 33.6061 191.525 33.3841C191.629 33.3671 191.731 33.3276 191.831 33.2924C192.547 33.0413 192.904 33.3045 192.903 34.0819C192.903 34.6846 192.895 35.2874 192.904 35.8902C192.91 36.2166 192.785 36.4343 192.466 36.5324C190.723 37.0659 188.966 37.2035 187.24 36.5282C185.429 35.8176 184.705 34.3102 184.484 32.4912C184.274 30.7597 184.414 29.0207 184.388 27.2849C184.364 25.8138 184.366 24.3415 184.392 22.8692C184.4 22.37 184.251 22.179 183.728 22.1875C182.129 22.2142 180.53 22.195 178.931 22.1982C178.237 22.1993 178.205 22.2302 178.205 22.9162C178.203 27.1719 178.205 31.4275 178.204 35.6843C178.204 36.2604 177.908 36.5488 177.314 36.5495C176.444 36.5495 175.573 36.5506 174.703 36.5495C173.925 36.5484 173.922 36.5474 173.922 35.7888C173.921 33.6434 173.922 31.4979 173.922 29.3514V29.3536Z" fill="white"/>
<path d="M212.268 11.7334C212.908 11.7334 213.548 11.7452 214.187 11.7292C214.555 11.7206 214.777 11.8508 214.912 12.2093C216.668 16.8906 218.431 21.5688 220.197 26.2458C221.374 29.3632 222.55 32.4805 223.739 35.5936C224.107 36.5559 224.125 36.5506 223.115 36.5506C222.031 36.5506 220.946 36.5356 219.863 36.558C219.444 36.5666 219.222 36.4247 219.081 36.0193C218.482 34.2942 217.844 32.583 217.246 30.8578C217.128 30.5175 216.963 30.3767 216.601 30.3778C213.686 30.3874 210.771 30.3927 207.857 30.3735C207.382 30.3703 207.257 30.6391 207.136 30.9923C206.57 32.6534 205.986 34.3081 205.435 35.9734C205.295 36.3948 205.075 36.5676 204.627 36.5591C203.455 36.5367 202.281 36.5559 201.109 36.5495C200.513 36.5463 200.475 36.4748 200.676 35.9414C202.016 32.392 203.349 28.8404 204.691 25.2921C206.341 20.9319 208 16.5748 209.641 12.2114C209.776 11.8529 209.972 11.7142 210.35 11.7281C210.989 11.7505 211.629 11.7345 212.269 11.7345L212.268 11.7334ZM212.214 16.4063C212.089 16.6794 212.022 16.8021 211.975 16.9333C210.868 20.0581 209.769 23.185 208.656 26.3077C208.502 26.7387 208.728 26.7419 209.035 26.7409C211.115 26.7366 213.194 26.7323 215.273 26.7441C215.701 26.7462 215.847 26.6609 215.681 26.1946C214.751 23.5894 213.85 20.9745 212.935 18.365C212.72 17.7537 212.487 17.1488 212.213 16.4073L212.214 16.4063Z" fill="white"/>
<path d="M161.212 36.9709C159.471 36.9261 157.793 36.637 156.27 35.7237C153.995 34.3603 152.762 32.3141 152.398 29.7366C152.137 27.8781 152.198 26.0207 152.793 24.2199C153.758 21.2978 155.735 19.434 158.738 18.6882C160.795 18.1772 162.859 18.1825 164.891 18.7821C167.05 19.418 168.669 20.7835 169.59 22.817C170.95 25.8191 171.022 28.9204 169.702 31.9471C168.567 34.5523 166.516 36.1366 163.695 36.6988C162.874 36.8621 162.055 37.0018 161.212 36.973V36.9709ZM166.136 27.4684C166.196 27.0108 166.115 26.4272 166.009 25.8554C165.712 24.2401 164.979 22.9322 163.383 22.2387C162.6 21.8984 161.785 21.9421 160.973 21.9645C159.653 22.0008 158.544 22.5268 157.801 23.6256C156.54 25.4905 156.466 27.5623 156.88 29.695C157.294 31.8276 158.585 33.0875 160.726 33.3852C163.011 33.7031 165.072 32.8262 165.814 30.3287C166.078 29.4378 166.148 28.5225 166.136 27.4684Z" fill="white"/>
<path d="M136.607 27.5016C136.72 29.2629 136.401 30.8931 135.585 32.4187C134.505 34.4372 132.882 35.8134 130.685 36.4781C128.318 37.1939 125.939 37.1608 123.626 36.2988C121.221 35.4027 119.587 33.6818 118.846 31.2195C118.051 28.5705 118.136 25.9119 119.24 23.3675C120.539 20.3707 122.944 18.8142 126.159 18.4344C127.238 18.3063 128.312 18.3341 129.394 18.4258C132.406 18.6808 135.138 20.8188 136.085 23.6758C136.503 24.9379 136.713 26.2181 136.608 27.5026L136.607 27.5016ZM127.579 21.9582C125.491 21.7896 123.772 23.0848 123.177 25.0723C122.765 26.4475 122.657 27.8376 122.903 29.2661C123.071 30.2487 123.362 31.1545 124.018 31.9205C125.143 33.2327 126.637 33.5805 128.256 33.4066C130.008 33.2188 131.258 32.3013 131.826 30.5762C132.363 28.9407 132.419 27.2946 132.066 25.6036C131.592 23.3408 130.023 21.8035 127.579 21.9571V21.9582Z" fill="white"/>
<path d="M254.556 34.3955C253.579 35.4656 252.463 36.2156 251.113 36.5271C249.174 36.9752 247.262 36.8866 245.491 35.8582C244.139 35.073 243.487 33.8034 243.125 32.3418C242.878 31.3528 242.806 30.35 242.806 29.3376C242.808 26.0559 242.806 22.7753 242.807 19.4937C242.807 18.7138 242.809 18.7309 243.56 18.7426C244.519 18.7586 245.482 18.7917 246.437 18.7245C247.003 18.684 247.1 18.892 247.098 19.3753C247.085 22.4436 247.07 25.5118 247.104 28.5801C247.115 29.5285 247.152 30.4844 247.469 31.4115C247.892 32.6491 248.901 33.3991 250.211 33.4727C251.616 33.5506 252.819 33.2209 253.679 32.0378C254.294 31.1917 254.559 30.2337 254.557 29.1925C254.553 26.0527 254.556 22.914 254.556 19.7743C254.556 18.7416 254.556 18.749 255.556 18.749C256.498 18.749 257.439 18.7437 258.38 18.716C258.717 18.7064 258.884 18.8301 258.904 19.1576C258.914 19.3166 258.915 19.4766 258.915 19.6367C258.915 24.9752 258.915 30.3137 258.915 35.6523C258.915 36.5452 258.909 36.5505 258.034 36.5516C257.145 36.5516 256.257 36.5516 255.368 36.5516C254.827 36.5516 254.556 36.2725 254.555 35.7141C254.555 35.2746 254.555 34.835 254.555 34.3955H254.556Z" fill="white"/>
<path d="M232.944 36.5506C230.687 36.5506 228.43 36.5527 226.173 36.5506C225.484 36.5506 225.527 36.4887 225.414 35.8369C225.183 34.5012 226.074 33.6904 226.735 32.7782C228.411 30.4674 230.118 28.1779 231.814 25.8821C232.615 24.7992 233.422 23.7195 234.222 22.6367C234.325 22.498 234.523 22.3454 234.45 22.1843C234.355 21.9752 234.099 22.0841 233.917 22.083C231.553 22.0755 229.19 22.0798 226.826 22.0777C226.139 22.0777 226.094 22.0329 226.09 21.3607C226.085 20.6513 226.095 19.9418 226.088 19.2324C226.083 18.8611 226.199 18.7192 226.619 18.7213C231.026 18.7405 235.433 18.7395 239.84 18.7213C240.252 18.7192 240.355 18.8504 240.382 19.227C240.438 19.9984 240.262 20.6395 239.779 21.2893C237.119 24.86 234.509 28.467 231.884 32.0634C231.716 32.2928 231.558 32.5275 231.401 32.7633C231.335 32.8603 231.179 32.9414 231.265 33.0758C231.339 33.19 231.492 33.1463 231.613 33.1463C232.822 33.1484 234.03 33.1484 235.238 33.1484C236.767 33.1484 238.295 33.1601 239.823 33.142C240.306 33.1367 240.495 33.3127 240.478 33.797C240.453 34.5236 240.455 35.2522 240.478 35.9777C240.492 36.4236 240.304 36.5602 239.876 36.557C237.565 36.5431 235.255 36.5506 232.944 36.5506Z" fill="white"/>
<path d="M138.62 33.9453C138.62 33.4845 138.612 33.0236 138.623 32.5627C138.627 32.3749 138.532 32.1264 138.711 32.0154C138.906 31.8959 139.061 32.1242 139.22 32.217C140.572 33.014 142.01 33.5367 143.597 33.5527C144.019 33.557 144.45 33.5037 144.864 33.4172C145.463 33.2935 146 33.0204 146.155 32.3717C146.335 31.6121 146.169 30.9251 145.518 30.4183C144.694 29.7771 143.719 29.4272 142.779 29.0101C141.919 28.6281 141.091 28.2057 140.343 27.6114C138.897 26.4614 138.53 24.9379 138.656 23.2021C138.84 20.6716 141.245 18.8824 143.692 18.4344C145.483 18.1068 147.22 18.3618 148.951 18.7939C149.401 18.9059 149.646 19.1332 149.628 19.6484C149.594 20.6043 149.609 21.5624 149.621 22.5204C149.626 22.9493 149.489 23.0208 149.124 22.801C148.153 22.2164 147.091 21.8792 145.975 21.7053C145.234 21.5901 144.515 21.6936 143.849 22.0275C142.658 22.626 142.568 24.1612 143.657 24.9486C144.622 25.6452 145.778 25.929 146.829 26.44C148.169 27.0919 149.453 27.8291 150.091 29.2725C151.344 32.1114 150.043 35.1317 147.066 36.3127C145.286 37.0189 143.443 37.1342 141.571 36.8162C140.732 36.6744 139.899 36.4951 139.094 36.1985C138.763 36.0758 138.604 35.8987 138.617 35.5382C138.635 35.0069 138.621 34.4745 138.621 33.9432L138.62 33.9453Z" fill="white"/>
<path d="M104.722 21.2413C104.722 21.7736 104.722 22.3049 104.722 22.8373C104.722 23.168 104.589 23.2619 104.298 23.0709C103.852 22.7786 103.39 22.5065 102.884 22.3348C101.131 21.7363 99.3884 21.6861 97.7422 22.6399C96.3724 23.4326 95.6213 24.6893 95.3151 26.2235C94.9353 28.1267 95.089 29.9606 96.3041 31.5385C97.5598 33.1697 99.3318 33.621 101.303 33.3564C102.373 33.2124 103.339 32.7345 104.244 32.1616C104.668 31.8916 104.738 32.0186 104.73 32.4475C104.713 33.4044 104.714 34.3625 104.73 35.3205C104.735 35.6683 104.613 35.8934 104.288 36.0214C100.839 37.3859 97.436 37.5076 94.2814 35.3226C92.0548 33.78 90.9165 31.5492 90.8269 28.8052C90.7629 26.8476 90.9229 24.9411 91.8511 23.1712C93.3084 20.3952 95.5637 18.7704 98.7163 18.4237C100.561 18.221 102.362 18.3181 104.109 19.0073C104.547 19.1801 104.774 19.4169 104.732 19.912C104.695 20.3526 104.725 20.7985 104.725 21.2413H104.723H104.722Z" fill="white"/>
<path d="M266.284 21.2285C267.137 19.8095 268.232 18.8184 269.86 18.5229C270.527 18.4024 271.201 18.4077 271.871 18.5272C272.275 18.5997 272.482 18.811 272.473 19.2548C272.453 20.3003 272.459 21.3458 272.471 22.3913C272.476 22.8159 272.366 22.9258 271.944 22.7338C271.124 22.3625 270.257 22.1684 269.353 22.3508C267.74 22.6772 266.539 24.158 266.391 25.9439C266.173 28.5801 266.339 31.2206 266.289 33.8589C266.275 34.5855 266.278 35.312 266.289 36.0385C266.294 36.3927 266.158 36.5559 265.788 36.5517C264.705 36.5399 263.621 36.5421 262.539 36.5506C262.175 36.5538 262.018 36.3863 262.027 36.0353C262.029 35.9286 262.024 35.823 262.024 35.7163C262.024 30.3106 262.024 24.9059 262.024 19.5002C262.024 18.7203 262.027 18.7363 262.816 18.7438C263.81 18.7523 264.805 18.748 265.798 18.7171C266.152 18.7064 266.286 18.8302 266.284 19.1662C266.279 19.8533 266.283 20.5403 266.283 21.2274L266.284 21.2285Z" fill="white"/>
<path d="M112.074 21.1964C112.504 20.6139 112.918 20.0442 113.451 19.5727C114.68 18.4845 116.135 18.2935 117.692 18.5378C118.079 18.5986 118.265 18.8237 118.26 19.2377C118.244 20.3013 118.247 21.365 118.259 22.4286C118.263 22.8586 118.11 22.9087 117.749 22.7274C116.879 22.291 115.95 22.1459 115.006 22.3732C113.436 22.7498 112.39 24.0695 112.191 25.7999C112.107 26.5414 112.071 27.2807 112.073 28.0264C112.081 30.6327 112.065 33.2391 112.085 35.8454C112.089 36.3617 111.956 36.5826 111.398 36.5612C110.404 36.5239 109.408 36.5367 108.414 36.557C107.988 36.5655 107.807 36.43 107.808 35.9819C107.817 30.4151 107.816 24.8472 107.809 19.2804C107.809 18.8504 107.937 18.7032 108.402 18.7235C109.43 18.7693 110.463 18.7693 111.491 18.7224C111.963 18.7011 112.09 18.86 112.079 19.2846C112.062 19.9215 112.075 20.5595 112.075 21.1964H112.074Z" fill="white"/>
<path d="M83.7003 27.6221C83.7003 24.892 83.7003 22.1619 83.7003 19.4308C83.7003 18.7096 83.7046 18.7299 84.4023 18.7405C85.4147 18.7555 86.4282 18.7576 87.4385 18.7224C87.8183 18.7085 87.9634 18.8269 87.9602 19.1897C87.9549 19.8106 87.9602 20.4304 87.9602 21.0513C87.9602 25.8916 87.9602 30.7319 87.9602 35.5712C87.9602 36.2248 87.6249 36.5516 86.9542 36.5516C86.1018 36.5516 85.2472 36.525 84.3959 36.5612C83.8635 36.5836 83.6843 36.4087 83.6886 35.8667C83.711 33.1185 83.6992 30.3703 83.6992 27.6231L83.7003 27.6221Z" fill="white"/>
<path d="M83.2641 13.6335C83.1148 12.365 84.4867 11.1552 85.8 11.1915C87.2317 11.2299 88.3946 12.2701 88.4 13.6068C88.4053 14.9639 87.2243 16.1289 85.8 16.0937C84.4963 16.0617 83.1702 15.0887 83.2641 13.6346V13.6335Z" fill="white"/>
</svg>
