<svg width="114" height="78" viewBox="0 0 114 78" fill="none" xmlns="http://www.w3.org/2000/svg">
<g id="qZIlgj.tif">
<g id="Group">
<path id="Vector" d="M0.387207 70.3228C0.490215 69.829 0.455374 69.326 0.478097 68.8292C0.556868 67.1932 0.584134 65.5556 0.66442 63.9211C0.75228 62.0988 0.856803 60.2765 0.988593 58.4572C1.14613 56.2894 1.32185 54.1232 1.52333 51.9601C1.74904 49.5288 2.0111 47.1005 2.3171 44.6768C2.33982 44.5011 2.41404 44.4268 2.59128 44.4268C4.23941 44.4299 5.88754 44.4314 7.53416 44.4268C7.74623 44.4268 7.80228 44.5526 7.8553 44.7162C8.51122 46.7248 9.16866 48.732 9.82912 50.7391C10.5259 52.8568 11.2273 54.9715 11.9226 57.0893C12.5906 59.1206 13.2541 61.1551 13.9222 63.1864C13.954 63.2849 13.9646 63.397 14.0509 63.4788C14.157 63.4258 14.1539 63.3152 14.1827 63.2289C15.3098 59.822 16.4338 56.4121 17.5623 53.0053C18.2622 50.8891 18.9666 48.7759 19.6694 46.6597C19.8861 46.0053 20.1072 45.3524 20.3132 44.695C20.3738 44.4995 20.4783 44.4238 20.6798 44.4253C22.2204 44.4299 23.761 44.4299 25.3 44.4253C25.5015 44.4253 25.5863 44.4965 25.6075 44.6995C25.7378 45.8826 25.8863 47.0626 26.0135 48.2457C26.1786 49.7939 26.3362 51.342 26.4846 52.8902C26.5907 53.9945 26.6816 55.1003 26.7724 56.2046C26.8967 57.7194 27.0194 59.2343 27.1315 60.7506C27.2011 61.6958 27.2557 62.6426 27.3026 63.5894C27.3966 65.5465 27.4814 67.5022 27.5677 69.4593C27.5783 69.7093 27.5677 69.9607 27.5783 70.2107C27.5859 70.4061 27.5056 70.4834 27.3102 70.4818C26.0302 70.4773 24.7486 70.4788 23.4686 70.4818C23.2868 70.4818 23.2156 70.4106 23.2111 70.2274C23.1823 69.1367 23.1505 68.0445 23.1126 66.9538C23.046 65.0133 22.9748 63.0743 22.8521 61.1369C22.7566 59.6281 22.6794 58.1193 22.5643 56.6121C22.4325 54.8822 22.3022 53.1522 22.1068 51.4268C22.0598 51.0087 22.028 50.5891 21.9841 50.1711C21.9765 50.0999 22.0129 49.9847 21.8977 49.9787C21.8144 49.9741 21.8069 50.0756 21.7856 50.1408C21.2236 51.8964 20.6601 53.6521 20.0981 55.4093C19.5437 57.1393 18.9893 58.8692 18.4364 60.6006C17.4411 63.7212 16.4474 66.8432 15.4537 69.9638C15.4506 69.9729 15.4476 69.9804 15.4461 69.9895C15.3431 70.3167 15.1234 70.4803 14.7871 70.4803C13.954 70.4803 13.1208 70.4743 12.2892 70.4834C12.0574 70.4864 11.9332 70.4106 11.8605 70.1804C11.0607 67.637 10.2518 65.0951 9.44284 62.5532C8.8869 60.8051 8.32793 59.057 7.77047 57.3089C7.01457 54.9382 6.2617 52.566 5.50581 50.1953C5.47702 50.1044 5.44218 50.015 5.38007 49.9256C5.24525 50.265 5.26646 50.624 5.24374 50.9694C5.14073 52.513 5.02409 54.0566 4.94835 55.6017C4.85746 57.4604 4.74839 59.3176 4.68022 61.1763C4.64084 62.2669 4.60751 63.3576 4.56813 64.4483C4.51662 65.9056 4.47572 67.3628 4.45906 68.8216C4.45452 69.2851 4.41967 69.7502 4.42119 70.2152C4.42119 70.4152 4.33484 70.4803 4.14549 70.4803C2.98968 70.4758 1.83538 70.4773 0.679568 70.4803C0.567471 70.4803 0.465978 70.4621 0.387207 70.3758L0.387207 70.3228Z" fill="white"/>
<path id="Vector_2" d="M88.3 56.8682C88.3424 58.7829 88.1682 60.5795 87.7577 62.3473C87.2442 64.5559 86.3338 66.5661 84.7008 68.193C84.5872 68.3067 84.4599 68.4066 84.3403 68.5157C84.1009 68.7323 84.1024 68.755 84.3827 68.8959C84.7508 69.0807 85.1204 69.2595 85.49 69.4413C86.5337 69.9563 87.5759 70.4729 88.6227 70.9834C88.7802 71.0606 88.8499 71.1257 88.7439 71.3045C88.2516 72.1361 87.7653 72.9723 87.2881 73.813C87.1836 73.9963 87.0988 74.0236 86.9124 73.9145C85.1386 72.8708 83.3587 71.8362 81.5787 70.8001C81.4091 70.7016 81.2349 70.6092 81.0652 70.5077C80.9395 70.432 80.8138 70.4426 80.6774 70.4774C78.331 71.0682 75.9905 71.0333 73.6789 70.3305C71.1885 69.573 69.5495 67.8825 68.58 65.4997C67.9529 63.9606 67.6333 62.3519 67.4863 60.7022C67.3909 59.6237 67.3106 58.5436 67.3424 57.4605C67.4106 55.1989 67.6363 52.9584 68.424 50.815C69.189 48.7336 70.3675 46.9491 72.2338 45.6842C73.2396 45.0026 74.3454 44.5587 75.5361 44.3148C77.4236 43.927 79.311 43.9422 81.1803 44.3906C83.5465 44.9586 85.3476 46.3023 86.5428 48.4412C87.4123 49.9985 87.8471 51.6875 88.0864 53.4371C88.247 54.6081 88.3409 55.7851 88.297 56.8712L88.3 56.8682ZM83.8888 57.5544C83.9101 56.5031 83.8525 55.3867 83.7162 54.2748C83.542 52.8388 83.2572 51.43 82.6028 50.1212C82.0741 49.0623 81.3106 48.2428 80.2169 47.7489C79.1278 47.2581 77.9841 47.1854 76.8237 47.3339C75.7133 47.4763 74.759 47.9459 73.9834 48.7699C73.1821 49.6213 72.7215 50.6514 72.3959 51.7511C71.9157 53.3796 71.8005 55.058 71.7612 56.741C71.7339 57.921 71.796 59.1026 71.9202 60.2766C72.0762 61.7596 72.3474 63.2168 72.9821 64.5832C73.6002 65.9117 74.556 66.8721 75.9739 67.3296C76.857 67.6144 77.7659 67.6674 78.6809 67.5674C79.9624 67.4265 81.0364 66.8842 81.8711 65.8814C82.7133 64.8695 83.1557 63.6773 83.445 62.42C83.8086 60.8416 83.9085 59.2359 83.8888 57.5529V57.5544Z" fill="white"/>
<path id="Vector_3" d="M113.356 45.9675C113.113 45.9463 112.987 45.819 112.854 45.7009C111.589 44.5799 110.244 43.574 108.679 42.9075C107.034 42.2062 105.53 41.2745 104.179 40.1142C103.477 39.5113 102.914 38.7736 102.562 37.8995C102.515 37.7829 102.458 37.6723 102.403 37.5587C102.27 37.289 102.305 37.1345 102.555 36.9664C102.65 36.9027 102.756 36.8497 102.865 36.8103C104.414 36.262 105.98 35.7954 107.637 35.7378C108.21 35.7181 108.784 35.7257 109.356 35.7166C109.449 35.7166 109.573 35.7575 109.62 35.6424C109.658 35.5515 109.57 35.4758 109.517 35.4076C109.238 35.0471 108.863 34.7956 108.482 34.5639C107.533 33.9852 106.63 33.3384 105.741 32.6779C104.392 31.6751 102.849 31.1237 101.279 30.6177C100.683 30.4253 100.077 30.2663 99.5161 29.9739C99.2737 29.8482 99.0723 29.6801 98.9071 29.4604C98.2467 28.5803 97.7604 27.6002 97.3151 26.605C96.6394 25.0932 95.9457 23.5904 95.2337 22.0953C94.8913 21.3758 94.5566 20.6532 94.2884 19.9018C93.8416 18.6445 93.1705 17.5024 92.4616 16.3814C91.283 14.5197 89.8985 12.8231 88.317 11.2916C86.9506 9.96762 85.4615 8.79665 83.8452 7.78778C82.4955 6.94554 81.0867 6.23205 79.578 5.72004C79.1584 5.57765 78.7251 5.49585 78.2873 5.49433C77.4254 5.4913 76.5786 5.3277 75.7182 5.31104C75.3531 5.30347 75.0668 5.04897 74.8214 4.8066C73.9822 3.97345 72.9324 3.4887 71.8781 3.02062C71.2025 2.72069 70.5314 2.39348 69.7816 2.28745C68.9302 2.16778 68.3773 2.74795 68.5909 3.57656C68.7833 4.32186 69.2408 4.92627 69.7104 5.51403C70.4996 6.50018 71.2691 7.50148 71.8902 8.60427C72.3537 9.42682 72.6385 10.3266 72.9264 11.2219C73.3581 12.5686 73.7216 13.9395 74.4018 15.1923C74.7866 15.8997 75.1925 16.5859 75.8212 17.1282C76.3347 17.5705 76.5332 18.1553 76.3468 18.8506C76.1847 19.458 75.9969 20.0548 75.7591 20.635C75.3031 21.7439 75.1047 22.9057 75.038 24.0873C74.9517 25.6506 75.0592 27.2003 75.5016 28.7136C75.7061 29.4119 75.9818 30.083 76.3211 30.7238C76.5377 31.1313 76.8285 31.4842 77.2633 31.6857C77.5723 31.8296 77.6602 31.7781 77.6996 31.4372C77.8147 30.442 77.9056 29.4453 78.0889 28.4576C78.304 27.2987 78.7993 26.2884 79.5992 25.4234C79.7143 25.2992 79.8112 25.1583 79.9188 25.0265C80.0551 24.8584 80.149 24.8659 80.2581 25.0568C80.2839 25.1022 80.302 25.1553 80.3187 25.2053C81.1867 27.8032 82.4728 30.1951 83.9285 32.5022C84.8374 33.9413 85.7887 35.3516 87.0324 36.5346C87.1612 36.6573 87.3036 36.7679 87.4429 36.88C87.5823 36.9906 87.7262 37.0966 87.8277 37.2754C87.6959 37.3027 87.6096 37.236 87.5247 37.183C87.2642 37.0239 87.0082 36.8558 86.8022 36.6286C86.0235 35.7666 85.0692 35.1062 84.2133 34.3336C83.2408 33.4565 82.2971 32.54 81.6063 31.4206C81.1185 30.6314 80.7535 29.7664 80.3278 28.9393C80.2839 28.853 80.2808 28.6848 80.1551 28.709C80.0506 28.7287 80.0642 28.8893 80.043 28.9908C79.8431 29.9179 79.7613 30.8662 79.587 31.7978C79.4234 32.6673 78.9872 33.3035 78.0586 33.4914C77.5314 33.5989 77.0618 33.4444 76.6331 33.1596C75.8591 32.6446 75.3395 31.9023 74.9138 31.0994C74.1746 29.7028 73.8171 28.194 73.6716 26.6277C73.4853 24.6236 73.6838 22.6634 74.2897 20.7411C74.4185 20.3321 74.4836 19.9049 74.5821 19.4868C74.6381 19.2505 74.7048 19.0142 74.835 18.8097C74.9926 18.5627 74.9305 18.3567 74.7714 18.1462C74.529 17.825 74.1973 17.5902 73.9731 17.2448C73.1687 16.0057 72.5431 14.6833 72.0614 13.2911C71.6872 12.2096 71.2737 11.1416 70.9859 10.0297C70.8056 9.3329 70.3527 8.7709 69.9285 8.20436C69.2741 7.3303 68.5955 6.47291 67.9608 5.58674C67.5093 4.95657 67.1958 4.25975 67.0958 3.47204C66.9276 2.13142 67.9653 0.801402 69.3044 0.642345C70.1557 0.540852 70.9647 0.715057 71.7569 0.978637C72.9854 1.38764 74.1382 1.96479 75.2016 2.70554C75.4652 2.88883 75.703 3.11 75.9439 3.32359C76.2241 3.57202 76.5422 3.70835 76.9194 3.70229C78.4403 3.67806 79.9036 3.99314 81.3488 4.44002C82.188 4.69905 82.9424 5.12169 83.6816 5.57916C85.351 6.61076 86.9642 7.72113 88.4639 8.99055C89.9303 10.2327 91.2588 11.6067 92.4494 13.1139C93.4219 14.344 94.3096 15.6331 95.1064 16.9843C95.5548 17.7432 95.8502 18.5703 96.188 19.3792C97.0818 21.5182 98.0346 23.6313 99.098 25.693C99.4252 26.3293 99.7221 26.9806 100.039 27.6229C100.322 28.1986 100.74 28.5651 101.373 28.806C103.711 29.6952 105.886 30.8904 107.845 32.4628C108.557 33.0339 109.275 33.5974 109.977 34.1806C110.577 34.6775 111.002 35.3258 111.489 35.9211C111.916 36.4422 111.886 36.4756 111.242 36.6892C110.085 37.0739 108.879 37.1769 107.684 37.339C106.99 37.4329 106.342 37.7238 105.654 37.851C105.522 37.8753 105.392 37.9146 105.259 37.9253C105.009 37.9449 105.007 38.0616 105.109 38.2449C105.425 38.816 105.95 39.1644 106.469 39.5143C107.322 40.0899 108.266 40.5201 109.081 41.1579C110.079 41.9395 110.979 42.8197 111.759 43.8179C111.976 44.0951 112.236 44.3269 112.488 44.5678C112.75 44.8192 112.977 45.0828 113.093 45.4373C113.151 45.6115 113.254 45.7705 113.354 45.969L113.356 45.9675Z" fill="white"/>
<path id="Vector_4" d="M56.7205 70.8348C54.8496 70.8212 53.1091 70.4349 51.4504 69.6669C50.7748 69.3533 50.131 68.9867 49.4978 68.5989C49.1978 68.4157 49.1948 68.3778 49.3523 68.0672C49.6235 67.5325 49.8871 66.9948 50.1537 66.457C50.3127 66.1358 50.3097 66.1389 50.6263 66.2873C51.9684 66.919 53.35 67.4356 54.8345 67.6067C56.3069 67.7779 57.749 67.6976 59.0927 66.9735C60.5908 66.1661 61.3346 64.4604 60.8665 62.8456C60.5908 61.8958 59.941 61.2096 59.1836 60.6098C58.4065 59.9932 57.5127 59.5736 56.6599 59.0828C55.3571 58.333 54.0256 57.6286 52.7425 56.8469C51.0459 55.8123 49.8628 54.3747 49.5886 52.3433C49.2963 50.1711 49.6917 48.1685 51.2428 46.5113C52.3214 45.3585 53.6514 44.6389 55.195 44.3223C57.3324 43.8846 59.4335 44.0603 61.4937 44.751C62.3102 45.0252 63.0767 45.4145 63.8159 45.8584C64.0022 45.9705 64.0552 46.0735 63.9507 46.2886C63.678 46.8521 63.4205 47.4232 63.1812 48.0019C63.0888 48.2276 62.9888 48.2473 62.7767 48.1624C61.7936 47.7701 60.7802 47.4656 59.7304 47.3217C58.6912 47.1778 57.6415 47.1005 56.6114 47.349C55.1481 47.7019 54.1559 48.576 53.8483 50.0908C53.665 50.9982 53.9301 51.8283 54.4588 52.5766C55.095 53.478 55.9812 54.0809 56.9234 54.611C58.7321 55.629 60.5711 56.597 62.3495 57.6695C63.9007 58.6041 65.0853 59.9008 65.4156 61.7535C65.8791 64.3484 65.3065 66.6585 63.3327 68.5202C61.9421 69.832 60.2561 70.4758 58.3898 70.7152C57.8202 70.7879 57.2506 70.8227 56.722 70.8379L56.7205 70.8348Z" fill="white"/>
<path id="Vector_5" d="M38.5276 67.3145C38.6472 66.9903 38.773 66.6691 38.8851 66.3419C40.3832 62.005 41.4376 57.562 42.0904 53.0221C42.1601 52.5343 42.2374 52.048 42.2949 51.5603C42.3222 51.33 42.4177 51.2422 42.657 51.2437C43.8128 51.2543 44.9671 51.2467 46.1229 51.2482C46.4441 51.2482 46.4728 51.2891 46.4107 51.6193C45.9987 53.8371 45.5261 56.0426 44.9792 58.2316C44.3233 60.8568 43.5689 63.4501 42.5903 65.9754C41.5769 68.5869 40.3954 71.1136 38.67 73.345C37.6823 74.622 36.5538 75.749 35.1086 76.514C34.3648 76.9079 33.5802 77.1699 32.7409 77.2563C32.5364 77.2775 32.3501 77.3759 32.1365 77.3608C31.2276 77.2926 30.3596 77.0639 29.5189 76.72C29.4068 76.6746 29.3492 76.5943 29.3492 76.4716C29.3492 75.8354 29.3492 75.2006 29.3492 74.5644C29.3492 74.3599 29.4689 74.3357 29.634 74.3508C30.346 74.416 31.0565 74.4554 31.7745 74.4084C33.5938 74.2902 35.2268 72.8799 35.5479 71.0924C35.6661 70.435 35.5328 69.7897 35.3813 69.1535C34.9814 67.4705 34.4194 65.836 33.8922 64.1924C33.359 62.5306 32.8197 60.8704 32.2835 59.2101C31.6351 57.2 30.9898 55.1883 30.3415 53.1781C30.1688 52.6419 29.9946 52.1056 29.8234 51.5678C29.731 51.2785 29.7492 51.2497 30.037 51.2497C31.264 51.2497 32.491 51.2543 33.718 51.2452C33.9467 51.2437 34.0528 51.3285 34.1179 51.5436C35.0904 54.7187 36.066 57.8922 37.0491 61.0628C37.5187 62.5761 38.0019 64.0849 38.2867 65.6466C38.3867 66.1905 38.4503 66.7388 38.4488 67.2948C38.4761 67.3008 38.5018 67.3084 38.5291 67.3145H38.5276Z" fill="white"/>
<path id="Vector_6" d="M92.0571 57.4453C92.0571 53.3007 92.0571 49.1562 92.0571 45.0116C92.0571 44.9313 92.0571 44.851 92.0571 44.7692C92.0632 44.4481 92.0829 44.4269 92.4192 44.4269C93.4492 44.4269 94.4778 44.4269 95.5079 44.4269C95.6594 44.4269 95.8124 44.4345 95.9639 44.4269C96.1668 44.4148 96.2699 44.4905 96.2532 44.7041C96.2471 44.7935 96.2532 44.8829 96.2532 44.9722C96.2532 52.2237 96.2532 59.4737 96.2532 66.7251C96.2532 66.8054 96.2608 66.8872 96.2532 66.966C96.2305 67.1902 96.332 67.2599 96.5501 67.2584C97.768 67.2508 98.9859 67.2553 100.204 67.2553C101.502 67.2553 102.8 67.2553 104.098 67.2553C104.464 67.2553 104.47 67.2614 104.47 67.6355C104.47 68.4687 104.471 69.3003 104.47 70.1335C104.47 70.4562 104.441 70.4849 104.115 70.4849C100.211 70.4849 96.3077 70.4849 92.404 70.4849C92.0874 70.4849 92.0586 70.4531 92.0586 70.1229C92.0586 68.037 92.0586 65.9511 92.0586 63.8651C92.0586 61.7262 92.0586 59.5858 92.0586 57.4468L92.0571 57.4453Z" fill="white"/>
<path id="Vector_7" d="M111.604 69.3018C111.768 68.8489 111.924 68.3929 112.095 67.943C112.415 67.1023 112.241 67.2811 113.113 67.2583C113.306 67.2538 113.389 67.3417 113.387 67.5325C113.384 68.4278 113.383 69.3215 113.387 70.2168C113.387 70.5092 113.19 70.4789 113 70.4864C112.804 70.494 112.672 70.4607 112.678 70.2153C112.691 69.6972 112.684 69.1776 112.678 68.6595C112.678 68.5702 112.719 68.4626 112.603 68.3793C112.504 68.4914 112.469 68.6308 112.421 68.761C112.236 69.2549 112.048 69.7487 111.873 70.2456C111.813 70.4152 111.721 70.4864 111.541 70.4895C111.357 70.4925 111.268 70.4122 111.208 70.2471C110.98 69.626 110.744 69.008 110.511 68.3884C110.489 68.3308 110.462 68.2748 110.43 68.199C110.359 68.2839 110.383 68.3657 110.383 68.4384C110.38 69.0292 110.376 69.6199 110.383 70.2092C110.386 70.4228 110.296 70.4955 110.094 70.4879C109.906 70.4804 109.731 70.4925 109.732 70.2213C109.738 69.3276 109.735 68.4323 109.732 67.5386C109.732 67.3507 109.805 67.2674 110.002 67.2583C110.694 67.225 110.688 67.222 110.938 67.8809C111.121 68.3611 111.321 68.8353 111.514 69.3124C111.542 69.3094 111.571 69.3064 111.6 69.3034L111.604 69.3018Z" fill="white"/>
<path id="Vector_8" d="M78.8386 10.0373C78.7901 10.4645 78.6826 10.9083 78.316 11.2477C78.1812 11.3719 78.0888 11.4098 78.0055 11.1992C77.9297 11.0098 77.8207 10.8326 77.7404 10.6433C77.501 10.0873 77.1769 9.59196 76.7512 9.16024C76.6406 9.04663 76.5664 8.89817 76.4634 8.77547C76.324 8.60884 76.3392 8.51189 76.5694 8.48462C76.8436 8.45281 77.1178 8.41494 77.392 8.38313C77.501 8.37101 77.5995 8.40131 77.6964 8.46039C78.1933 8.76032 78.5614 9.17084 78.7901 9.70557C78.831 9.79949 78.8401 9.89341 78.8386 10.0358V10.0373Z" fill="white"/>
<path id="Vector_9" d="M108.129 69.167C108.129 69.5154 108.119 69.8654 108.132 70.2138C108.141 70.4637 108.001 70.491 107.808 70.4834C107.619 70.4758 107.416 70.5107 107.419 70.2153C107.423 69.5351 107.411 68.855 107.423 68.1748C107.428 67.9279 107.376 67.7961 107.099 67.8461C107.004 67.8628 106.902 67.8431 106.804 67.8506C106.58 67.8658 106.451 67.8037 106.454 67.5401C106.458 67.2826 106.596 67.2523 106.801 67.2553C107.445 67.2614 108.09 67.2629 108.735 67.2553C108.946 67.2523 109.049 67.3159 109.046 67.5447C109.043 67.7598 108.964 67.8476 108.744 67.8537C108.129 67.8703 108.129 67.8764 108.129 68.496C108.129 68.7202 108.129 68.9428 108.129 69.167Z" fill="white"/>
</g>
</g>
</svg>
