<svg width="150" height="52" viewBox="0 0 150 52" fill="none" xmlns="http://www.w3.org/2000/svg">
<g id="SMbjRU">
<g id="Group">
<path id="Vector" d="M104.549 26.0757C104.549 22.5905 104.584 19.1052 104.534 15.6214C104.51 13.9467 105.202 12.7412 106.597 11.9195C109.274 10.342 111.967 8.79428 114.653 7.23316C117.855 5.37325 121.074 3.54024 124.251 1.6385C125.936 0.630119 127.538 0.589783 129.235 1.58771C133.154 3.89429 137.098 6.15904 141.033 8.44172C142.752 9.43965 144.473 10.4361 146.189 11.4385C146.576 11.6641 146.965 11.8867 147.33 12.1451C148.438 12.9279 149.038 13.9871 149.038 15.3674C149.035 22.462 149.036 29.5565 149.038 36.651C149.038 38.2854 148.243 39.4252 146.868 40.2215C143.686 42.0649 140.505 43.9129 137.325 45.7608C134.726 47.2727 132.112 48.7591 129.533 50.3083C127.735 51.3884 126.009 51.4451 124.212 50.3083C122.49 49.2192 120.713 48.2168 118.967 47.1651C118.681 46.9918 118.23 46.8887 118.239 46.4944C118.25 46.0566 118.736 46.0775 119.04 45.961C119.67 45.7205 120.288 45.4636 120.863 45.1125C121.323 44.8301 121.734 44.866 122.182 45.1454C123.364 45.8804 124.576 46.5676 125.744 47.3235C126.406 47.7507 126.967 47.7731 127.667 47.3638C133.264 44.0862 138.873 40.8265 144.501 37.6012C145.281 37.1545 145.612 36.6749 145.606 35.7368C145.562 29.1651 145.574 22.5934 145.596 16.0218C145.599 15.3167 145.383 14.8879 144.758 14.5309C139.021 11.2473 133.294 7.94276 127.581 4.61883C126.961 4.25731 126.48 4.26926 125.867 4.6263C120.153 7.95023 114.426 11.2532 108.692 14.5428C108.103 14.8804 107.86 15.2913 107.861 15.9755C107.879 22.6472 107.881 29.319 107.861 35.9892C107.86 36.6779 108.109 37.1022 108.692 37.4279C110.189 38.2645 111.667 39.1354 113.154 39.9869C113.546 40.211 113.974 40.338 114.413 40.4366C116.084 40.8116 117.412 39.7867 117.413 38.0777C117.422 31.6061 117.418 25.1331 117.418 18.6615C117.418 18.3881 117.415 18.1132 117.419 17.8399C117.439 16.8016 117.609 16.6343 118.645 16.6268C119.092 16.6238 119.54 16.6208 119.987 16.6268C120.883 16.6402 121.013 16.7627 121.013 17.6845C121.013 24.6042 121.021 31.5255 121.004 38.4452C120.995 42.3264 118.435 44.4537 114.389 43.9532C113.235 43.8113 112.189 43.3318 111.186 42.7805C109.639 41.932 108.118 41.0356 106.586 40.1587C105.216 39.3729 104.536 38.2032 104.543 36.6047C104.56 33.0956 104.549 29.5849 104.548 26.0757H104.549Z" fill="white"/>
<path id="Vector_2" d="M73.2632 19.764C73.2632 24.2188 73.2453 28.6736 73.2766 33.1269C73.2841 34.1413 72.9426 34.7762 72.0239 35.2677C69.0458 36.8632 66.102 38.5214 63.1641 40.1916C62.3677 40.6442 61.6728 40.6681 60.8645 40.2095C57.776 38.4542 54.6651 36.7377 51.5528 35.0227C51.0084 34.7224 50.7549 34.2847 50.7534 33.6946C50.7475 30.1361 50.749 26.5777 50.7564 23.0192C50.7564 22.3917 51.0651 21.9451 51.6169 21.6403C54.8366 19.8641 58.0534 18.0833 61.2671 16.2966C61.7727 16.0158 62.2529 16.0307 62.751 16.3086C63.9008 16.951 65.0566 17.5814 66.2078 18.2193C66.9222 18.6137 66.9699 18.5913 66.9699 17.7666C66.9729 12.9891 66.9714 8.21015 66.9714 3.43265C66.9714 3.18317 66.9609 2.93369 66.9788 2.6857C67.0325 1.9268 67.4143 1.68778 68.0675 2.04632C69.5484 2.859 71.0113 3.70454 72.4877 4.5247C73.1514 4.89369 73.2662 5.48677 73.2647 6.17396C73.2558 10.7035 73.2602 15.2315 73.2602 19.761L73.2632 19.764ZM66.9744 28.3494H66.9714C66.9714 27.6279 66.961 26.9063 66.9759 26.1848C66.9848 25.7635 66.8163 25.4856 66.4464 25.2839C65.1609 24.5803 63.8814 23.8647 62.6048 23.1432C62.1977 22.9131 61.8145 22.9086 61.4058 23.1372C60.1487 23.8408 58.8885 24.54 57.6224 25.2287C57.2093 25.4527 57.0065 25.7575 57.0124 26.243C57.0289 27.6607 57.0274 29.0799 57.0124 30.4991C57.008 30.9548 57.1944 31.2297 57.5896 31.4448C58.8572 32.1305 60.1159 32.8341 61.3641 33.5527C61.798 33.8022 62.1798 33.8141 62.6183 33.5586C63.5846 32.9969 64.5346 32.3844 65.5576 31.9482C66.7149 31.4552 67.1966 30.7083 66.9833 29.4698C66.9207 29.1068 66.9744 28.7244 66.9744 28.3509V28.3494Z" fill="white"/>
<path id="Vector_3" d="M46.8655 28.4152C46.8655 30.1078 46.8431 31.7989 46.8759 33.49C46.8909 34.3086 46.5658 34.8554 45.8619 35.2423C42.7077 36.9797 39.5581 38.7276 36.4129 40.4829C35.9074 40.7653 35.4212 40.7772 34.9276 40.5038C31.6467 38.6857 28.3673 36.8677 25.0909 35.0421C24.5928 34.7643 24.3632 34.3116 24.3632 33.7424C24.3632 30.2348 24.3647 26.7256 24.3617 23.2179C24.3617 22.5501 24.6734 22.0736 25.2341 21.7614C28.4673 19.9612 31.7034 18.1655 34.944 16.3773C35.4436 16.101 35.9581 16.1637 36.4413 16.4326C39.6789 18.2253 42.9135 20.0239 46.1512 21.8166C46.7313 22.1378 46.8715 22.6577 46.8685 23.2657C46.8625 24.9822 46.867 26.6987 46.867 28.4167L46.8655 28.4152Z" fill="white"/>
<path id="Vector_4" d="M22.5662 30.3991C22.5662 32.7624 22.5707 35.1258 22.5647 37.4906C22.5617 38.5946 22.2038 38.8097 21.2539 38.2674C19.8953 37.4906 18.5576 36.6794 17.1945 35.9086C16.5383 35.5381 16.2639 35.0331 16.2729 34.2698C16.3027 31.6823 16.2654 29.0949 16.2968 26.5075C16.3042 25.8561 16.1103 25.4348 15.5258 25.1301C14.3148 24.4982 13.1262 23.8229 11.9332 23.1566C11.5305 22.9311 11.1473 22.8997 10.7342 23.1312C9.43526 23.8618 8.13633 24.5938 6.82547 25.3019C6.37211 25.5469 6.3229 25.9263 6.3229 26.37C6.32887 28.9829 6.30202 31.5957 6.33781 34.207C6.34974 35.0272 6.06938 35.5605 5.35057 35.9564C4.02331 36.6869 2.73184 37.4817 1.41949 38.2376C0.420312 38.8127 0.0504685 38.5916 0.0459946 37.3831C0.0325729 33.726 0.0400294 30.0689 0.0400294 26.4104C0.0400294 25.39 0.0504685 24.3697 0.0400294 23.3509C0.0325729 22.4978 0.381538 21.9167 1.15553 21.4969C4.12472 19.8865 7.08496 18.2581 10.0154 16.5775C10.9161 16.0606 11.6573 16.0382 12.5685 16.5626C15.5183 18.2596 18.5039 19.891 21.491 21.5223C22.2545 21.9391 22.5886 22.5068 22.5752 23.3837C22.5409 25.7217 22.5632 28.0611 22.5632 30.3991H22.5662Z" fill="white"/>
<path id="Vector_5" d="M75.0527 28.3718C75.0527 26.7046 75.0691 25.0374 75.0452 23.3702C75.0333 22.5053 75.3763 21.9436 76.1503 21.5223C79.1836 19.873 82.2005 18.1939 85.2025 16.4863C85.981 16.0441 86.6416 16.0367 87.4246 16.4804C90.4072 18.1715 93.4077 19.8282 96.4216 21.4625C97.2418 21.9077 97.6161 22.5172 97.5848 23.4404C97.5535 24.3607 97.5699 25.2809 97.5789 26.2027C97.5848 26.9392 97.3074 27.4665 96.6319 27.837C95.239 28.6019 93.8819 29.434 92.4995 30.2183C91.7195 30.662 91.3213 30.4394 91.3019 29.549C91.2781 28.4794 91.2751 27.4082 91.3019 26.3401C91.3154 25.8008 91.114 25.4557 90.6428 25.2032C89.3946 24.534 88.1598 23.8423 86.9235 23.1506C86.5193 22.9236 86.1346 22.9101 85.726 23.1417C84.4285 23.8752 83.1266 24.6012 81.8202 25.3183C81.4728 25.5095 81.3356 25.7814 81.337 26.1683C81.3445 27.6368 81.3534 29.1038 81.3311 30.5723C81.3236 31.0997 81.6487 31.3043 82.0335 31.5135C85.0414 33.1568 88.0464 34.806 91.0529 36.4553C91.4213 36.657 91.8612 36.8168 91.8582 37.3352C91.8552 37.8596 91.3959 37.9955 91.035 38.1987C89.757 38.9158 88.47 39.6179 87.1979 40.3454C86.6237 40.6741 86.0734 40.6815 85.5038 40.3648C82.2691 38.5662 79.033 36.769 75.7968 34.9719C75.1944 34.6372 75.0542 34.0785 75.0527 33.4496C75.0527 31.757 75.0527 30.0659 75.0527 28.3733V28.3718Z" fill="white"/>
<path id="Vector_6" d="M132.772 36.5643C130.428 36.509 128.482 36.3566 126.631 35.5858C124.129 34.543 122.803 32.6876 122.669 29.9732C122.642 29.4309 122.867 29.1172 123.416 29.0664C123.613 29.0485 123.812 29.053 124.011 29.0515C125.923 29.0425 125.932 29.0395 126.551 30.7874C126.916 31.8227 127.679 32.4576 128.679 32.7041C131.124 33.3046 133.594 33.321 136.047 32.707C136.632 32.5606 137.158 32.2619 137.512 31.742C138.403 30.4288 138.02 29.1112 136.533 28.5615C134.769 27.9086 132.898 27.8026 131.05 27.5845C129.693 27.4246 128.342 27.2349 127.038 26.7912C124.743 26.0114 123.456 24.5474 123.353 22.5918C123.211 19.8879 124.321 17.9324 126.604 16.9195C128.555 16.0545 130.619 15.8319 132.726 15.9559C134.014 16.0321 135.296 16.1726 136.533 16.5894C139.139 17.4663 140.54 19.3157 140.933 21.9913C141.049 22.792 140.788 23.0774 139.962 23.1028C139.813 23.1072 139.662 23.0878 139.514 23.1072C138.245 23.2746 137.351 23.0206 137.031 21.5237C136.82 20.5303 135.926 19.9387 134.935 19.6922C132.927 19.1917 130.902 19.1544 128.893 19.6922C127.72 20.0074 127.172 20.6423 127.102 21.6178C127.037 22.5276 127.284 22.9653 128.14 23.288C129.429 23.7735 130.792 23.9229 132.143 24.1216C134.105 24.4099 136.086 24.6026 137.986 25.2375C139.998 25.9098 141.458 27.0661 141.66 29.3443C141.86 31.5911 141.162 33.4615 139.297 34.8149C138.035 35.7307 136.58 36.1475 135.067 36.3566C134.185 36.4791 133.294 36.6076 132.771 36.5598L132.772 36.5643Z" fill="white"/>
<path id="Vector_7" d="M88.2105 28.3568C88.2105 29.3308 87.1979 30.4169 86.3166 30.39C85.3517 30.3601 84.4151 29.3562 84.4166 28.3523C84.4166 27.3753 85.3979 26.3206 86.321 26.3057C87.1994 26.2922 88.2105 27.3902 88.212 28.3568H88.2105Z" fill="white"/>
</g>
</g>
</svg>
