<svg width="161" height="54" viewBox="0 0 161 54" fill="none" xmlns="http://www.w3.org/2000/svg">
<g id="Group">
<path id="Vector" d="M51.4413 36.2759C50.6421 36.5397 49.6205 36.5887 49.1003 37.124C48.5122 37.7272 49.2322 38.6696 49.3491 39.4632C49.8618 42.9653 50.0974 46.4297 48.8553 49.8545C47.845 52.6365 45.6114 54.0238 42.8293 53.8636C40.2565 53.7147 38.1699 52.4481 36.0758 51.1871C34.5453 50.2654 33.1581 49.1307 31.882 47.8772C31.4032 47.406 31.1017 47.3928 30.5796 47.8659C27.9671 50.2371 25.1587 52.318 21.715 53.3471C21.0006 53.5601 20.2561 53.7241 19.5154 53.7995C16.7861 54.0766 14.7824 52.9419 13.5969 50.4482C13.1464 49.5001 12.7713 48.5124 12.645 47.4531C12.317 44.2131 12.5828 41.0144 13.382 37.8629C13.5592 37.1617 13.0616 37.0939 12.6111 36.9525C9.76303 36.0497 7.05446 34.8584 4.64371 33.0584C3.60703 32.2856 2.66083 31.411 1.94646 30.331C0.176565 27.6544 0.47249 25.0024 2.72303 22.6595C4.90571 20.3883 7.63312 19.0255 10.5132 17.9059C10.9203 17.7476 11.3388 17.6175 11.7534 17.478C12.9397 17.0784 13.3952 16.2478 13.12 14.9862C12.5809 12.5227 12.415 10.0215 12.4942 7.51459C12.5508 5.72962 13.1483 4.04831 14.1359 2.55926C15.5006 0.4991 17.8548 -0.220921 20.6425 0.436899C24.2238 1.28132 27.1246 3.32641 29.8482 5.66553C31.1224 6.75876 31.0753 6.77384 32.3476 5.67684C34.8507 3.52055 37.5121 1.60552 40.7013 0.578265C44.8009 -0.743031 47.8544 0.849686 49.0833 4.94551C49.3529 5.8446 49.4924 6.77384 49.5866 7.7125C49.8674 10.487 49.4792 13.2069 48.9194 15.9023C48.7478 16.7222 48.8949 17.0634 49.711 17.3008C52.9492 18.2452 55.9763 19.6268 58.5831 21.8245C59.4313 22.5408 60.1438 23.3683 60.681 24.3295C61.974 26.6479 61.5046 29.0813 59.4652 31.2715C57.4126 33.4749 54.8303 34.8151 52.1067 35.9517C51.8805 36.0459 51.6637 36.1665 51.4432 36.274L51.4413 36.2759ZM30.9509 36.7131C32.5153 36.7131 34.0798 36.7207 35.6461 36.7094C36.1889 36.7056 36.6432 36.5492 36.9825 36.044C38.8296 33.2864 40.4393 30.3951 41.9642 27.4509C42.1206 27.1474 42.1376 26.8948 41.9793 26.5952C40.4412 23.683 38.8127 20.8218 37.0258 18.0548C36.7902 17.6891 36.4962 17.4988 36.0344 17.4667C32.7472 17.2386 29.4637 17.2481 26.1765 17.4516C25.7298 17.4799 25.4678 17.6986 25.2114 18.0755C23.3548 20.8067 21.6641 23.6321 20.2316 26.6083C20.1261 26.827 19.9489 27.0155 20.1336 27.3661C21.7056 30.3743 23.4321 33.2902 25.3038 36.1213C25.611 36.5869 25.9729 36.749 26.5384 36.7301C28.0086 36.6811 29.4807 36.7131 30.9528 36.7131H30.9509ZM13.9606 19.4534C13.8702 19.4892 13.8136 19.5175 13.7533 19.5363C10.7413 20.441 7.85553 21.6134 5.4052 23.6453C2.85874 25.7564 2.74376 27.9579 5.15451 30.1236C7.61616 32.3346 10.566 33.6879 13.7194 34.6247C14.2773 34.7906 14.3527 34.391 14.4601 34.0442C15.1575 31.8068 16.002 29.626 16.9896 27.4999C17.1291 27.2002 17.1913 26.9363 17.0367 26.6121C15.9963 24.4426 15.182 22.1827 14.3904 19.9152C14.3112 19.689 14.2886 19.4006 13.9587 19.4534H13.9606ZM15.084 44.7785C15.0275 45.3063 15.1858 46.1413 15.2782 46.9782C15.3328 47.472 15.4384 47.9658 15.5722 48.4446C16.3563 51.2361 18.3599 51.811 21.1269 50.8403C24.1163 49.7923 26.6835 48.0167 28.9944 45.8642C29.2884 45.5909 29.4034 45.4156 29.0622 45.0499C27.4186 43.2895 25.8938 41.4291 24.4914 39.4688C24.3105 39.2144 24.1257 38.9976 23.7488 38.9806C21.3701 38.8751 19.0253 38.4887 16.6994 38.0043C16.066 37.8723 15.9586 38.1475 15.8512 38.6131C15.4063 40.5357 15.1424 42.4809 15.084 44.7766V44.7785ZM47.1645 43.9115C47.2022 42.0813 46.863 40.2982 46.5105 38.5151C46.4049 37.9835 46.1919 37.7611 45.553 37.91C43.3269 38.4303 41.0613 38.7413 38.7844 38.9467C38.2453 38.9957 37.9701 39.2257 37.6667 39.6347C36.5848 41.0917 35.4878 42.5393 34.3286 43.936C33.0487 45.4778 32.996 45.4759 34.5227 46.784C36.6978 48.6519 39.0275 50.2559 41.8398 51.0608C44.586 51.8468 46.1335 50.4821 46.7593 48.013C47.0986 46.6728 47.1381 45.2874 47.1645 43.9096V43.9115ZM15.0821 9.19778C15.1688 11.3729 15.4271 13.4482 15.87 15.5008C15.9718 15.9701 16.1094 16.2887 16.7389 16.1435C18.9951 15.6233 21.2909 15.3274 23.5904 15.0692C23.9599 15.0277 24.237 14.9203 24.4556 14.6111C25.8278 12.6659 27.3376 10.832 28.9435 9.07904C29.2526 8.73976 29.2488 8.53619 28.8888 8.25346C27.8823 7.45993 26.9342 6.58912 25.8956 5.84083C24.0108 4.4856 22.0147 3.33018 19.6869 2.88346C17.6965 2.50272 16.4298 3.24159 15.7418 5.12835C15.2518 6.47414 15.1688 7.87272 15.0784 9.19778H15.0821ZM47.0741 9.31653C47.0307 8.71903 47.0119 7.90853 46.9025 7.10935C46.8234 6.52504 46.665 5.94449 46.4784 5.38469C45.7019 3.06064 44.3768 2.31046 42.0151 2.9287C38.5488 3.83532 35.8534 6.00858 33.2806 8.36844C32.9187 8.70018 33.1562 8.86982 33.3692 9.11485C34.9129 10.8772 36.4453 12.649 37.7534 14.6017C37.9098 14.8354 38.0945 15.0296 38.4206 15.0616C40.8182 15.2859 43.1931 15.6516 45.5454 16.168C46.0675 16.283 46.2655 16.0436 46.3654 15.5573C46.7725 13.5669 47.0213 11.5614 47.076 9.3203L47.0741 9.31653ZM58.8168 27.2096C58.8036 26.041 58.3475 25.2701 57.7085 24.5991C55.1828 21.9414 51.8899 20.6861 48.5122 19.5853C47.8978 19.3855 47.8393 19.8624 47.7243 20.2224C47.0609 22.3071 46.2579 24.3371 45.3174 26.3105C45.1213 26.7214 45.0799 27.0739 45.3004 27.53C46.1995 29.3848 46.9591 31.2998 47.6452 33.2431C47.9731 34.1717 48.6184 34.4695 49.5809 34.1365C52.4987 33.1243 55.2733 31.8577 57.488 29.6241C58.2024 28.9022 58.7263 28.0616 58.8168 27.2096ZM39.9606 36.176C41.8266 36.0685 43.4966 35.6878 45.1798 35.3824C45.602 35.3051 45.5681 35.0884 45.4531 34.7774C44.8744 33.2148 44.3787 31.6202 43.5343 30.0105C42.4034 32.1423 41.2819 34.1403 39.9624 36.176H39.9606ZM18.6879 30.0407C17.9924 31.7277 17.4269 33.2431 16.9255 34.7868C16.7823 35.2316 16.8313 35.4126 17.2874 35.4974C18.9103 35.7933 20.5275 36.1156 22.3238 36.24C20.9592 34.2308 19.8546 32.2121 18.6879 30.0407ZM27.6523 39.318C28.7154 40.792 29.7785 42.0059 30.8529 43.2122C31.0847 43.4704 31.2638 43.5251 31.522 43.2348C32.6303 41.9851 33.6764 40.6902 34.6773 39.3199H27.6523V39.318ZM43.538 23.913C44.3127 22.3297 44.8292 20.7351 45.3645 19.1499C45.5096 18.7202 45.1138 18.6938 44.8688 18.6485C43.4853 18.3922 42.0961 18.1641 40.7089 17.9247C40.5279 17.8927 40.3111 17.8079 40.2037 18.0001C40.0982 18.1849 40.2659 18.362 40.3658 18.5109C41.5137 20.2149 42.4448 22.047 43.538 23.9149V23.913ZM18.7011 23.9582C19.8301 21.8377 20.9215 19.8567 22.2409 17.8682C20.471 18.0133 18.8632 18.3526 17.2516 18.6561C16.7163 18.756 16.8615 19.099 16.9708 19.4251C17.4703 20.8934 17.9735 22.3617 18.7011 23.9582ZM34.6207 14.745C33.7819 13.5123 32.8979 12.5133 32.0215 11.5105C31.1356 10.4946 31.1149 10.4795 30.2704 11.4653C29.377 12.5076 28.4176 13.5009 27.6429 14.745H34.6207Z" fill="#FCFDFE"/>
<path id="Vector_2" d="M87.1901 32.2084C88.2004 33.9952 89.222 35.7783 90.2191 37.5746C90.7883 38.6 90.5376 38.8808 89.3728 39.0146C87.9365 39.1786 87.1279 38.6056 86.521 37.3409C85.9668 36.1854 85.1865 35.1393 84.5041 34.0461C83.9368 32.4459 82.9077 31.0944 82.1104 29.6185C81.9954 29.4056 81.7786 29.3829 81.5411 29.3829C79.922 29.3886 78.3029 29.3754 76.6838 29.3735C76.3728 29.3735 75.9657 29.3339 75.9883 29.7844C76.0637 31.2037 75.8318 32.6287 76.0844 34.0423C75.8884 35.1997 75.9996 36.3683 76.0053 37.5294C76.009 38.8676 75.9355 38.9864 74.6293 38.9901C73.4066 38.9939 72.7922 38.3838 72.7859 37.1599C72.7784 36.1949 72.7557 35.2298 72.7388 34.2648C72.752 29.8636 72.767 25.4624 72.7784 21.0612C72.7821 19.5307 72.801 18.0002 72.767 16.4697C72.7482 15.6102 73.0403 15.2068 73.962 15.2181C76.7554 15.2539 79.5488 15.2012 82.3422 15.2407C84.6568 15.2747 86.8206 15.8137 88.4812 17.5761C90.9014 20.1452 91.071 26.7366 86.1327 28.563C85.3316 28.8589 85.3335 29.1794 85.7444 29.7995C86.2608 30.5798 86.7113 31.4035 87.1901 32.2084ZM76.0015 22.2035H76.0053C76.0053 23.4663 76.0222 24.7273 75.9958 25.9883C75.9883 26.3728 76.0675 26.5896 76.4821 26.5726C78.7854 26.4784 81.1019 26.7818 83.3921 26.4048C85.5653 26.0448 86.6887 24.7631 86.7547 22.6803C86.8338 20.1829 85.8631 18.7315 83.6296 18.2547C81.2263 17.742 78.776 18.1246 76.3483 18.0228C75.8884 18.004 76.0053 18.3696 76.0034 18.6279C75.9977 19.8191 75.9996 21.0122 75.9996 22.2035H76.0015Z" fill="#FCFDFE"/>
<path id="Vector_3" d="M126.996 25.649C127.013 29.7335 127.028 33.818 127.047 37.9025C127.049 38.3172 127.055 38.7243 126.651 38.9863C126.02 38.9976 125.39 39.007 124.759 39.0184C123.524 38.8506 124.229 37.8233 123.941 37.2145C123.724 37.1203 123.63 37.3314 123.504 37.4464C121.055 39.6536 117.299 40.0192 114.458 38.3247C111.224 36.3946 111.171 32.165 114.353 30.1538C114.562 30.0219 114.762 29.8692 114.965 29.7278C115.044 29.6807 115.124 29.6317 115.203 29.5846L115.21 29.5921C117.779 28.6157 120.499 28.4065 123.187 28.0352C123.662 27.9692 123.871 27.7694 123.896 27.2492C124.001 24.993 122.891 23.7038 120.642 23.5172C118.658 23.3532 116.99 23.8169 115.977 25.7262C115.738 26.1786 114.151 26.3803 113.635 26.041C112.973 25.6056 113.21 24.9666 113.438 24.4426C114.072 22.9819 115.261 22.0941 116.716 21.5512C118.974 20.7106 121.264 20.8143 123.513 21.5362C125.487 22.1714 126.401 23.7999 126.996 25.649ZM123.873 31.5938C123.878 30.7218 123.452 30.3429 122.595 30.4573C122.007 30.5364 121.417 30.5967 120.831 30.691C119.319 30.9323 117.779 31.0962 116.43 31.9124C115.646 32.3855 115.059 32.9943 115.101 34.014C115.142 35.0036 115.55 35.7293 116.437 36.2099C119.406 37.8177 123.896 36.3117 123.873 31.5957V31.5938Z" fill="#FCFDFE"/>
<path id="Vector_4" d="M109.156 28.235C109.164 28.857 109.152 29.479 109.184 30.0991C109.228 30.9134 108.945 31.2753 108.055 31.2659C104.544 31.2263 101.03 31.2715 97.519 31.2319C96.7876 31.2244 96.5728 31.4412 96.6972 32.1348C97.0421 34.0706 97.7885 35.7537 99.745 36.5284C101.701 37.3031 103.822 36.6792 105.238 35.0318C105.812 34.3646 107.58 33.965 108.317 34.3872C108.936 34.7397 108.781 35.292 108.521 35.7839C107.914 36.928 106.941 37.7272 105.824 38.3096C103.56 39.4877 101.151 39.7157 98.7215 38.992C95.8132 38.1249 94.3354 35.9535 93.7228 33.0923C93.6587 32.7888 93.572 32.491 93.4966 32.1913C93.5343 30.3498 93.3572 28.5026 93.851 26.6819C94.7972 23.1967 97.6622 20.6013 101.999 21.0631C106.323 21.523 108.168 23.3946 109.158 28.2388L109.156 28.235ZM101.33 28.857C102.491 28.857 103.654 28.8627 104.815 28.857C106.357 28.8457 106.154 28.9418 105.929 27.547C105.526 25.0269 103.543 23.3569 101.11 23.4832C98.6273 23.6114 96.8253 25.5019 96.6651 28.0842C96.6293 28.6723 96.7952 28.8758 97.3738 28.8645C98.6914 28.84 100.011 28.857 101.33 28.8589V28.857Z" fill="#FCFDFE"/>
<path id="Vector_5" d="M144.173 22.4032C145.344 23.3589 146.224 24.503 146.524 26.0222C146.722 27.0287 146.409 27.3699 145.372 27.4453C144.369 27.5188 143.64 27.417 143.176 26.2729C142.349 24.2278 140.918 23.5455 138.468 23.7113C136.615 23.8376 135.207 24.9026 134.709 26.8346C134.11 29.1643 134.038 31.5524 134.819 33.8595C135.456 35.7406 136.979 36.6868 139.012 36.7094C141.024 36.7301 142.465 35.8216 143.248 34.0423C143.674 33.0735 145.28 32.5269 146.192 33.0414C146.635 33.2921 146.612 33.7087 146.546 34.1196C146.294 35.7236 145.374 36.9017 144.151 37.9044C143.02 38.8318 141.674 39.2144 140.279 39.2804C138.841 39.3482 137.397 39.5669 135.953 38.992C132.819 37.7423 131.45 35.3334 131.209 32.1386C131.043 29.9484 131.175 27.7638 131.558 25.5981C132.27 24.5539 132.8 23.3852 133.848 22.5766C136 20.9142 138.443 20.8425 140.975 21.1554C142.147 21.3006 143.159 21.851 144.169 22.407L144.173 22.4032Z" fill="#FCFDFE"/>
<path id="Vector_6" d="M155.288 20.1301C155.239 20.913 155.61 21.3057 156.4 21.3082C157.311 21.3082 158.219 21.3157 159.13 21.3082C160.099 21.3006 160.21 21.9057 160.212 22.6879C160.215 23.489 160.055 24.0526 159.1 24.0375C158.033 24.0224 156.966 24.0526 155.901 24.0299C155.415 24.0205 155.241 24.2015 155.243 24.6878C155.258 27.6979 155.209 30.7099 155.273 33.7201C155.313 35.5277 156.218 36.3042 158.021 36.3137C158.429 36.3155 158.838 36.3118 159.245 36.3137C160.349 36.3212 160.525 36.5059 160.525 37.6481C160.525 38.7941 160.349 38.9864 159.249 38.9845C158.057 38.9826 156.851 39.0769 155.68 38.9204C154.084 38.7074 152.584 37.339 152.305 35.1337C151.903 31.9634 152.197 28.7723 152.124 25.5925C152.088 24.0356 152.12 24.0356 150.608 24.0337C150.388 24.0337 150.169 24.0375 149.95 24.0337C148.853 24.0111 148.701 23.866 148.703 22.7765C148.703 22.4014 148.746 22.0282 148.771 21.6531C149.477 21.0217 150.335 21.3327 151.112 21.3459C151.95 21.3591 152.192 21.1009 152.15 20.2753C152.082 18.8767 152.167 17.4687 152.122 16.0682C152.092 15.1616 152.454 14.7903 153.341 14.8902C153.494 14.9072 153.652 14.8827 153.809 14.8827C155.045 14.8902 155.228 15.0711 155.241 16.2775C155.254 17.5592 155.275 18.8428 155.29 20.1245L155.288 20.1301Z" fill="#FCFDFE"/>
<path id="Vector_7" d="M124.761 39.0183C125.392 39.0069 126.022 38.9975 126.653 38.9862C126.031 39.5592 125.4 39.5159 124.761 39.0183Z" fill="#5E8CC8"/>
<path id="Vector_8" d="M115.205 29.5826C115.126 29.6298 115.046 29.6788 114.967 29.7259L115.205 29.5826Z" fill="#5E8CC8"/>
<path id="Vector_9" d="M31.2355 21.587C34.3794 21.7133 36.6658 24.1995 36.5093 27.3265C36.3699 30.1594 33.7763 32.4609 30.8773 32.327C27.8069 32.1838 25.5884 29.7259 25.6977 26.5895C25.7938 23.8282 28.4006 21.474 31.2355 21.587Z" fill="#FCFDFE"/>
</g>
</svg>
