<svg width="180" height="56" viewBox="0 0 180 56" fill="none" xmlns="http://www.w3.org/2000/svg">
<g id="HC8Duy">
<g id="Group">
<path id="Vector" d="M0.420834 29.1219C0.420834 23.503 0.386423 19.0786 0.433124 14.6592C0.46262 11.8252 0.671547 8.99603 2.13158 6.45695C4.48631 2.35952 8.17818 0.49638 12.7795 0.28991C21.9059 -0.12057 31.0348 0.149806 40.1637 0.112937C41.8745 0.105563 43.6 0.260415 45.2984 0.486548C51.5539 1.3198 55.5432 5.64336 56.0152 12.007C56.4428 17.8128 56.1774 23.6283 56.1946 29.4389C56.2093 34.1435 56.347 38.8505 56.0496 43.5575C55.5899 50.8306 51.1336 55.3361 43.7991 55.6704C34.0213 56.1153 24.2336 55.8203 14.4509 55.8179C11.6734 55.8179 8.89837 55.4811 6.41336 53.9572C2.85914 51.7794 1.01812 48.5718 0.642051 44.4915C0.13571 38.9759 0.565854 33.443 0.420834 29.117V29.1219ZM26.6621 26.1969C21.2325 23.1023 16.3976 19.2212 11.5702 15.3155C14.151 19.027 17.0392 22.4731 20.1165 25.7495C22.9457 28.7605 25.8288 31.7298 29.1053 34.2738C29.8697 34.8661 29.9091 35.3135 28.9947 35.778C27.9673 36.3016 26.8956 36.6998 25.7821 36.98C19.6987 38.5113 14.1191 37.0636 8.79267 34.1042C8.38711 33.878 8.04791 33.4528 7.48749 33.5585C7.34739 34.0255 7.71363 34.2516 7.92501 34.5147C9.52269 36.4982 11.2728 38.3491 13.3473 39.8288C19.3447 44.113 25.8608 46.3842 33.3306 44.7644C35.4026 44.3146 37.165 43.1298 39.1117 42.3924C42.3513 41.1659 44.915 41.8591 46.9453 44.4989C47.1075 44.7103 47.2083 45.0962 47.5671 44.9512C47.8842 44.8258 47.808 44.4596 47.8203 44.1843C47.9653 40.9791 46.9158 38.1352 45.0747 35.579C44.5709 34.8809 44.3865 34.2713 44.6028 33.4356C45.2935 30.7663 45.1927 28.0748 44.5856 25.4128C43.1895 19.2925 39.7508 14.4748 34.9405 10.5716C34.4735 10.1931 33.9279 9.26887 33.3896 9.74571C32.9447 10.1414 33.7804 10.8493 34.0655 11.4024C36.5874 16.2839 37.7746 21.3522 36.2875 26.8089C35.8918 28.2591 35.6386 28.3722 34.3752 27.5414C29.9902 24.6557 25.8682 21.4235 21.8961 17.9996C20.3156 16.6379 18.772 15.2368 17.2112 13.853C20.1042 18.1864 23.3143 22.2248 26.6596 26.1969H26.6621Z" fill="white"/>
<path id="Vector_2" d="M86.4446 47.1191C81.7449 47.1486 77.8736 46.2637 74.8208 43.147C73.26 41.5542 72.3358 39.6149 71.9573 37.4126C71.8098 36.5523 72.0384 36.0484 73.0167 36.1221C73.3829 36.1492 73.759 36.1639 74.1203 36.1172C75.9712 35.8714 77.4336 36.0926 77.9105 38.349C78.117 39.3224 79.0239 40.045 79.8646 40.6546C82.969 42.8987 88.5043 43.0438 91.7685 40.9766C95.2957 38.7399 95.2564 34.4335 91.6751 32.2828C90.2937 31.452 88.7428 31.0489 87.1991 30.631C84.2815 29.842 81.3123 29.2521 78.5078 28.0354C70.9249 24.7467 71.6402 15.5121 76.7774 11.7415C82.561 7.49417 92.1642 8.11112 96.7754 13.1352C98.1863 14.6714 98.9015 16.5075 99.2457 18.5231C99.3956 19.3907 99.1203 19.875 98.1617 19.8111C97.8348 19.7889 97.5054 19.784 97.1785 19.8135C95.335 19.988 93.7201 19.9561 93.3736 17.4956C93.2335 16.5002 92.3043 15.78 91.4613 15.1704C88.5682 13.0836 83.2787 13.1549 80.4422 15.3154C77.5811 17.4932 77.7409 21.1851 80.7912 23.0531C82.2758 23.9626 83.9497 24.3804 85.6113 24.8327C88.3716 25.5848 91.1909 26.1108 93.8357 27.2833C97.9478 29.1046 100.121 32.0542 99.8356 36.6924C99.5603 41.1585 97.2105 44.0712 93.2507 45.7942C90.9353 46.802 88.4748 47.2321 86.4446 47.1215V47.1191Z" fill="white"/>
<path id="Vector_3" d="M154.724 35.198C154.724 31.9215 154.692 28.6475 154.744 25.371C154.759 24.3411 154.498 23.8889 153.377 23.9208C150.743 23.9946 151.052 24.0191 151.04 21.4997C151.03 19.6735 151.04 19.6735 152.866 19.6661C154.1 19.6612 154.72 19.0328 154.727 17.7808C154.751 12.2258 156.986 10.0284 162.536 10.1021C164.935 10.1341 164.964 10.1636 164.959 12.5896C164.956 13.7661 164.344 14.3495 163.123 14.3397C160.503 14.32 159.001 16.5469 159.918 19.0614C160.095 19.5432 160.415 19.6612 160.86 19.6587C163.192 19.6587 165.527 19.6489 167.86 19.6661C168.656 19.671 168.809 19.2138 168.804 18.5575C168.794 17.2057 168.826 15.8538 168.796 14.5044C168.777 13.6146 169.145 13.2385 170.042 13.2803C171.023 13.3245 172.006 13.3073 172.99 13.295C173.715 13.2852 174.027 13.6219 174.019 14.3397C174.007 15.7309 174.051 17.1245 174.012 18.5158C173.988 19.349 174.28 19.7177 175.145 19.6759C176.126 19.6292 177.109 19.6833 178.092 19.6661C178.798 19.6538 179.176 19.9414 179.159 20.6739C179.159 20.755 179.164 20.8385 179.164 20.9197C179.149 24.4296 179.476 23.8889 176.293 23.938C176.17 23.938 176.047 23.938 175.924 23.938C174.658 23.938 174.024 24.5591 174.022 25.8012C174.022 30.1419 174.015 34.4827 174.022 38.821C174.027 41.4289 174.909 42.3114 177.47 42.2991C178.586 42.2941 179.148 42.866 179.154 44.0147C179.171 47.1437 179.157 46.4407 176.684 46.6914C175.681 46.7922 174.634 46.6669 173.631 46.5022C170.883 46.0548 169.317 44.3662 169 41.5469C168.877 40.4507 168.814 39.3446 168.809 38.241C168.786 33.942 168.774 29.643 168.816 25.344C168.826 24.2797 168.479 23.884 167.4 23.9184C165.397 23.9823 163.386 23.9921 161.383 23.9159C160.218 23.8717 159.916 24.3461 159.921 25.43C159.955 31.8183 159.938 38.2041 159.935 44.5923C159.935 46.5661 159.928 46.5858 157.959 46.5636C154.179 46.5243 154.771 47.0626 154.732 43.2994C154.702 40.5981 154.727 37.8944 154.727 35.1931L154.724 35.198Z" fill="white"/>
<path id="Vector_4" d="M120.271 26.9563C119.315 30.2844 118.411 33.4208 117.511 36.5596C116.666 39.5116 115.808 42.4587 115.002 45.4181C114.768 46.276 114.335 46.6422 113.441 46.5832C112.544 46.5242 111.634 46.5095 110.739 46.5857C109.715 46.6742 109.302 46.2072 109.043 45.2707C106.812 37.1422 104.55 29.021 102.272 20.9048C102.016 19.9954 102.176 19.6169 103.189 19.6513C107.996 19.811 106.853 18.7689 108.041 23.4587C109.444 29.0088 110.737 34.5883 112.315 40.1974C112.524 39.4551 112.74 38.7177 112.942 37.973C114.481 32.327 116.039 26.686 117.533 21.0277C117.799 20.0273 118.224 19.6316 119.296 19.6365C122.823 19.6586 122.835 19.6144 123.786 23.0482C125.303 28.5294 126.802 34.0156 128.311 39.5018C128.375 39.7329 128.461 39.9565 128.656 40.5415C129.199 38.3343 129.668 36.4638 130.118 34.5908C131.217 30.0165 132.323 25.4422 133.392 20.8606C133.591 20.0077 133.977 19.5874 134.901 19.6488C135.838 19.7103 136.784 19.6906 137.726 19.6586C138.62 19.6267 138.755 20.015 138.537 20.7991C136.489 28.1313 134.461 35.4683 132.429 42.8029C132.166 43.7492 131.888 44.693 131.645 45.6418C131.475 46.2956 131.094 46.5881 130.411 46.5709C129.43 46.5439 128.439 46.507 127.463 46.5857C126.441 46.6693 126.023 46.217 125.76 45.278C124.204 39.7206 122.604 34.1779 121.006 28.6327C120.861 28.1313 120.817 27.5807 120.267 26.9514L120.271 26.9563Z" fill="white"/>
<path id="Vector_5" d="M142.192 32.9956C142.192 29.0284 142.216 25.0588 142.175 21.0917C142.162 20.047 142.479 19.5702 143.576 19.6538C144.429 19.7201 145.296 19.7103 146.152 19.6562C147.132 19.5948 147.437 20.0446 147.435 20.9663C147.418 29.0653 147.418 37.1668 147.435 45.2658C147.435 46.1875 147.132 46.6373 146.154 46.5833C145.257 46.5316 144.352 46.5365 143.455 46.5833C142.487 46.6324 142.172 46.2047 142.177 45.2707C142.207 41.1806 142.189 37.0881 142.189 32.9981L142.192 32.9956Z" fill="white"/>
<path id="Vector_6" d="M141.705 12.6387C141.71 10.9894 143.089 9.63261 144.77 9.62032C146.407 9.60803 147.872 11.0042 147.904 12.6092C147.938 14.3347 146.446 15.7997 144.691 15.7603C143.049 15.7235 141.697 14.3126 141.702 12.6412L141.705 12.6387Z" fill="white"/>
</g>
</g>
</svg>
